<svg width="218" height="59" viewBox="0 0 218 59" fill="none" xmlns="http://www.w3.org/2000/svg">
<g filter="url(#filter0_d_763_1357)">
<g clip-path="url(#clip0_763_1357)">
<path d="M208.529 0.650009H19.4276C17.3318 0.650009 15.6329 2.34138 15.6329 4.42778V24.5755C15.6329 26.6619 17.3318 28.3533 19.4276 28.3533H208.529C210.625 28.3533 212.324 26.6619 212.324 24.5755V4.42778C212.324 2.34138 210.625 0.650009 208.529 0.650009Z" fill="black"/>
<path d="M208.53 0.648998C209.536 0.648998 210.501 1.04701 211.213 1.75548C211.924 2.46395 212.324 3.42484 212.324 4.42677V24.5757C212.324 25.5776 211.924 26.5385 211.213 27.247C210.501 27.9555 209.536 28.3535 208.53 28.3535H19.427C18.4205 28.3535 17.4553 27.9555 16.7437 27.247C16.032 26.5385 15.6322 25.5776 15.6322 24.5757V4.42677C15.6322 3.42484 16.032 2.46395 16.7437 1.75548C17.4553 1.04701 18.4205 0.648998 19.427 0.648998H208.53ZM208.53 0.0195732H19.427C18.2534 0.0211899 17.1283 0.486036 16.2984 1.3122C15.4686 2.13836 15.0016 3.25841 15 4.42677V24.5757C15.0016 25.7441 15.4686 26.8641 16.2984 27.6903C17.1283 28.5164 18.2534 28.9813 19.427 28.9829H208.53C209.703 28.9813 210.828 28.5164 211.658 27.6903C212.488 26.8641 212.955 25.7441 212.957 24.5757V4.42677C212.955 3.25841 212.488 2.13836 211.658 1.3122C210.828 0.486036 209.703 0.0211899 208.53 0.0195732V0.0195732Z" fill="#333333"/>
<path d="M208.313 1.52425H19.6437C17.8971 1.52425 16.4813 2.93381 16.4813 4.67259V24.3278C16.4813 26.0666 17.8971 27.4761 19.6437 27.4761H208.313C210.06 27.4761 211.475 26.0666 211.475 24.3278V4.67259C211.475 2.93381 210.06 1.52425 208.313 1.52425Z" fill="#333333"/>
<g opacity="0.3">
<path opacity="0.3" d="M211.475 14.3415H16.4825V14.6568H211.475V14.3415Z" fill="black"/>
</g>
<path opacity="0.1" d="M206.873 24.3278V4.6726C206.873 3.8376 206.54 3.0368 205.947 2.44638C205.354 1.85595 204.549 1.52425 203.711 1.52425H208.312C209.151 1.52425 209.955 1.85595 210.548 2.44638C211.141 3.0368 211.474 3.8376 211.474 4.6726V24.3278C211.474 25.1628 211.141 25.9636 210.548 26.554C209.955 27.1444 209.151 27.4761 208.312 27.4761H203.711C204.549 27.4761 205.354 27.1444 205.947 26.554C206.54 25.9636 206.873 25.1628 206.873 24.3278Z" fill="white"/>
<path opacity="0.1" d="M21.0826 24.3278V4.6726C21.0826 3.8376 21.4158 3.0368 22.0088 2.44638C22.6019 1.85595 23.4063 1.52425 24.245 1.52425H19.6437C18.805 1.52425 18.0006 1.85595 17.4075 2.44638C16.8145 3.0368 16.4813 3.8376 16.4813 4.6726V24.3278C16.4813 25.1628 16.8145 25.9636 17.4075 26.554C18.0006 27.1444 18.805 27.4761 19.6437 27.4761H24.245C23.4063 27.4761 22.6019 27.1444 22.0088 26.554C21.4158 25.9636 21.0826 25.1628 21.0826 24.3278V24.3278Z" fill="white"/>
<path opacity="0.03" d="M21.083 24.3278V4.6726C21.083 3.8376 21.4162 3.0368 22.0093 2.44638C22.6024 1.85595 23.4068 1.52425 24.2455 1.52425H21.455C21.0398 1.52425 20.6286 1.60569 20.245 1.76392C19.8613 1.92216 19.5128 2.15408 19.2192 2.44645C18.9257 2.73882 18.6928 3.0859 18.534 3.46787C18.3753 3.84983 18.2936 4.25921 18.2938 4.6726V24.3278C18.2936 24.7412 18.3753 25.1505 18.534 25.5325C18.6928 25.9145 18.9257 26.2615 19.2192 26.5539C19.5128 26.8463 19.8613 27.0782 20.245 27.2364C20.6286 27.3947 21.0398 27.4761 21.455 27.4761H24.2455C23.4068 27.4761 22.6024 27.1444 22.0093 26.554C21.4162 25.9636 21.083 25.1628 21.083 24.3278V24.3278Z" fill="white"/>
<path d="M44.9378 14.4999H36.0826V25.942H36.8327V18.6944C36.8327 18.3461 37.0721 18.065 37.3668 18.065H44.4075C44.7021 18.065 44.9415 18.3461 44.9415 18.6944V25.942H45.6904V14.4999H44.9378Z" fill="black"/>
<path opacity="0.2" d="M133.052 -0.000125885H94.9039C94.9039 0.149941 94.9336 0.298539 94.9913 0.437183C95.049 0.575827 95.1335 0.701802 95.2401 0.807916C95.3467 0.914029 95.4733 0.998203 95.6125 1.05563C95.7518 1.11306 95.9011 1.14262 96.0518 1.14262H131.9C132.05 1.14262 132.2 1.11306 132.339 1.05563C132.478 0.998203 132.605 0.914029 132.711 0.807916C132.818 0.701802 132.903 0.575827 132.96 0.437183C133.018 0.298539 133.048 0.149941 133.048 -0.000125885H133.052Z" fill="white"/>
<path opacity="0.2" d="M94.9039 29.0011H133.052C133.052 28.6938 132.93 28.3991 132.712 28.1818C132.493 27.9645 132.197 27.8424 131.889 27.8424H96.0678C95.7591 27.8424 95.4631 27.9645 95.2448 28.1818C95.0265 28.3991 94.9039 28.6938 94.9039 29.0011V29.0011Z" fill="white"/>
<path opacity="0.03" d="M206.873 4.6726V24.3278C206.873 25.1628 206.54 25.9636 205.947 26.554C205.354 27.1444 204.549 27.4761 203.711 27.4761H206.501C206.916 27.4761 207.327 27.3947 207.711 27.2364C208.095 27.0782 208.443 26.8463 208.737 26.5539C209.03 26.2615 209.263 25.9145 209.422 25.5325C209.581 25.1505 209.662 24.7412 209.662 24.3278V4.6726C209.662 4.25921 209.581 3.84983 209.422 3.46787C209.263 3.0859 209.03 2.73882 208.737 2.44645C208.443 2.15408 208.095 1.92216 207.711 1.76392C207.327 1.60569 206.916 1.52425 206.501 1.52425H203.711C204.549 1.52425 205.354 1.85595 205.947 2.44638C206.54 3.0368 206.873 3.8376 206.873 4.6726V4.6726Z" fill="white"/>
<path opacity="0.3" d="M199.184 23.7589V5.24526C199.184 4.33402 198.442 3.59532 197.527 3.59532L51.9316 3.59532C51.0163 3.59532 50.2742 4.33402 50.2742 5.24526V23.7589C50.2742 24.6702 51.0163 25.4089 51.9316 25.4089L197.527 25.4089C198.442 25.4089 199.184 24.6702 199.184 23.7589Z" fill="black"/>
<path d="M197.525 4.14449H51.9313C51.3211 4.14449 50.8264 4.63696 50.8264 5.24446V23.7581C50.8264 24.3656 51.3211 24.8581 51.9313 24.8581H197.525C198.136 24.8581 198.63 24.3656 198.63 23.7581V5.24446C198.63 4.63696 198.136 4.14449 197.525 4.14449Z" fill="#19AB6E"/>
<path d="M55.8476 4.14449H51.9325C51.6395 4.14449 51.3585 4.26038 51.1513 4.46666C50.944 4.67295 50.8276 4.95273 50.8276 5.24446V23.7581C50.8276 24.0498 50.944 24.3296 51.1513 24.5359C51.3585 24.7422 51.6395 24.8581 51.9325 24.8581H55.8476V4.14449Z" fill="#008056"/>
<path d="M197.527 4.14449H180.072V24.8581H197.527C197.82 24.8581 198.101 24.7422 198.308 24.5359C198.515 24.3296 198.632 24.0498 198.632 23.7581V5.24446C198.632 4.95273 198.515 4.67295 198.308 4.46666C198.101 4.26038 197.82 4.14449 197.527 4.14449V4.14449Z" fill="#008056"/>
<path opacity="0.3" d="M61.2188 4.14449H55.8527V24.8581H61.2188V4.14449Z" fill="#008056"/>
<path d="M52.1513 17.1201L54.5293 17.7398V18.3276L52.1513 18.9461V18.6723L54.2948 18.1284V17.9329L52.1513 17.389V17.1201Z" fill="#FFFDFA"/>
<path d="M52.1513 16.7451V16.4823H54.5293V16.7451H52.1513Z" fill="#FFFDFA"/>
<path d="M54.5293 15.9018H52.1513V15.0573C52.1513 14.3704 52.6325 14.1822 53.3053 14.1822C53.9781 14.1822 54.533 14.3594 54.533 15.0573L54.5293 15.9018ZM52.3858 15.0573V15.639H54.2948V15.0573C54.2948 14.5684 53.8209 14.4462 53.3053 14.4462C52.7897 14.4462 52.3858 14.5647 52.3858 15.0573Z" fill="#FFFDFA"/>
<path d="M52.1513 13.6961V12.2564H52.3858V13.4322H53.2059V12.4617H53.4367V13.4322H54.296V12.2564H54.5305V13.6961H52.1513Z" fill="#FFFDFA"/>
<path d="M53.3507 11.926C52.5674 11.926 52.123 11.7243 52.123 10.9922C52.123 10.2601 52.5662 10.0548 53.3507 10.0548C54.1683 10.0548 54.5636 10.2577 54.5636 10.9922C54.5636 11.7268 54.1474 11.926 53.3507 11.926ZM53.3507 10.3286C52.7086 10.3286 52.3501 10.4508 52.3501 10.9922C52.3501 11.5337 52.7049 11.6559 53.3507 11.6559C53.9964 11.6559 54.3328 11.5398 54.3328 10.9922C54.3328 10.4447 54.0197 10.3286 53.3507 10.3286Z" fill="#FFFDFA"/>
<path d="M59.6886 20.2846C59.7335 20.4998 59.7577 20.7187 59.761 20.9385C59.761 21.6461 59.3288 21.8038 58.5456 21.8038C57.7415 21.8038 57.3179 21.6498 57.3179 20.9385C57.3223 20.7187 57.3474 20.4998 57.3928 20.2846L57.6163 20.2956C57.5811 20.4976 57.5606 20.7018 57.5549 20.9067C57.5549 21.4335 57.8716 21.5251 58.5481 21.5251C59.2245 21.5251 59.5302 21.4396 59.5302 20.8994C59.5265 20.6943 59.506 20.49 59.4688 20.2883L59.6886 20.2846Z" fill="#008056"/>
<path d="M57.35 19.4135V18.8391L59.7267 18.1889V18.4492L59.1129 18.6203V19.6323L59.7267 19.8034V20.0637L57.35 19.4135ZM58.8784 19.5736V18.6778L57.5771 19.0322V19.2107L58.8784 19.5736Z" fill="#008056"/>
<path d="M57.604 16.5125C57.604 16.5125 57.5451 16.988 57.5451 17.186C57.5451 17.5208 57.6678 17.6993 57.933 17.6993C58.2424 17.6993 58.2939 17.5355 58.3872 17.1212C58.494 16.6494 58.6107 16.4404 59.0256 16.4404C59.5511 16.4404 59.7622 16.7276 59.7622 17.197C59.7521 17.448 59.7267 17.6982 59.6861 17.9462L59.4664 17.9181C59.4664 17.9181 59.5277 17.4536 59.5277 17.2104C59.5277 16.8755 59.3804 16.7044 59.0502 16.7044C58.7826 16.7044 58.7064 16.8438 58.6315 17.2312C58.5247 17.7201 58.4081 17.9645 57.9539 17.9645C57.4996 17.9645 57.3155 17.6638 57.3155 17.2019C57.3238 16.9624 57.3468 16.7236 57.3842 16.4869L57.604 16.5125Z" fill="#008056"/>
<path d="M57.604 14.6582C57.604 14.6582 57.5451 15.1324 57.5451 15.3316C57.5451 15.6665 57.6678 15.8449 57.933 15.8449C58.2424 15.8449 58.2939 15.6799 58.3872 15.2668C58.494 14.7938 58.6107 14.5861 59.0256 14.5861C59.5511 14.5861 59.7622 14.8733 59.7622 15.3414C59.7522 15.5924 59.7268 15.8426 59.6861 16.0906L59.4664 16.0637C59.4664 16.0637 59.5277 15.598 59.5277 15.3548C59.5277 15.0199 59.3804 14.8488 59.0502 14.8488C58.7826 14.8488 58.7064 14.9894 58.6315 15.3756C58.5247 15.8645 58.4081 16.1089 57.9539 16.1089C57.4996 16.1089 57.3155 15.8083 57.3155 15.3463C57.3237 15.1068 57.3467 14.868 57.3842 14.6313L57.604 14.6582Z" fill="#008056"/>
<path d="M57.35 14.1296V12.6898H57.5832V13.8656H58.4045V12.8878H58.6341V13.8656H59.4935V12.6898H59.7267V14.1296H57.35Z" fill="#008056"/>
<path d="M57.35 12.4825V10.7714H57.5869V11.4925H59.7267V11.7529H57.5869V12.4862L57.35 12.4825Z" fill="#008056"/>
<path d="M57.35 10.6823V8.97126H57.5869V9.69235H59.7267V9.95267H57.5869V10.686L57.35 10.6823Z" fill="#008056"/>
<path d="M57.35 8.64401V7.19816H57.5832V8.37512H58.4045V7.40348H58.6341V8.37512H59.4935V7.19816H59.7267V8.64401H57.35Z" fill="#008056"/>
<g opacity="0.4">
<path opacity="0.4" d="M176.476 7.21709H63.5647C63.5464 7.21677 63.5289 7.20929 63.516 7.19626C63.5032 7.18323 63.496 7.16569 63.496 7.14743C63.496 7.12928 63.5032 7.11187 63.5161 7.09903C63.529 7.0862 63.5465 7.07898 63.5647 7.07898H176.476C176.494 7.07898 176.512 7.0862 176.524 7.09903C176.537 7.11187 176.545 7.12928 176.545 7.14743C176.545 7.16569 176.537 7.18323 176.524 7.19626C176.512 7.20929 176.494 7.21677 176.476 7.21709Z" fill="#008056"/>
<path opacity="0.4" d="M176.476 14.5668H63.5647C63.5465 14.5668 63.529 14.5596 63.5161 14.5468C63.5032 14.534 63.496 14.5165 63.496 14.4984C63.496 14.4802 63.5032 14.4628 63.5161 14.45C63.529 14.4372 63.5465 14.4299 63.5647 14.4299H176.476C176.494 14.4299 176.511 14.4372 176.524 14.45C176.537 14.4628 176.545 14.4802 176.545 14.4984C176.545 14.5165 176.537 14.534 176.524 14.5468C176.511 14.5596 176.494 14.5668 176.476 14.5668V14.5668Z" fill="#008056"/>
<path opacity="0.4" d="M176.476 21.919H63.5647C63.5465 21.919 63.529 21.9118 63.5161 21.899C63.5032 21.8861 63.496 21.8687 63.496 21.8506C63.496 21.8323 63.5032 21.8148 63.516 21.8017C63.5289 21.7887 63.5464 21.7812 63.5647 21.7809H176.476C176.494 21.7812 176.512 21.7887 176.524 21.8017C176.537 21.8148 176.545 21.8323 176.545 21.8506C176.545 21.8687 176.537 21.8861 176.524 21.899C176.511 21.9118 176.494 21.919 176.476 21.919Z" fill="#008056"/>
</g>
<g opacity="0.4">
<path opacity="0.4" d="M28.5218 6.94743L28.2321 6.23367H27.1935L26.9074 6.94743H26.6435L27.5606 4.66561H27.8675L28.7858 6.94743H28.5218ZM27.8577 5.3097L27.7214 4.87949H27.7005L27.5642 5.3097L27.2647 6.05279H28.1572L27.8577 5.3097Z" fill="#19AB6E"/>
<path opacity="0.4" d="M30.9992 6.83728C30.8817 6.8903 30.758 6.92849 30.6309 6.95095C30.4764 6.98061 30.3193 6.99494 30.162 6.99373C30.0017 6.99531 29.8417 6.98056 29.6844 6.94973C29.5508 6.92421 29.4261 6.86485 29.3222 6.7774C29.2132 6.67814 29.1331 6.55149 29.0902 6.41074C28.9801 6.01072 28.9801 5.58858 29.0902 5.18856C29.1341 5.05002 29.2141 4.92558 29.3222 4.82801C29.4261 4.74056 29.5508 4.68121 29.6844 4.65569C29.8416 4.62441 30.0016 4.60926 30.162 4.61047C30.4368 4.59956 30.7108 4.64836 30.9649 4.75346L30.8421 4.94167C30.7733 4.91845 30.6788 4.89034 30.5597 4.85979C30.43 4.82784 30.2968 4.81224 30.1632 4.81335C30.0436 4.81248 29.9241 4.82147 29.8059 4.84024C29.7021 4.85502 29.6042 4.89722 29.5223 4.96246C29.434 5.0428 29.3691 5.14541 29.3345 5.25945C29.2445 5.61194 29.2445 5.98126 29.3345 6.33374C29.3685 6.44737 29.4335 6.54935 29.5223 6.62829C29.6045 6.69312 29.7023 6.73527 29.8059 6.75051C29.9242 6.76823 30.0436 6.77681 30.1632 6.77617C30.2351 6.77636 30.3069 6.77104 30.378 6.76029C30.4492 6.75051 30.5155 6.73829 30.5781 6.72362C30.6408 6.70895 30.7009 6.69429 30.7488 6.67718C30.7967 6.66007 30.8445 6.64663 30.8777 6.6344L30.9992 6.83728Z" fill="#19AB6E"/>
<path opacity="0.4" d="M32.992 4.95006C32.9577 4.93784 32.9147 4.92562 32.8595 4.91095C32.8042 4.89629 32.7441 4.88285 32.6778 4.87063C32.6115 4.85841 32.5403 4.84618 32.4666 4.83763C32.3929 4.82907 32.3205 4.82541 32.2493 4.82541C32.0835 4.8161 31.9179 4.84715 31.7668 4.91585C31.7107 4.95012 31.6654 4.99954 31.6363 5.05838C31.6072 5.11721 31.5954 5.18305 31.6023 5.24828C31.6014 5.30678 31.6055 5.36525 31.6146 5.42305C31.6223 5.46115 31.6426 5.49559 31.6723 5.52083C31.712 5.55025 31.7577 5.57068 31.8061 5.58072C31.8663 5.5966 31.9473 5.61494 32.0517 5.63572C32.1842 5.66423 32.3181 5.6899 32.4531 5.71271C32.5792 5.73193 32.7027 5.76513 32.8214 5.81171C32.9245 5.85118 33.0169 5.91394 33.0915 5.99504C33.1654 6.08657 33.2038 6.20154 33.1995 6.31891C33.2044 6.43432 33.1812 6.54919 33.132 6.65379C33.089 6.73816 33.0236 6.80918 32.9429 6.85912C32.8536 6.91176 32.7548 6.94624 32.652 6.96056C32.53 6.97815 32.4069 6.98673 32.2837 6.98623C32.2002 6.98623 32.1118 6.98622 32.0197 6.974C31.9277 6.96178 31.8356 6.95323 31.746 6.93734C31.6563 6.92145 31.5729 6.90189 31.4943 6.88234C31.4258 6.86441 31.3591 6.83985 31.2954 6.80901L31.3494 6.71001C31.3666 6.67824 31.385 6.64646 31.4071 6.61346C31.4415 6.62813 31.4894 6.64402 31.5471 6.66357C31.6149 6.68459 31.6837 6.70213 31.7533 6.71612C31.8393 6.73473 31.9262 6.74901 32.0136 6.7589C32.1129 6.77141 32.213 6.77753 32.3131 6.77723C32.4138 6.77723 32.5034 6.77723 32.5832 6.7699C32.6539 6.76764 32.7234 6.75057 32.787 6.71979C32.8416 6.69006 32.8847 6.64322 32.9098 6.58657C32.9437 6.50497 32.9592 6.41693 32.9552 6.32869C32.9574 6.27135 32.9487 6.21412 32.9294 6.16003C32.9135 6.11903 32.8846 6.08429 32.8472 6.06103C32.8003 6.03175 32.7482 6.01182 32.6937 6.00237C32.6299 5.98771 32.5501 5.97181 32.4543 5.95226C32.2542 5.91437 32.086 5.88015 31.9448 5.85081C31.8263 5.82905 31.7114 5.79079 31.6036 5.73715C31.5226 5.69691 31.4565 5.63235 31.4145 5.5526C31.371 5.45463 31.3508 5.34797 31.3556 5.24095C31.3538 5.14871 31.3753 5.05751 31.4182 4.97573C31.4628 4.89772 31.5255 4.8315 31.6011 4.78263C31.6829 4.7275 31.7734 4.6862 31.8687 4.66041C31.9743 4.63397 32.0828 4.62083 32.1916 4.6213C32.2751 4.6213 32.3598 4.6213 32.447 4.63108C32.5341 4.64085 32.6176 4.64575 32.6925 4.65674C32.7674 4.66774 32.8496 4.68363 32.9196 4.69952C32.9818 4.71354 33.0422 4.73402 33.1001 4.76063L32.992 4.95006Z" fill="#19AB6E"/>
<path opacity="0.4" d="M33.6374 6.23386V6.01021H34.509V6.23386H33.6374Z" fill="#19AB6E"/>
<path opacity="0.4" d="M35.1581 6.66C35.196 6.67568 35.235 6.68874 35.2747 6.6991C35.3263 6.71377 35.3815 6.72721 35.4429 6.73943C35.5043 6.75166 35.5657 6.76388 35.6332 6.77244C35.6947 6.77983 35.7566 6.78391 35.8186 6.78465C35.8787 6.78465 35.934 6.78465 35.9855 6.78465C36.0334 6.78265 36.0806 6.77316 36.1255 6.75655C36.1688 6.73903 36.2081 6.71282 36.2409 6.67955C36.2792 6.63671 36.3081 6.58632 36.3256 6.53166C36.3535 6.45245 36.3728 6.37051 36.3833 6.28722C36.3991 6.16563 36.4073 6.04318 36.4078 5.92057C36.3344 5.97083 36.2504 6.00384 36.1623 6.01713C36.0486 6.03438 35.9336 6.04255 35.8186 6.04156C35.6997 6.04308 35.581 6.03408 35.4638 6.01468C35.3717 6.00094 35.2844 5.96485 35.2096 5.90957C35.1387 5.85313 35.0861 5.77699 35.0586 5.6908C35.0217 5.57218 35.0046 5.44829 35.0083 5.32414C35.0055 5.21086 35.0226 5.09796 35.0586 4.99049C35.0877 4.90578 35.14 4.83085 35.2096 4.77416C35.2844 4.71677 35.3713 4.67707 35.4638 4.65806C35.5805 4.63409 35.6994 4.62261 35.8186 4.62383C35.9365 4.6229 36.054 4.63687 36.1684 4.66539C36.2736 4.6923 36.3679 4.75075 36.4385 4.83283C36.5241 4.9369 36.5838 5.05958 36.6129 5.19093C36.6963 5.5982 36.6963 6.01806 36.6129 6.42533C36.5838 6.55668 36.5241 6.67937 36.4385 6.78343C36.3679 6.86551 36.2736 6.92396 36.1684 6.95087C36.054 6.97896 35.9364 6.99251 35.8186 6.9912C35.7523 6.9912 35.6823 6.9912 35.6099 6.98265C35.5374 6.97409 35.4674 6.96799 35.3999 6.95576C35.3354 6.94528 35.2715 6.9314 35.2084 6.91421C35.1571 6.9008 35.1079 6.88023 35.0623 6.8531L35.1581 6.66ZM36.3857 5.38037C36.3782 5.26938 36.3538 5.16018 36.3133 5.05648C36.2881 4.99114 36.2457 4.93374 36.1905 4.89027C36.1412 4.85394 36.0824 4.8327 36.0211 4.82916C35.9573 4.82916 35.8873 4.82183 35.8136 4.82183C35.74 4.82183 35.6553 4.82183 35.589 4.83038C35.5286 4.83427 35.4702 4.85364 35.4196 4.88661C35.3689 4.92262 35.3314 4.9741 35.3128 5.03326C35.2837 5.12572 35.2708 5.22246 35.2747 5.31926C35.2706 5.41807 35.2835 5.51685 35.3128 5.61136C35.3317 5.67203 35.369 5.72539 35.4196 5.76413C35.4697 5.79876 35.5282 5.81943 35.589 5.82402C35.6636 5.83177 35.7386 5.83545 35.8136 5.83502C35.8947 5.83502 35.9696 5.83502 36.0371 5.82647C36.0994 5.82239 36.1599 5.80398 36.2139 5.77269C36.2675 5.74131 36.3104 5.69441 36.3366 5.63824C36.3721 5.55683 36.3904 5.46909 36.3907 5.38037H36.3857Z" fill="#19AB6E"/>
<path opacity="0.4" d="M37.2158 6.94741L38.155 4.8697H36.8795V4.66315H38.4288V4.8697L37.4933 6.94741H37.2158Z" fill="#19AB6E"/>
<path opacity="0.4" d="M39.0123 6.94741L39.9502 4.8697H38.6759V4.66315H40.2252V4.8697L39.2897 6.94741H39.0123Z" fill="#19AB6E"/>
<path opacity="0.4" d="M28.4365 11.2091V10.1091H27.086V11.2091H26.8319V8.9309H27.086V9.8952H28.4365V8.9309H28.6894V11.2091H28.4365Z" fill="#19AB6E"/>
<path opacity="0.4" d="M29.2576 11.2093V8.93116H30.182C30.3241 8.92919 30.4661 8.93818 30.6068 8.95806C30.7058 8.96996 30.8002 9.00607 30.8818 9.06316C30.9535 9.11997 31.0055 9.19778 31.0303 9.2856C31.0893 9.53436 31.0893 9.79337 31.0303 10.0421C31.0061 10.1296 30.954 10.2068 30.8818 10.2621C30.7999 10.3184 30.7055 10.3541 30.6068 10.366C30.466 10.3853 30.3241 10.3943 30.182 10.3929H29.5142V11.2093H29.2576ZM30.8044 9.65348C30.8079 9.55574 30.7963 9.45805 30.7701 9.36382C30.7533 9.30112 30.7156 9.24596 30.6632 9.20738C30.6059 9.17038 30.5399 9.14889 30.4717 9.14505C30.3932 9.13771 30.2986 9.13405 30.1869 9.13405H29.5117V10.19H30.1906C30.3023 10.19 30.3968 10.19 30.4754 10.179C30.5433 10.1753 30.6091 10.1547 30.6669 10.1191C30.719 10.0818 30.7567 10.0279 30.7737 9.96636C30.8002 9.87132 30.8118 9.7728 30.8081 9.67425L30.8044 9.65348Z" fill="#19AB6E"/>
<path opacity="0.4" d="M31.2092 11.2085V11.0069H31.7555V9.13691L31.3209 9.25057L31.2669 9.05869L32.0134 8.85948V11.0105H32.5695V11.2085H31.2092Z" fill="#19AB6E"/>
<path opacity="0.4" d="M32.884 11.2087V10.616C32.882 10.536 32.8953 10.4563 32.9233 10.3813C32.9476 10.3208 32.9835 10.2656 33.0289 10.2187C33.0741 10.1745 33.1269 10.1385 33.1848 10.1124C33.2464 10.0846 33.31 10.0613 33.3751 10.0427C33.4426 10.0244 33.5138 10.0073 33.5862 9.99141C33.6586 9.97552 33.7311 9.95963 33.8023 9.94008C33.8735 9.92052 33.9545 9.89975 34.0085 9.88142C34.0566 9.86759 34.1016 9.84478 34.1411 9.8142C34.1751 9.7867 34.1999 9.74963 34.2123 9.70786C34.229 9.64947 34.2364 9.58887 34.2344 9.5282C34.2415 9.46458 34.2331 9.4002 34.21 9.34045C34.187 9.2807 34.1499 9.22732 34.1018 9.18477C33.9857 9.11209 33.8495 9.07786 33.7127 9.087C33.6507 9.08774 33.5888 9.09182 33.5273 9.09921C33.461 9.10777 33.3959 9.11877 33.3345 9.13222C33.2732 9.14566 33.2118 9.15788 33.1651 9.17255C33.1233 9.18242 33.0822 9.19549 33.0424 9.21165L32.9503 9.02344C32.998 8.99532 33.0497 8.9747 33.1037 8.96233C33.1676 8.94644 33.2363 8.93178 33.31 8.91956C33.3837 8.90733 33.4585 8.89878 33.5359 8.89389C33.6132 8.889 33.6832 8.88411 33.7495 8.88411C33.8404 8.88394 33.9311 8.8913 34.0208 8.90611C34.1056 8.91896 34.1867 8.94936 34.259 8.99533C34.3321 9.04309 34.3907 9.10987 34.4284 9.18843C34.4754 9.29407 34.4973 9.4091 34.4922 9.52453C34.4963 9.63031 34.4792 9.73584 34.4419 9.83497C34.4091 9.91131 34.3544 9.97634 34.2848 10.022C34.1988 10.0754 34.1047 10.1146 34.0061 10.1381C33.8919 10.1674 33.7605 10.2016 33.596 10.2383L33.3959 10.2921C33.3459 10.3059 33.2982 10.3273 33.2547 10.3556C33.2183 10.3821 33.1898 10.418 33.1725 10.4595C33.1529 10.514 33.1437 10.5716 33.1455 10.6294V11.0034H34.4959V11.2087H32.884Z" fill="#19AB6E"/>
</g>
<path d="M189.127 13.5462C189.134 13.5535 189.141 13.5611 189.148 13.5691C189.156 13.5796 189.164 13.5907 189.172 13.6023C189.179 13.6153 189.183 13.6301 189.183 13.6451C189.136 13.7587 189.081 14.0412 189.016 14.4927C189.007 14.5193 188.993 14.5665 188.974 14.6402C188.941 14.765 188.921 14.8929 188.916 15.0216C188.905 15.1876 188.894 15.2997 188.884 15.3566C188.829 15.7761 188.802 15.9895 188.802 15.9969C188.783 16.0638 188.769 16.1318 188.76 16.2005C188.751 16.2706 188.743 16.348 188.736 16.4306C188.729 16.5133 188.723 16.5782 188.719 16.6276C188.704 16.8181 188.674 17.0072 188.629 17.1934C188.558 17.4588 188.521 17.7312 188.518 18.0049C188.524 18.1233 188.505 18.2416 188.463 18.3531C188.431 18.4284 188.416 18.5089 188.418 18.5899C188.418 18.691 188.411 18.7566 188.407 18.7876C188.383 19.0373 188.335 19.2843 188.262 19.5253C188.207 19.6896 188.135 19.8482 188.047 19.9989C188.029 20.0528 187.999 20.1024 187.959 20.1442C187.918 20.1861 187.869 20.2193 187.814 20.2416L187.8 20.2483C187.796 20.2499 187.793 20.2526 187.79 20.2562C187.788 20.2597 187.786 20.2639 187.786 20.2682C187.782 20.2854 187.775 20.302 187.766 20.3176C187.757 20.3331 187.748 20.3464 187.741 20.3567C187.731 20.3711 187.718 20.3834 187.703 20.3928C187.69 20.4023 187.678 20.4124 187.666 20.4231C187.651 20.435 187.635 20.4458 187.618 20.4556C187.602 20.4644 187.587 20.4742 187.573 20.4851C187.157 20.7889 186.651 20.9594 186.126 20.9719C186.016 20.9762 185.905 20.974 185.794 20.9653C185.674 20.9565 185.579 20.9491 185.507 20.9424C185.435 20.9358 185.323 20.921 185.168 20.8996C185.014 20.8783 184.913 20.8642 184.867 20.8598C184.848 20.8476 184.83 20.8333 184.815 20.817C184.798 20.7977 184.775 20.7848 184.749 20.7809H184.538C184.497 20.7553 184.421 20.7147 184.31 20.6592C184.223 20.6195 184.142 20.57 184.068 20.5116C183.805 20.2792 183.63 19.9709 183.569 19.6345C183.536 19.4464 183.546 19.2537 183.597 19.0694C183.602 19.0473 183.608 19.0148 183.614 18.9706C183.621 18.9263 183.628 18.8872 183.632 18.8525C183.636 18.822 183.638 18.7912 183.639 18.7603C183.643 18.7111 183.669 18.5358 183.716 18.2343L183.841 17.1558C183.86 16.9193 183.918 16.5258 184.014 15.9755C184.069 15.6815 184.095 15.3835 184.094 15.0851C184.096 14.9466 184.119 14.8091 184.163 14.6771C184.215 14.5301 184.255 14.3794 184.282 14.2264C184.287 14.1772 184.296 14.1005 184.31 13.9962C184.324 13.8907 184.334 13.8103 184.338 13.7528C184.338 13.7199 184.347 13.6876 184.364 13.6588C184.381 13.6301 184.405 13.6058 184.434 13.5883C184.403 13.4425 184.399 13.2928 184.421 13.1457C184.431 13.0244 184.447 12.9038 184.469 12.7842C184.497 12.6263 184.513 12.526 184.518 12.4817L184.719 11.4489C184.727 11.4078 184.739 11.3671 184.753 11.3272C184.767 11.2874 184.779 11.2468 184.788 11.2055C184.792 11.1701 184.802 11.1126 184.816 11.0314C184.826 10.9739 184.833 10.9157 184.836 10.8573C184.833 10.7977 184.826 10.7383 184.816 10.6795C184.855 10.6544 184.889 10.622 184.916 10.5844C184.945 10.5408 184.969 10.4946 184.988 10.4464C185.004 10.4067 185.022 10.3683 185.044 10.3313C185.291 9.89706 185.683 9.57247 186.22 9.35756C186.447 9.27004 186.669 9.17155 186.885 9.06248C187.05 9.07151 187.214 9.04893 187.369 8.99608C187.425 8.97838 187.552 8.99166 187.75 9.03592C187.879 9.05313 188.054 9.07059 188.276 9.0883C188.314 9.09189 188.351 9.10084 188.387 9.11485C188.427 9.13234 188.467 9.15307 188.504 9.17682C188.55 9.20559 188.578 9.22182 188.587 9.22625C188.596 9.23067 188.665 9.26682 188.77 9.32141C188.85 9.36244 188.928 9.4075 189.003 9.45641C189.267 9.63427 189.456 9.89584 189.536 10.1941C189.573 10.4404 189.58 10.6899 189.557 10.9377C189.547 11.0901 189.526 11.2417 189.495 11.3914C189.485 11.4526 189.461 11.5744 189.422 11.7558C189.382 11.9373 189.354 12.0915 189.335 12.2162C189.317 12.3383 189.31 12.4617 189.315 12.585C189.315 12.5939 189.301 12.6507 189.273 12.7562C189.255 12.8476 189.234 13.0321 189.21 13.308C189.21 13.3168 189.21 13.333 189.214 13.3574C189.217 13.3748 189.217 13.3924 189.214 13.4098C189.214 13.4208 189.208 13.4363 189.203 13.4562C189.2 13.4752 189.191 13.4931 189.179 13.5086C189.165 13.5243 189.147 13.5371 189.127 13.5462ZM186.532 19.273C186.569 19.2015 186.588 19.1226 186.587 19.0429C186.596 18.9993 186.616 18.9211 186.646 18.8097C186.676 18.6983 186.698 18.6002 186.712 18.5147C186.726 18.4342 186.733 18.3528 186.733 18.2712C186.742 18.1729 186.762 18.0305 186.795 17.8441C186.827 17.656 186.848 17.5151 186.857 17.4236L186.905 17.3314C186.936 17.2478 186.959 17.1619 186.974 17.0747C187.03 16.5578 187.076 16.1852 187.113 15.957C187.178 15.5951 187.24 15.1903 187.3 14.7428C187.318 14.5849 187.354 14.3493 187.408 14.0361C187.461 13.7228 187.497 13.4872 187.515 13.3293C187.57 12.8646 187.621 12.5162 187.67 12.284C187.728 11.8675 187.775 11.5805 187.812 11.4231C187.817 11.4054 187.826 11.3641 187.84 11.2985C187.854 11.2328 187.863 11.1841 187.867 11.1509C187.872 11.1177 187.877 11.0771 187.881 11.0292C187.886 10.9833 187.886 10.9371 187.881 10.8912C187.877 10.8498 187.867 10.809 187.853 10.7695C187.849 10.7562 187.863 10.7253 187.895 10.6773C187.867 10.6824 187.837 10.6777 187.812 10.664C187.786 10.6504 187.763 10.6327 187.744 10.6117C187.729 10.593 187.711 10.5764 187.692 10.5622C187.506 10.5549 187.321 10.5352 187.138 10.5032C187.125 10.5076 187.08 10.5276 187.004 10.5622C186.941 10.5915 186.877 10.6174 186.812 10.6397C186.623 10.6972 186.529 10.813 186.529 10.9886C186.533 11.0041 186.534 11.0202 186.531 11.0361C186.529 11.0519 186.523 11.0671 186.515 11.0808C186.51 11.1244 186.501 11.1893 186.487 11.2748C186.474 11.3604 186.465 11.4224 186.463 11.4652C186.462 11.5252 186.467 11.5851 186.477 11.6444C186.451 11.6908 186.432 11.7405 186.421 11.792C186.389 11.8966 186.375 12.0055 186.379 12.1144C186.383 12.2143 186.369 12.3141 186.338 12.4094C186.301 12.5496 186.28 12.6352 186.275 12.6662L186.026 14.3813C186.022 14.4157 185.996 14.5439 185.949 14.7657C185.906 14.9272 185.883 15.0927 185.88 15.2592C185.885 15.3418 185.88 15.4246 185.866 15.5063C185.853 15.5911 185.831 15.6959 185.801 15.8184C185.772 15.9408 185.751 16.0242 185.742 16.0684C185.732 16.1557 185.717 16.2423 185.697 16.3281C185.677 16.4148 185.662 16.5025 185.652 16.5907C185.649 16.6775 185.653 16.7644 185.666 16.8504C185.666 16.8681 185.65 16.8821 185.618 16.8932C185.586 16.9043 185.574 16.9205 185.583 16.9426C185.602 16.9403 185.622 16.945 185.638 16.9559C185.607 17.3047 185.556 17.6515 185.483 17.9946C185.448 18.1376 185.422 18.2824 185.405 18.4283C185.402 18.6187 185.379 18.8083 185.336 18.9942C185.319 19.0668 185.315 19.1415 185.322 19.2155C185.488 19.4043 185.654 19.5106 185.82 19.5445C186.014 19.5747 186.169 19.5511 186.286 19.4707L186.386 19.3815C186.432 19.3417 186.48 19.3054 186.532 19.273V19.273Z" fill="#FFF9F0"/>
<path d="M189.57 20.8253C189.588 20.7888 189.596 20.7481 189.595 20.7071V20.617C189.612 20.5225 189.653 20.2447 189.717 19.7836C189.721 19.7421 189.721 19.7001 189.717 19.6586C189.708 19.6174 189.708 19.5748 189.717 19.5336C189.788 19.3942 189.801 19.2881 189.768 19.2162C189.843 18.97 189.895 18.7161 189.921 18.4586C189.963 18.1207 189.986 17.9366 189.992 17.9047C190.119 17.2522 190.202 16.5909 190.24 15.9259C190.237 15.7467 190.245 15.5675 190.265 15.3895L190.514 13.7553C190.561 13.4629 190.62 13.0422 190.689 12.4932C190.758 11.9442 190.799 11.6217 190.813 11.5257C190.909 10.8459 190.974 10.3822 191.011 10.1348C191.059 9.8568 191.085 9.57493 191.087 9.29229C191.084 9.2859 191.083 9.27891 191.083 9.27184C191.083 9.26476 191.084 9.25778 191.087 9.25138C191.097 9.23988 191.107 9.2297 191.119 9.22108C191.131 9.21345 191.141 9.20308 191.148 9.19078C191.138 9.1569 191.136 9.12122 191.141 9.08626C191.146 9.0513 191.158 9.01792 191.177 8.98849C191.676 9.03643 192.178 9.04529 192.679 9.01501C192.706 9.03995 192.727 9.07138 192.74 9.1067C192.753 9.14202 192.759 9.1802 192.755 9.21805C192.752 9.32442 192.743 9.43047 192.727 9.53549C192.707 9.67489 192.696 9.77413 192.691 9.83247C192.683 9.93171 192.663 10.0855 192.631 10.2954C192.599 10.5052 192.578 10.6628 192.571 10.7711C192.549 10.9378 192.515 11.1866 192.468 11.5174C192.422 11.8482 192.388 12.0969 192.366 12.2636C192.302 12.6596 192.27 12.8937 192.271 12.9659C192.264 13.0469 192.247 13.1265 192.219 13.2023C192.182 13.3571 192.156 13.515 192.143 13.6743C192.188 13.6082 192.219 13.532 192.232 13.4515C192.284 13.33 192.343 13.2117 192.408 13.097C192.477 12.9781 192.535 12.8529 192.583 12.7227C192.604 12.647 192.641 12.5394 192.694 12.4015C192.747 12.2636 192.777 12.1871 192.781 12.1689C192.789 12.1371 192.855 11.9929 192.978 11.7363C193 11.6583 193.031 11.5835 193.071 11.5136C193.115 11.4383 193.143 11.3529 193.151 11.2643C193.224 11.168 193.277 11.0562 193.307 10.9363C193.334 10.8207 193.383 10.7119 193.45 10.6158C193.497 10.4582 193.577 10.2343 193.689 9.94383C193.801 9.65367 193.877 9.45442 193.915 9.34608C193.929 9.29159 193.956 9.24161 193.992 9.20043C194.029 9.15926 194.074 9.12812 194.125 9.10971C194.204 9.07623 194.289 9.06249 194.374 9.06956C194.657 9.12189 194.946 9.13082 195.232 9.09607C195.304 9.08435 195.377 9.09705 195.441 9.13232C195.505 9.1676 195.557 9.22362 195.59 9.29229C195.395 9.67968 195.246 10.0014 195.143 10.2575C195.118 10.3141 195.089 10.3683 195.055 10.4196C195.022 10.4683 194.994 10.5203 194.972 10.5749C194.942 10.7153 194.842 10.9517 194.672 11.284C194.629 11.379 194.543 11.5545 194.414 11.8106C194.284 12.0674 194.191 12.2651 194.136 12.4121C194.103 12.4932 194.046 12.6265 193.968 12.8136C193.889 13.0008 193.824 13.1637 193.767 13.3031C193.709 13.4425 193.665 13.5758 193.623 13.7016C193.6 13.8125 193.561 13.9194 193.509 14.019C193.428 14.1629 193.354 14.3116 193.289 14.4645C193.206 14.6539 193.146 14.791 193.101 14.8766C193.154 15.0671 193.194 15.2613 193.222 15.4577C193.299 15.8941 193.337 16.1191 193.337 16.1327L193.445 16.8418C193.456 16.9109 193.473 16.9786 193.496 17.0441C193.523 17.1197 193.536 17.1999 193.534 17.2805C193.538 17.411 193.552 17.541 193.576 17.6691C193.603 17.8328 193.619 17.9313 193.623 17.9623C193.654 18.1738 193.703 18.3818 193.77 18.5836C193.835 18.8226 193.883 19.0665 193.913 19.3131C193.922 19.3899 193.996 19.8558 194.136 20.7109C194.149 20.7582 194.144 20.8088 194.123 20.8526C194.064 20.9064 193.956 20.9337 193.799 20.9337C193.782 20.9323 193.766 20.929 193.751 20.9238C193.729 20.9169 193.706 20.9156 193.684 20.92C193.644 20.9385 193.603 20.95 193.56 20.9541C193.515 20.9587 193.46 20.9617 193.397 20.964C193.333 20.9662 193.289 20.97 193.263 20.9738C193.173 20.9755 193.084 20.9677 192.995 20.9503C192.903 20.932 192.809 20.9264 192.715 20.9337C192.679 20.941 192.642 20.939 192.607 20.9278C192.572 20.9166 192.54 20.8965 192.514 20.8693C192.486 20.8425 192.464 20.8098 192.449 20.7732C192.434 20.7366 192.427 20.697 192.428 20.6571V20.5056C192.411 20.4338 192.402 20.3604 192.399 20.2867C192.397 20.2096 192.385 20.1332 192.364 20.0594C192.349 19.9783 192.343 19.8957 192.345 19.8132C192.347 19.7467 192.345 19.6801 192.339 19.6139C192.33 19.5776 192.327 19.5397 192.332 19.5025C192.339 19.4722 192.336 19.4406 192.326 19.4116C192.257 19.1948 192.213 18.9703 192.192 18.7427L192.154 18.3714C192.154 18.3623 192.145 18.2904 192.129 18.1555C192.112 18.0529 192.108 17.9486 192.116 17.8449C192.111 17.8319 192.109 17.818 192.109 17.804C192.11 17.7903 192.108 17.7765 192.103 17.7638C192.069 17.624 192.045 17.4817 192.031 17.3381C192.01 17.1494 191.997 17.0411 191.993 17.0138C191.976 16.8971 191.942 16.7032 191.891 16.4335C191.861 16.2662 191.844 16.0968 191.84 15.9266C191.84 15.9001 191.832 15.8865 191.815 15.8865C191.785 15.8865 191.77 15.9001 191.77 15.9266C191.77 16.1019 191.758 16.277 191.732 16.4501C191.702 16.682 191.685 16.8206 191.681 16.8653C191.656 17.1152 191.618 17.3633 191.566 17.6085C191.502 17.9328 191.462 18.1692 191.445 18.3176C191.41 18.6502 191.381 18.9002 191.355 19.0669C191.351 19.1033 191.348 19.1556 191.346 19.2253C191.344 19.295 191.34 19.3586 191.336 19.4147C191.332 19.4707 191.325 19.5238 191.317 19.573C191.273 19.7631 191.252 19.9583 191.253 20.1541C191.253 20.1859 191.248 20.2776 191.237 20.4306C191.223 20.5224 191.223 20.6161 191.237 20.7079C191.243 20.7336 191.242 20.7605 191.234 20.7855C191.226 20.8106 191.212 20.8327 191.192 20.8496C190.979 20.8794 190.764 20.8895 190.549 20.8799C190.325 20.8837 190.102 20.8735 189.879 20.8496C189.836 20.8688 189.791 20.8826 189.745 20.8905C189.64 20.8526 189.578 20.8299 189.57 20.8253Z" fill="#FFF9F0"/>
<path d="M102.528 19.7825V10.3793H103.812L107.625 16.4787H106.889L110.688 10.3793H111.972V19.7825H110.166V13.4959L110.514 13.6029L107.865 17.8564H106.635L103.986 13.6029L104.347 13.4959V19.7825H102.528ZM115.832 19.7825V10.3793H117.651V19.7825H115.832ZM121.52 19.7825V10.3793H122.791L123.339 12.1984V19.7825H121.52ZM128.021 19.7825L122.443 12.5596L122.791 10.3793L128.369 17.6022L128.021 19.7825ZM128.021 19.7825L127.499 18.0169V10.3793H129.332V19.7825H128.021ZM135.506 19.7825V10.5799H137.338V19.7825H135.506ZM132.509 11.9978V10.3793H140.334V11.9978H132.509Z" fill="#FFF9F0"/>
</g>
</g>
<defs>
<filter id="filter0_d_763_1357" x="0" y="0" width="217.957" height="59" filterUnits="userSpaceOnUse" color-interpolation-filters="sRGB">
<feFlood flood-opacity="0" result="BackgroundImageFix"/>
<feColorMatrix in="SourceAlpha" type="matrix" values="0 0 0 0 0 0 0 0 0 0 0 0 0 0 0 0 0 0 127 0" result="hardAlpha"/>
<feOffset dx="-5" dy="20"/>
<feGaussianBlur stdDeviation="5"/>
<feComposite in2="hardAlpha" operator="out"/>
<feColorMatrix type="matrix" values="0 0 0 0 0 0 0 0 0 0 0 0 0 0 0 0 0 0 0.7 0"/>
<feBlend mode="normal" in2="BackgroundImageFix" result="effect1_dropShadow_763_1357"/>
<feBlend mode="normal" in="SourceGraphic" in2="effect1_dropShadow_763_1357" result="shape"/>
</filter>
<clipPath id="clip0_763_1357">
<rect x="15" width="197.957" height="29" rx="5" fill="white"/>
</clipPath>
</defs>
</svg>
