<svg width="206" height="37" viewBox="0 0 206 37" fill="none" xmlns="http://www.w3.org/2000/svg">
<g filter="url(#filter0_di_763_1306)">
<g clip-path="url(#clip0_763_1306)">
<path d="M197.529 0.650009H8.4276C6.33183 0.650009 4.63287 2.34138 4.63287 4.42778V24.5755C4.63287 26.6619 6.33183 28.3533 8.4276 28.3533H197.529C199.625 28.3533 201.324 26.6619 201.324 24.5755V4.42778C201.324 2.34138 199.625 0.650009 197.529 0.650009Z" fill="black"/>
<path d="M197.53 0.648998C198.536 0.648998 199.501 1.04701 200.213 1.75548C200.924 2.46395 201.324 3.42484 201.324 4.42677V24.5757C201.324 25.5776 200.924 26.5385 200.213 27.247C199.501 27.9555 198.536 28.3535 197.53 28.3535H8.42697C7.42055 28.3535 6.45534 27.9555 5.7437 27.247C5.03205 26.5385 4.63225 25.5776 4.63225 24.5757V4.42677C4.63225 3.42484 5.03205 2.46395 5.7437 1.75548C6.45534 1.04701 7.42055 0.648998 8.42697 0.648998H197.53ZM197.53 0.0195732H8.42697C7.25336 0.0211899 6.12829 0.486036 5.29842 1.3122C4.46856 2.13836 4.00162 3.25841 4 4.42677V24.5757C4.00162 25.7441 4.46856 26.8641 5.29842 27.6903C6.12829 28.5164 7.25336 28.9813 8.42697 28.9829H197.53C198.703 28.9813 199.828 28.5164 200.658 27.6903C201.488 26.8641 201.955 25.7441 201.957 24.5757V4.42677C201.955 3.25841 201.488 2.13836 200.658 1.3122C199.828 0.486036 198.703 0.0211899 197.53 0.0195732V0.0195732Z" fill="#333333"/>
<path d="M197.313 1.52425H8.64373C6.89715 1.52425 5.48126 2.93381 5.48126 4.67259V24.3278C5.48126 26.0666 6.89715 27.4761 8.64373 27.4761H197.313C199.06 27.4761 200.475 26.0666 200.475 24.3278V4.67259C200.475 2.93381 199.06 1.52425 197.313 1.52425Z" fill="#333333"/>
<g opacity="0.3">
<path opacity="0.3" d="M200.475 14.3415H5.48254V14.6568H200.475V14.3415Z" fill="black"/>
</g>
<path opacity="0.1" d="M195.873 24.3278V4.6726C195.873 3.8376 195.54 3.0368 194.947 2.44638C194.354 1.85595 193.549 1.52425 192.711 1.52425H197.312C198.151 1.52425 198.955 1.85595 199.548 2.44638C200.141 3.0368 200.474 3.8376 200.474 4.6726V24.3278C200.474 25.1628 200.141 25.9636 199.548 26.554C198.955 27.1444 198.151 27.4761 197.312 27.4761H192.711C193.549 27.4761 194.354 27.1444 194.947 26.554C195.54 25.9636 195.873 25.1628 195.873 24.3278Z" fill="white"/>
<path opacity="0.1" d="M10.0826 24.3278V4.6726C10.0826 3.8376 10.4158 3.0368 11.0088 2.44638C11.6019 1.85595 12.4063 1.52425 13.245 1.52425H8.64374C7.805 1.52425 7.00061 1.85595 6.40753 2.44638C5.81445 3.0368 5.48126 3.8376 5.48126 4.6726V24.3278C5.48126 25.1628 5.81445 25.9636 6.40753 26.554C7.00061 27.1444 7.805 27.4761 8.64374 27.4761H13.245C12.4063 27.4761 11.6019 27.1444 11.0088 26.554C10.4158 25.9636 10.0826 25.1628 10.0826 24.3278V24.3278Z" fill="white"/>
<path opacity="0.03" d="M10.083 24.3278V4.6726C10.083 3.8376 10.4162 3.0368 11.0093 2.44638C11.6024 1.85595 12.4068 1.52425 13.2455 1.52425H10.455C10.0398 1.52425 9.62859 1.60569 9.24497 1.76392C8.86135 1.92216 8.5128 2.15408 8.21923 2.44645C7.92567 2.73882 7.69284 3.0859 7.53405 3.46787C7.37525 3.84983 7.2936 4.25921 7.29376 4.6726V24.3278C7.2936 24.7412 7.37525 25.1505 7.53405 25.5325C7.69284 25.9145 7.92567 26.2615 8.21923 26.5539C8.5128 26.8463 8.86135 27.0782 9.24497 27.2364C9.62859 27.3947 10.0398 27.4761 10.455 27.4761H13.2455C12.4068 27.4761 11.6024 27.1444 11.0093 26.554C10.4162 25.9636 10.083 25.1628 10.083 24.3278V24.3278Z" fill="white"/>
<path d="M33.9378 14.4999H25.0826V25.942H25.8327V18.6944C25.8327 18.3461 26.0721 18.065 26.3668 18.065H33.4075C33.7021 18.065 33.9415 18.3461 33.9415 18.6944V25.942H34.6904V14.4999H33.9378Z" fill="black"/>
<path opacity="0.2" d="M122.052 -0.000125885H83.9039C83.9039 0.149941 83.9336 0.298539 83.9913 0.437183C84.049 0.575827 84.1335 0.701802 84.2401 0.807916C84.3467 0.914029 84.4733 0.998203 84.6125 1.05563C84.7518 1.11306 84.9011 1.14262 85.0518 1.14262H120.9C121.05 1.14262 121.2 1.11306 121.339 1.05563C121.478 0.998203 121.605 0.914029 121.711 0.807916C121.818 0.701802 121.903 0.575827 121.96 0.437183C122.018 0.298539 122.048 0.149941 122.048 -0.000125885H122.052Z" fill="white"/>
<path opacity="0.2" d="M83.9039 29.0011H122.052C122.052 28.6938 121.93 28.3991 121.712 28.1818C121.493 27.9645 121.197 27.8424 120.889 27.8424H85.0678C84.7591 27.8424 84.4631 27.9645 84.2448 28.1818C84.0265 28.3991 83.9039 28.6938 83.9039 29.0011V29.0011Z" fill="white"/>
<path opacity="0.03" d="M195.873 4.6726V24.3278C195.873 25.1628 195.54 25.9636 194.947 26.554C194.354 27.1444 193.549 27.4761 192.711 27.4761H195.501C195.916 27.4761 196.327 27.3947 196.711 27.2364C197.095 27.0782 197.443 26.8463 197.737 26.5539C198.03 26.2615 198.263 25.9145 198.422 25.5325C198.581 25.1505 198.662 24.7412 198.662 24.3278V4.6726C198.662 4.25921 198.581 3.84983 198.422 3.46787C198.263 3.0859 198.03 2.73882 197.737 2.44645C197.443 2.15408 197.095 1.92216 196.711 1.76392C196.327 1.60569 195.916 1.52425 195.501 1.52425H192.711C193.549 1.52425 194.354 1.85595 194.947 2.44638C195.54 3.0368 195.873 3.8376 195.873 4.6726V4.6726Z" fill="white"/>
<path opacity="0.3" d="M188.184 23.7589V5.24526C188.184 4.33402 187.442 3.59532 186.527 3.59532L40.9315 3.59532C40.0162 3.59532 39.2742 4.33402 39.2742 5.24526V23.7589C39.2742 24.6702 40.0162 25.4089 40.9315 25.4089L186.527 25.4089C187.442 25.4089 188.184 24.6702 188.184 23.7589Z" fill="black"/>
<path d="M186.525 4.14449H40.9313C40.3211 4.14449 39.8264 4.63696 39.8264 5.24446V23.7581C39.8264 24.3656 40.3211 24.8581 40.9313 24.8581H186.525C187.136 24.8581 187.63 24.3656 187.63 23.7581V5.24446C187.63 4.63696 187.136 4.14449 186.525 4.14449Z" fill="#FFF9F0"/>
<path d="M44.8476 4.14449H40.9325C40.6395 4.14449 40.3585 4.26038 40.1513 4.46666C39.944 4.67295 39.8276 4.95273 39.8276 5.24446V23.7581C39.8276 24.0498 39.944 24.3296 40.1513 24.5359C40.3585 24.7422 40.6395 24.8581 40.9325 24.8581H44.8476V4.14449Z" fill="#19AB6E"/>
<path d="M186.527 4.14449H169.072V24.8581H186.527C186.82 24.8581 187.101 24.7422 187.308 24.5359C187.515 24.3296 187.632 24.0498 187.632 23.7581V5.24446C187.632 4.95273 187.515 4.67295 187.308 4.46666C187.101 4.26038 186.82 4.14449 186.527 4.14449V4.14449Z" fill="#19AB6E"/>
<path opacity="0.3" d="M50.2188 4.14449H44.8527V24.8581H50.2188V4.14449Z" fill="#19AB6E"/>
<path d="M41.1513 17.1201L43.5293 17.7398V18.3276L41.1513 18.9461V18.6723L43.2948 18.1284V17.9329L41.1513 17.389V17.1201Z" fill="#FFFDFA"/>
<path d="M41.1513 16.7451V16.4823H43.5293V16.7451H41.1513Z" fill="#FFFDFA"/>
<path d="M43.5293 15.9018H41.1513V15.0573C41.1513 14.3704 41.6325 14.1822 42.3053 14.1822C42.9781 14.1822 43.533 14.3594 43.533 15.0573L43.5293 15.9018ZM41.3858 15.0573V15.639H43.2948V15.0573C43.2948 14.5684 42.8209 14.4462 42.3053 14.4462C41.7897 14.4462 41.3858 14.5647 41.3858 15.0573Z" fill="#FFFDFA"/>
<path d="M41.1513 13.6961V12.2564H41.3858V13.4322H42.2059V12.4617H42.4367V13.4322H43.296V12.2564H43.5305V13.6961H41.1513Z" fill="#FFFDFA"/>
<path d="M42.3507 11.926C41.5674 11.926 41.123 11.7243 41.123 10.9922C41.123 10.2601 41.5662 10.0548 42.3507 10.0548C43.1683 10.0548 43.5636 10.2577 43.5636 10.9922C43.5636 11.7268 43.1474 11.926 42.3507 11.926ZM42.3507 10.3286C41.7086 10.3286 41.3501 10.4508 41.3501 10.9922C41.3501 11.5337 41.7049 11.6559 42.3507 11.6559C42.9964 11.6559 43.3328 11.5398 43.3328 10.9922C43.3328 10.4447 43.0197 10.3286 42.3507 10.3286Z" fill="#FFFDFA"/>
<path d="M48.6886 20.2846C48.7335 20.4998 48.7577 20.7187 48.761 20.9385C48.761 21.6461 48.3288 21.8038 47.5456 21.8038C46.7415 21.8038 46.3179 21.6498 46.3179 20.9385C46.3223 20.7187 46.3474 20.4998 46.3928 20.2846L46.6163 20.2956C46.5811 20.4976 46.5606 20.7018 46.5549 20.9067C46.5549 21.4335 46.8716 21.5251 47.5481 21.5251C48.2245 21.5251 48.5302 21.4396 48.5302 20.8994C48.5265 20.6943 48.506 20.49 48.4688 20.2883L48.6886 20.2846Z" fill="#19AB6E"/>
<path d="M46.35 19.4135V18.8391L48.7267 18.1889V18.4492L48.1129 18.6203V19.6323L48.7267 19.8034V20.0637L46.35 19.4135ZM47.8784 19.5736V18.6778L46.5771 19.0322V19.2107L47.8784 19.5736Z" fill="#19AB6E"/>
<path d="M46.604 16.5125C46.604 16.5125 46.5451 16.988 46.5451 17.186C46.5451 17.5208 46.6678 17.6993 46.933 17.6993C47.2424 17.6993 47.2939 17.5355 47.3872 17.1212C47.494 16.6494 47.6107 16.4404 48.0256 16.4404C48.5511 16.4404 48.7622 16.7276 48.7622 17.197C48.7521 17.448 48.7267 17.6982 48.6861 17.9462L48.4664 17.9181C48.4664 17.9181 48.5277 17.4536 48.5277 17.2104C48.5277 16.8755 48.3804 16.7044 48.0502 16.7044C47.7826 16.7044 47.7064 16.8438 47.6315 17.2312C47.5247 17.7201 47.4081 17.9645 46.9539 17.9645C46.4996 17.9645 46.3155 17.6638 46.3155 17.2019C46.3238 16.9624 46.3468 16.7236 46.3842 16.4869L46.604 16.5125Z" fill="#19AB6E"/>
<path d="M46.604 14.6582C46.604 14.6582 46.5451 15.1324 46.5451 15.3316C46.5451 15.6665 46.6678 15.8449 46.933 15.8449C47.2424 15.8449 47.2939 15.6799 47.3872 15.2668C47.494 14.7938 47.6107 14.5861 48.0256 14.5861C48.5511 14.5861 48.7622 14.8733 48.7622 15.3414C48.7522 15.5924 48.7268 15.8426 48.6861 16.0906L48.4664 16.0637C48.4664 16.0637 48.5277 15.598 48.5277 15.3548C48.5277 15.0199 48.3804 14.8488 48.0502 14.8488C47.7826 14.8488 47.7064 14.9894 47.6315 15.3756C47.5247 15.8645 47.4081 16.1089 46.9539 16.1089C46.4996 16.1089 46.3155 15.8083 46.3155 15.3463C46.3237 15.1068 46.3467 14.868 46.3842 14.6313L46.604 14.6582Z" fill="#19AB6E"/>
<path d="M46.35 14.1296V12.6898H46.5832V13.8656H47.4045V12.8878H47.6341V13.8656H48.4935V12.6898H48.7267V14.1296H46.35Z" fill="#19AB6E"/>
<path d="M46.35 12.4825V10.7714H46.5869V11.4925H48.7267V11.7529H46.5869V12.4862L46.35 12.4825Z" fill="#19AB6E"/>
<path d="M46.35 10.6823V8.97126H46.5869V9.69235H48.7267V9.95267H46.5869V10.686L46.35 10.6823Z" fill="#19AB6E"/>
<path d="M46.35 8.64401V7.19816H46.5832V8.37512H47.4045V7.40348H47.6341V8.37512H48.4935V7.19816H48.7267V8.64401H46.35Z" fill="#19AB6E"/>
<g opacity="0.4">
<path opacity="0.4" d="M165.476 7.21709H52.5647C52.5464 7.21677 52.5289 7.20929 52.516 7.19626C52.5032 7.18323 52.496 7.16569 52.496 7.14743C52.496 7.12928 52.5032 7.11187 52.5161 7.09903C52.529 7.0862 52.5465 7.07898 52.5647 7.07898H165.476C165.494 7.07898 165.512 7.0862 165.524 7.09903C165.537 7.11187 165.545 7.12928 165.545 7.14743C165.545 7.16569 165.537 7.18323 165.524 7.19626C165.512 7.20929 165.494 7.21677 165.476 7.21709Z" fill="#19AB6E"/>
<path opacity="0.4" d="M165.476 14.5668H52.5647C52.5465 14.5668 52.529 14.5596 52.5161 14.5468C52.5032 14.534 52.496 14.5165 52.496 14.4984C52.496 14.4802 52.5032 14.4628 52.5161 14.45C52.529 14.4372 52.5465 14.4299 52.5647 14.4299H165.476C165.494 14.4299 165.511 14.4372 165.524 14.45C165.537 14.4628 165.545 14.4802 165.545 14.4984C165.545 14.5165 165.537 14.534 165.524 14.5468C165.511 14.5596 165.494 14.5668 165.476 14.5668V14.5668Z" fill="#19AB6E"/>
<path opacity="0.4" d="M165.476 21.919H52.5647C52.5465 21.919 52.529 21.9118 52.5161 21.899C52.5032 21.8861 52.496 21.8687 52.496 21.8506C52.496 21.8323 52.5032 21.8148 52.516 21.8017C52.5289 21.7887 52.5464 21.7812 52.5647 21.7809H165.476C165.494 21.7812 165.512 21.7887 165.524 21.8017C165.537 21.8148 165.545 21.8323 165.545 21.8506C165.545 21.8687 165.537 21.8861 165.524 21.899C165.511 21.9118 165.494 21.919 165.476 21.919Z" fill="#19AB6E"/>
</g>
<g opacity="0.4">
<path opacity="0.4" d="M17.5218 6.94743L17.2321 6.23367H16.1935L15.9074 6.94743H15.6435L16.5606 4.66561H16.8675L17.7858 6.94743H17.5218ZM16.8577 5.3097L16.7214 4.87949H16.7005L16.5642 5.3097L16.2647 6.05279H17.1572L16.8577 5.3097Z" fill="#F4EFDC"/>
<path opacity="0.4" d="M19.9992 6.83728C19.8817 6.8903 19.758 6.92849 19.6309 6.95095C19.4764 6.98061 19.3193 6.99494 19.162 6.99373C19.0017 6.99531 18.8417 6.98056 18.6844 6.94973C18.5508 6.92421 18.4261 6.86485 18.3222 6.7774C18.2132 6.67814 18.1331 6.55149 18.0902 6.41074C17.9801 6.01072 17.9801 5.58858 18.0902 5.18856C18.1341 5.05002 18.2141 4.92558 18.3222 4.82801C18.4261 4.74056 18.5508 4.68121 18.6844 4.65569C18.8416 4.62441 19.0016 4.60926 19.162 4.61047C19.4368 4.59956 19.7108 4.64836 19.9649 4.75346L19.8421 4.94167C19.7733 4.91845 19.6788 4.89034 19.5597 4.85979C19.43 4.82784 19.2968 4.81224 19.1632 4.81335C19.0436 4.81248 18.9241 4.82147 18.8059 4.84024C18.7021 4.85502 18.6042 4.89722 18.5223 4.96246C18.434 5.0428 18.3691 5.14541 18.3345 5.25945C18.2445 5.61194 18.2445 5.98126 18.3345 6.33374C18.3685 6.44737 18.4335 6.54935 18.5223 6.62829C18.6045 6.69312 18.7023 6.73527 18.8059 6.75051C18.9242 6.76823 19.0436 6.77681 19.1632 6.77617C19.2351 6.77636 19.3069 6.77104 19.378 6.76029C19.4492 6.75051 19.5155 6.73829 19.5781 6.72362C19.6408 6.70895 19.7009 6.69429 19.7488 6.67718C19.7967 6.66007 19.8445 6.64663 19.8777 6.6344L19.9992 6.83728Z" fill="#F4EFDC"/>
<path opacity="0.4" d="M21.992 4.95006C21.9577 4.93784 21.9147 4.92562 21.8595 4.91095C21.8042 4.89629 21.7441 4.88285 21.6778 4.87063C21.6115 4.85841 21.5403 4.84618 21.4666 4.83763C21.3929 4.82907 21.3205 4.82541 21.2493 4.82541C21.0835 4.8161 20.9179 4.84715 20.7668 4.91585C20.7107 4.95012 20.6654 4.99954 20.6363 5.05838C20.6072 5.11721 20.5954 5.18305 20.6023 5.24828C20.6014 5.30678 20.6055 5.36525 20.6146 5.42305C20.6223 5.46115 20.6426 5.49559 20.6723 5.52083C20.712 5.55025 20.7577 5.57068 20.8061 5.58072C20.8663 5.5966 20.9473 5.61494 21.0517 5.63572C21.1842 5.66423 21.3181 5.6899 21.4531 5.71271C21.5792 5.73193 21.7027 5.76513 21.8214 5.81171C21.9245 5.85118 22.0169 5.91394 22.0915 5.99504C22.1654 6.08657 22.2038 6.20154 22.1995 6.31891C22.2044 6.43432 22.1812 6.54919 22.132 6.65379C22.089 6.73816 22.0236 6.80918 21.9429 6.85912C21.8536 6.91176 21.7548 6.94624 21.652 6.96056C21.53 6.97815 21.4069 6.98673 21.2837 6.98623C21.2002 6.98623 21.1118 6.98622 21.0197 6.974C20.9277 6.96178 20.8356 6.95323 20.746 6.93734C20.6563 6.92145 20.5729 6.90189 20.4943 6.88234C20.4258 6.86441 20.3591 6.83985 20.2954 6.80901L20.3494 6.71001C20.3666 6.67824 20.385 6.64646 20.4071 6.61346C20.4415 6.62813 20.4894 6.64402 20.5471 6.66357C20.6149 6.68459 20.6837 6.70213 20.7533 6.71612C20.8393 6.73473 20.9262 6.74901 21.0136 6.7589C21.1129 6.77141 21.213 6.77753 21.3131 6.77723C21.4138 6.77723 21.5034 6.77723 21.5832 6.7699C21.6539 6.76764 21.7234 6.75057 21.787 6.71979C21.8416 6.69006 21.8847 6.64322 21.9098 6.58657C21.9437 6.50497 21.9592 6.41693 21.9552 6.32869C21.9574 6.27135 21.9487 6.21412 21.9294 6.16003C21.9135 6.11903 21.8846 6.08429 21.8472 6.06103C21.8003 6.03175 21.7482 6.01182 21.6937 6.00237C21.6299 5.98771 21.5501 5.97181 21.4543 5.95226C21.2542 5.91437 21.086 5.88015 20.9448 5.85081C20.8263 5.82905 20.7114 5.79079 20.6036 5.73715C20.5226 5.69691 20.4565 5.63235 20.4145 5.5526C20.371 5.45463 20.3508 5.34797 20.3556 5.24095C20.3538 5.14871 20.3753 5.05751 20.4182 4.97573C20.4628 4.89772 20.5255 4.8315 20.6011 4.78263C20.6829 4.7275 20.7734 4.6862 20.8687 4.66041C20.9743 4.63397 21.0828 4.62083 21.1916 4.6213C21.2751 4.6213 21.3598 4.6213 21.447 4.63108C21.5341 4.64085 21.6176 4.64575 21.6925 4.65674C21.7674 4.66774 21.8496 4.68363 21.9196 4.69952C21.9818 4.71354 22.0422 4.73402 22.1001 4.76063L21.992 4.95006Z" fill="#F4EFDC"/>
<path opacity="0.4" d="M22.6374 6.23386V6.01021H23.509V6.23386H22.6374Z" fill="#F4EFDC"/>
<path opacity="0.4" d="M24.1581 6.66C24.196 6.67568 24.235 6.68874 24.2747 6.6991C24.3263 6.71377 24.3815 6.72721 24.4429 6.73943C24.5043 6.75166 24.5657 6.76388 24.6332 6.77244C24.6947 6.77983 24.7566 6.78391 24.8186 6.78465C24.8787 6.78465 24.934 6.78465 24.9855 6.78465C25.0334 6.78265 25.0806 6.77316 25.1255 6.75655C25.1688 6.73903 25.2081 6.71282 25.2409 6.67955C25.2792 6.63671 25.3081 6.58632 25.3256 6.53166C25.3535 6.45245 25.3728 6.37051 25.3833 6.28722C25.3991 6.16563 25.4073 6.04318 25.4078 5.92057C25.3344 5.97083 25.2504 6.00384 25.1623 6.01713C25.0486 6.03438 24.9336 6.04255 24.8186 6.04156C24.6997 6.04308 24.581 6.03408 24.4638 6.01468C24.3717 6.00094 24.2844 5.96485 24.2096 5.90957C24.1387 5.85313 24.0861 5.77699 24.0586 5.6908C24.0217 5.57218 24.0046 5.44829 24.0083 5.32414C24.0055 5.21086 24.0226 5.09796 24.0586 4.99049C24.0877 4.90578 24.14 4.83085 24.2096 4.77416C24.2844 4.71677 24.3713 4.67707 24.4638 4.65806C24.5805 4.63409 24.6994 4.62261 24.8186 4.62383C24.9365 4.6229 25.054 4.63687 25.1684 4.66539C25.2736 4.6923 25.3679 4.75075 25.4385 4.83283C25.5241 4.9369 25.5838 5.05958 25.6129 5.19093C25.6963 5.5982 25.6963 6.01806 25.6129 6.42533C25.5838 6.55668 25.5241 6.67937 25.4385 6.78343C25.3679 6.86551 25.2736 6.92396 25.1684 6.95087C25.054 6.97896 24.9364 6.99251 24.8186 6.9912C24.7523 6.9912 24.6823 6.9912 24.6099 6.98265C24.5374 6.97409 24.4674 6.96799 24.3999 6.95576C24.3354 6.94528 24.2715 6.9314 24.2084 6.91421C24.1571 6.9008 24.1079 6.88023 24.0623 6.8531L24.1581 6.66ZM25.3857 5.38037C25.3782 5.26938 25.3538 5.16018 25.3133 5.05648C25.2881 4.99114 25.2457 4.93374 25.1905 4.89027C25.1412 4.85394 25.0824 4.8327 25.0211 4.82916C24.9573 4.82916 24.8873 4.82183 24.8136 4.82183C24.74 4.82183 24.6553 4.82183 24.589 4.83038C24.5286 4.83427 24.4702 4.85364 24.4196 4.88661C24.3689 4.92262 24.3314 4.9741 24.3128 5.03326C24.2837 5.12572 24.2708 5.22246 24.2747 5.31926C24.2706 5.41807 24.2835 5.51685 24.3128 5.61136C24.3317 5.67203 24.369 5.72539 24.4196 5.76413C24.4697 5.79876 24.5282 5.81943 24.589 5.82402C24.6636 5.83177 24.7386 5.83545 24.8136 5.83502C24.8947 5.83502 24.9696 5.83502 25.0371 5.82647C25.0994 5.82239 25.1599 5.80398 25.2139 5.77269C25.2675 5.74131 25.3104 5.69441 25.3366 5.63824C25.3721 5.55683 25.3904 5.46909 25.3907 5.38037H25.3857Z" fill="#F4EFDC"/>
<path opacity="0.4" d="M26.2158 6.94741L27.155 4.8697H25.8795V4.66315H27.4288V4.8697L26.4933 6.94741H26.2158Z" fill="#F4EFDC"/>
<path opacity="0.4" d="M28.0123 6.94741L28.9502 4.8697H27.6759V4.66315H29.2252V4.8697L28.2897 6.94741H28.0123Z" fill="#F4EFDC"/>
<path opacity="0.4" d="M17.4365 11.2091V10.1091H16.086V11.2091H15.8319V8.9309H16.086V9.8952H17.4365V8.9309H17.6894V11.2091H17.4365Z" fill="#F4EFDC"/>
<path opacity="0.4" d="M18.2576 11.2093V8.93116H19.182C19.3241 8.92919 19.4661 8.93818 19.6068 8.95806C19.7058 8.96996 19.8002 9.00607 19.8818 9.06316C19.9535 9.11997 20.0055 9.19778 20.0303 9.2856C20.0893 9.53436 20.0893 9.79337 20.0303 10.0421C20.0061 10.1296 19.954 10.2068 19.8818 10.2621C19.7999 10.3184 19.7055 10.3541 19.6068 10.366C19.466 10.3853 19.3241 10.3943 19.182 10.3929H18.5142V11.2093H18.2576ZM19.8044 9.65348C19.8079 9.55574 19.7963 9.45805 19.7701 9.36382C19.7533 9.30112 19.7156 9.24596 19.6632 9.20738C19.6059 9.17038 19.5399 9.14889 19.4717 9.14505C19.3932 9.13771 19.2986 9.13405 19.1869 9.13405H18.5117V10.19H19.1906C19.3023 10.19 19.3968 10.19 19.4754 10.179C19.5433 10.1753 19.6091 10.1547 19.6669 10.1191C19.719 10.0818 19.7567 10.0279 19.7737 9.96636C19.8002 9.87132 19.8118 9.7728 19.8081 9.67425L19.8044 9.65348Z" fill="#F4EFDC"/>
<path opacity="0.4" d="M20.2092 11.2085V11.0069H20.7555V9.13691L20.3209 9.25057L20.2669 9.05869L21.0134 8.85948V11.0105H21.5695V11.2085H20.2092Z" fill="#F4EFDC"/>
<path opacity="0.4" d="M21.884 11.2087V10.616C21.882 10.536 21.8953 10.4563 21.9233 10.3813C21.9476 10.3208 21.9835 10.2656 22.0289 10.2187C22.0741 10.1745 22.1269 10.1385 22.1848 10.1124C22.2464 10.0846 22.31 10.0613 22.3751 10.0427C22.4426 10.0244 22.5138 10.0073 22.5862 9.99141C22.6586 9.97552 22.7311 9.95963 22.8023 9.94008C22.8735 9.92052 22.9545 9.89975 23.0085 9.88142C23.0566 9.86759 23.1016 9.84478 23.1411 9.8142C23.1751 9.7867 23.1999 9.74963 23.2123 9.70786C23.229 9.64947 23.2364 9.58887 23.2344 9.5282C23.2415 9.46458 23.2331 9.4002 23.21 9.34045C23.187 9.2807 23.1499 9.22732 23.1018 9.18477C22.9857 9.11209 22.8495 9.07786 22.7127 9.087C22.6507 9.08774 22.5888 9.09182 22.5273 9.09921C22.461 9.10777 22.3959 9.11877 22.3345 9.13222C22.2732 9.14566 22.2118 9.15788 22.1651 9.17255C22.1233 9.18242 22.0822 9.19549 22.0424 9.21165L21.9503 9.02344C21.998 8.99532 22.0497 8.9747 22.1037 8.96233C22.1676 8.94644 22.2363 8.93178 22.31 8.91956C22.3837 8.90733 22.4585 8.89878 22.5359 8.89389C22.6132 8.889 22.6832 8.88411 22.7495 8.88411C22.8404 8.88394 22.9311 8.8913 23.0208 8.90611C23.1056 8.91896 23.1867 8.94936 23.259 8.99533C23.3321 9.04309 23.3907 9.10987 23.4284 9.18843C23.4754 9.29407 23.4973 9.4091 23.4922 9.52453C23.4963 9.63031 23.4792 9.73584 23.4419 9.83497C23.4091 9.91131 23.3544 9.97634 23.2848 10.022C23.1988 10.0754 23.1047 10.1146 23.0061 10.1381C22.8919 10.1674 22.7605 10.2016 22.596 10.2383L22.3959 10.2921C22.3459 10.3059 22.2982 10.3273 22.2547 10.3556C22.2183 10.3821 22.1898 10.418 22.1725 10.4595C22.1529 10.514 22.1437 10.5716 22.1455 10.6294V11.0034H23.4959V11.2087H21.884Z" fill="#F4EFDC"/>
</g>
<path d="M178.127 13.5462C178.134 13.5535 178.141 13.5611 178.148 13.5691C178.156 13.5796 178.164 13.5907 178.172 13.6023C178.179 13.6153 178.183 13.6301 178.182 13.6451C178.136 13.7587 178.081 14.0412 178.016 14.4927C178.007 14.5193 177.993 14.5665 177.974 14.6402C177.941 14.765 177.921 14.8929 177.916 15.0216C177.905 15.1876 177.894 15.2997 177.884 15.3566C177.829 15.7761 177.802 15.9895 177.802 15.9969C177.783 16.0638 177.769 16.1318 177.76 16.2005C177.751 16.2706 177.743 16.348 177.736 16.4306C177.729 16.5133 177.723 16.5782 177.719 16.6276C177.704 16.8181 177.674 17.0072 177.629 17.1934C177.558 17.4588 177.521 17.7312 177.518 18.0049C177.524 18.1233 177.505 18.2416 177.463 18.3531C177.431 18.4284 177.416 18.5089 177.418 18.5899C177.418 18.691 177.411 18.7566 177.407 18.7876C177.383 19.0373 177.335 19.2843 177.262 19.5253C177.207 19.6896 177.135 19.8482 177.047 19.9989C177.029 20.0528 176.999 20.1024 176.959 20.1442C176.918 20.1861 176.869 20.2193 176.814 20.2416L176.8 20.2483C176.796 20.2499 176.793 20.2526 176.79 20.2562C176.788 20.2597 176.786 20.2639 176.786 20.2682C176.782 20.2854 176.775 20.302 176.766 20.3176C176.757 20.3331 176.748 20.3464 176.741 20.3567C176.731 20.3711 176.718 20.3834 176.703 20.3928C176.69 20.4023 176.678 20.4124 176.666 20.4231C176.651 20.435 176.635 20.4458 176.618 20.4556C176.602 20.4644 176.587 20.4742 176.573 20.4851C176.157 20.7889 175.651 20.9594 175.126 20.9719C175.016 20.9762 174.905 20.974 174.794 20.9653C174.674 20.9565 174.579 20.9491 174.507 20.9424C174.435 20.9358 174.323 20.921 174.168 20.8996C174.014 20.8783 173.913 20.8642 173.867 20.8598C173.848 20.8476 173.83 20.8333 173.815 20.817C173.798 20.7977 173.775 20.7848 173.749 20.7809H173.538C173.497 20.7553 173.421 20.7147 173.31 20.6592C173.223 20.6195 173.142 20.57 173.068 20.5116C172.805 20.2792 172.63 19.9709 172.569 19.6345C172.536 19.4464 172.546 19.2537 172.597 19.0694C172.602 19.0473 172.607 19.0148 172.614 18.9706C172.621 18.9263 172.628 18.8872 172.632 18.8525C172.636 18.822 172.638 18.7912 172.639 18.7603C172.643 18.7111 172.669 18.5358 172.716 18.2343L172.841 17.1558C172.86 16.9193 172.918 16.5258 173.014 15.9755C173.069 15.6815 173.095 15.3835 173.094 15.0851C173.096 14.9466 173.119 14.8091 173.163 14.6771C173.215 14.5301 173.255 14.3794 173.282 14.2264C173.287 14.1772 173.296 14.1005 173.31 13.9962C173.324 13.8907 173.333 13.8103 173.338 13.7528C173.338 13.7199 173.347 13.6876 173.364 13.6588C173.381 13.6301 173.405 13.6058 173.434 13.5883C173.403 13.4425 173.399 13.2928 173.421 13.1457C173.431 13.0244 173.447 12.9038 173.469 12.7842C173.497 12.6263 173.513 12.526 173.517 12.4817L173.719 11.4489C173.727 11.4078 173.739 11.3671 173.753 11.3272C173.767 11.2874 173.779 11.2468 173.788 11.2055C173.792 11.1701 173.802 11.1126 173.816 11.0314C173.826 10.9739 173.833 10.9157 173.836 10.8573C173.833 10.7977 173.826 10.7383 173.816 10.6795C173.855 10.6544 173.889 10.622 173.916 10.5844C173.945 10.5408 173.969 10.4946 173.988 10.4464C174.004 10.4067 174.022 10.3683 174.044 10.3313C174.291 9.89706 174.683 9.57247 175.22 9.35756C175.447 9.27004 175.669 9.17155 175.885 9.06248C176.049 9.07151 176.214 9.04893 176.369 8.99608C176.425 8.97838 176.552 8.99166 176.75 9.03592C176.879 9.05313 177.054 9.07059 177.276 9.0883C177.314 9.09189 177.351 9.10084 177.387 9.11485C177.427 9.13234 177.467 9.15307 177.504 9.17682C177.55 9.20559 177.578 9.22182 177.587 9.22625C177.596 9.23067 177.665 9.26682 177.77 9.32141C177.85 9.36244 177.928 9.4075 178.003 9.45641C178.267 9.63427 178.456 9.89584 178.536 10.1941C178.573 10.4404 178.58 10.6899 178.557 10.9377C178.547 11.0901 178.526 11.2417 178.495 11.3914C178.485 11.4526 178.461 11.5744 178.422 11.7558C178.382 11.9373 178.354 12.0915 178.335 12.2162C178.317 12.3383 178.31 12.4617 178.314 12.585C178.314 12.5939 178.301 12.6507 178.273 12.7562C178.255 12.8476 178.234 13.0321 178.21 13.308C178.21 13.3168 178.21 13.333 178.214 13.3574C178.217 13.3748 178.217 13.3924 178.214 13.4098C178.214 13.4208 178.208 13.4363 178.203 13.4562C178.2 13.4752 178.191 13.4931 178.179 13.5086C178.165 13.5243 178.147 13.5371 178.127 13.5462ZM175.532 19.273C175.569 19.2015 175.588 19.1226 175.587 19.0429C175.596 18.9993 175.616 18.9211 175.646 18.8097C175.676 18.6983 175.698 18.6002 175.712 18.5147C175.726 18.4342 175.733 18.3528 175.733 18.2712C175.742 18.1729 175.762 18.0305 175.795 17.8441C175.827 17.656 175.848 17.5151 175.857 17.4236L175.905 17.3314C175.936 17.2478 175.959 17.1619 175.974 17.0747C176.03 16.5578 176.076 16.1852 176.113 15.957C176.178 15.5951 176.24 15.1903 176.3 14.7428C176.318 14.5849 176.354 14.3493 176.407 14.0361C176.461 13.7228 176.497 13.4872 176.515 13.3293C176.57 12.8646 176.621 12.5162 176.67 12.284C176.728 11.8675 176.775 11.5805 176.812 11.4231C176.817 11.4054 176.826 11.3641 176.84 11.2985C176.854 11.2328 176.863 11.1841 176.867 11.1509C176.872 11.1177 176.876 11.0771 176.881 11.0292C176.886 10.9833 176.886 10.9371 176.881 10.8912C176.877 10.8498 176.867 10.809 176.853 10.7695C176.849 10.7562 176.863 10.7253 176.895 10.6773C176.867 10.6824 176.837 10.6777 176.812 10.664C176.786 10.6504 176.763 10.6327 176.744 10.6117C176.729 10.593 176.711 10.5764 176.692 10.5622C176.506 10.5549 176.321 10.5352 176.138 10.5032C176.125 10.5076 176.08 10.5276 176.004 10.5622C175.941 10.5915 175.877 10.6174 175.812 10.6397C175.623 10.6972 175.529 10.813 175.529 10.9886C175.533 11.0041 175.534 11.0202 175.531 11.0361C175.529 11.0519 175.523 11.0671 175.515 11.0808C175.51 11.1244 175.501 11.1893 175.487 11.2748C175.474 11.3604 175.465 11.4224 175.463 11.4652C175.462 11.5252 175.467 11.5851 175.477 11.6444C175.451 11.6908 175.432 11.7405 175.421 11.792C175.388 11.8966 175.375 12.0055 175.379 12.1144C175.383 12.2143 175.369 12.3141 175.338 12.4094C175.301 12.5496 175.28 12.6352 175.275 12.6662L175.026 14.3813C175.022 14.4157 174.996 14.5439 174.949 14.7657C174.906 14.9272 174.883 15.0927 174.88 15.2592C174.885 15.3418 174.88 15.4246 174.866 15.5063C174.853 15.5911 174.83 15.6959 174.801 15.8184C174.771 15.9408 174.751 16.0242 174.742 16.0684C174.732 16.1557 174.717 16.2423 174.697 16.3281C174.677 16.4148 174.662 16.5025 174.652 16.5907C174.649 16.6775 174.653 16.7644 174.666 16.8504C174.666 16.8681 174.65 16.8821 174.618 16.8932C174.586 16.9043 174.573 16.9205 174.583 16.9426C174.602 16.9403 174.622 16.945 174.638 16.9559C174.607 17.3047 174.556 17.6515 174.483 17.9946C174.448 18.1376 174.422 18.2824 174.405 18.4283C174.402 18.6187 174.379 18.8083 174.336 18.9942C174.319 19.0668 174.315 19.1415 174.322 19.2155C174.488 19.4043 174.654 19.5106 174.82 19.5445C175.014 19.5747 175.169 19.5511 175.286 19.4707L175.386 19.3815C175.432 19.3417 175.48 19.3054 175.532 19.273V19.273Z" fill="#FFF9F0"/>
<path d="M178.57 20.8253C178.588 20.7888 178.596 20.7481 178.595 20.7071V20.617C178.612 20.5225 178.653 20.2447 178.717 19.7836C178.721 19.7421 178.721 19.7001 178.717 19.6586C178.708 19.6174 178.708 19.5748 178.717 19.5336C178.788 19.3942 178.801 19.2881 178.767 19.2162C178.843 18.97 178.895 18.7161 178.921 18.4586C178.963 18.1207 178.986 17.9366 178.992 17.9047C179.119 17.2522 179.202 16.5909 179.24 15.9259C179.237 15.7467 179.245 15.5675 179.265 15.3895L179.513 13.7553C179.561 13.4629 179.62 13.0422 179.689 12.4932C179.758 11.9442 179.799 11.6217 179.813 11.5257C179.909 10.8459 179.974 10.3822 180.011 10.1348C180.059 9.8568 180.085 9.57493 180.087 9.29229C180.084 9.2859 180.083 9.27891 180.083 9.27184C180.083 9.26476 180.084 9.25778 180.087 9.25138C180.097 9.23988 180.107 9.2297 180.119 9.22108C180.131 9.21345 180.141 9.20308 180.148 9.19078C180.138 9.1569 180.136 9.12122 180.141 9.08626C180.146 9.0513 180.158 9.01792 180.177 8.98849C180.676 9.03643 181.178 9.04529 181.679 9.01501C181.706 9.03995 181.727 9.07138 181.74 9.1067C181.753 9.14202 181.759 9.1802 181.755 9.21805C181.752 9.32442 181.743 9.43047 181.727 9.53549C181.707 9.67489 181.696 9.77413 181.691 9.83247C181.683 9.93171 181.663 10.0855 181.631 10.2954C181.598 10.5052 181.578 10.6628 181.571 10.7711C181.549 10.9378 181.515 11.1866 181.468 11.5174C181.422 11.8482 181.387 12.0969 181.366 12.2636C181.302 12.6596 181.27 12.8937 181.271 12.9659C181.264 13.0469 181.247 13.1265 181.219 13.2023C181.182 13.3571 181.156 13.515 181.143 13.6743C181.188 13.6082 181.219 13.532 181.232 13.4515C181.284 13.33 181.343 13.2117 181.408 13.097C181.477 12.9781 181.535 12.8529 181.583 12.7227C181.604 12.647 181.641 12.5394 181.694 12.4015C181.747 12.2636 181.777 12.1871 181.781 12.1689C181.789 12.1371 181.855 11.9929 181.978 11.7363C182 11.6583 182.031 11.5835 182.071 11.5136C182.115 11.4383 182.143 11.3529 182.151 11.2643C182.224 11.168 182.277 11.0562 182.307 10.9363C182.334 10.8207 182.383 10.7119 182.45 10.6158C182.497 10.4582 182.577 10.2343 182.689 9.94383C182.801 9.65367 182.877 9.45442 182.915 9.34608C182.929 9.29159 182.956 9.24161 182.992 9.20043C183.029 9.15926 183.074 9.12812 183.125 9.10971C183.204 9.07623 183.289 9.06249 183.374 9.06956C183.657 9.12189 183.946 9.13082 184.232 9.09607C184.304 9.08435 184.377 9.09705 184.441 9.13232C184.505 9.1676 184.557 9.22362 184.59 9.29229C184.395 9.67968 184.246 10.0014 184.143 10.2575C184.118 10.3141 184.089 10.3683 184.055 10.4196C184.022 10.4683 183.994 10.5203 183.972 10.5749C183.942 10.7153 183.842 10.9517 183.672 11.284C183.629 11.379 183.543 11.5545 183.414 11.8106C183.284 12.0674 183.191 12.2651 183.136 12.4121C183.103 12.4932 183.046 12.6265 182.967 12.8136C182.889 13.0008 182.824 13.1637 182.767 13.3031C182.709 13.4425 182.665 13.5758 182.623 13.7016C182.599 13.8125 182.561 13.9194 182.509 14.019C182.428 14.1629 182.354 14.3116 182.289 14.4645C182.206 14.6539 182.146 14.791 182.101 14.8766C182.154 15.0671 182.194 15.2613 182.222 15.4577C182.298 15.8941 182.337 16.1191 182.337 16.1327L182.445 16.8418C182.456 16.9109 182.473 16.9786 182.496 17.0441C182.523 17.1197 182.536 17.1999 182.534 17.2805C182.538 17.411 182.552 17.541 182.576 17.6691C182.603 17.8328 182.619 17.9313 182.623 17.9623C182.654 18.1738 182.703 18.3818 182.77 18.5836C182.835 18.8226 182.883 19.0665 182.913 19.3131C182.922 19.3899 182.996 19.8558 183.136 20.7109C183.149 20.7582 183.144 20.8088 183.123 20.8526C183.064 20.9064 182.956 20.9337 182.799 20.9337C182.782 20.9323 182.766 20.929 182.751 20.9238C182.729 20.9169 182.706 20.9156 182.684 20.92C182.644 20.9385 182.603 20.95 182.56 20.9541C182.515 20.9587 182.46 20.9617 182.397 20.964C182.333 20.9662 182.289 20.97 182.263 20.9738C182.173 20.9755 182.084 20.9677 181.995 20.9503C181.903 20.932 181.809 20.9264 181.715 20.9337C181.679 20.941 181.642 20.939 181.607 20.9278C181.572 20.9166 181.54 20.8965 181.514 20.8693C181.486 20.8425 181.464 20.8098 181.449 20.7732C181.434 20.7366 181.427 20.697 181.428 20.6571V20.5056C181.411 20.4338 181.402 20.3604 181.399 20.2867C181.397 20.2096 181.385 20.1332 181.364 20.0594C181.349 19.9783 181.343 19.8957 181.345 19.8132C181.347 19.7467 181.345 19.6801 181.339 19.6139C181.33 19.5776 181.327 19.5397 181.332 19.5025C181.339 19.4722 181.336 19.4406 181.326 19.4116C181.257 19.1948 181.213 18.9703 181.192 18.7427L181.154 18.3714C181.154 18.3623 181.145 18.2904 181.129 18.1555C181.112 18.0529 181.108 17.9486 181.116 17.8449C181.111 17.8319 181.109 17.818 181.109 17.804C181.11 17.7903 181.108 17.7765 181.103 17.7638C181.069 17.624 181.045 17.4817 181.031 17.3381C181.01 17.1494 180.997 17.0411 180.993 17.0138C180.976 16.8971 180.942 16.7032 180.891 16.4335C180.861 16.2662 180.844 16.0968 180.84 15.9266C180.84 15.9001 180.832 15.8865 180.815 15.8865C180.785 15.8865 180.769 15.9001 180.769 15.9266C180.77 16.1019 180.758 16.277 180.732 16.4501C180.702 16.682 180.685 16.8206 180.681 16.8653C180.656 17.1152 180.618 17.3633 180.566 17.6085C180.502 17.9328 180.462 18.1692 180.445 18.3176C180.41 18.6502 180.381 18.9002 180.355 19.0669C180.351 19.1033 180.348 19.1556 180.346 19.2253C180.344 19.295 180.34 19.3586 180.336 19.4147C180.332 19.4707 180.325 19.5238 180.317 19.573C180.273 19.7631 180.252 19.9583 180.253 20.1541C180.253 20.1859 180.248 20.2776 180.237 20.4306C180.223 20.5224 180.223 20.6161 180.237 20.7079C180.243 20.7336 180.242 20.7605 180.234 20.7855C180.226 20.8106 180.212 20.8327 180.192 20.8496C179.979 20.8794 179.764 20.8895 179.549 20.8799C179.325 20.8837 179.101 20.8735 178.879 20.8496C178.836 20.8688 178.791 20.8826 178.745 20.8905C178.64 20.8526 178.578 20.8299 178.57 20.8253Z" fill="#FFF9F0"/>
<path d="M75.1453 19.7825V10.3793H76.9644V19.7825H75.1453ZM76.4829 19.7825V18.164H81.2714V19.7825H76.4829ZM88.2909 19.9296C87.6043 19.9296 86.9623 19.8048 86.3648 19.5551C85.7763 19.3054 85.2591 18.9621 84.8132 18.5252C84.3763 18.0793 84.033 17.5621 83.7833 16.9736C83.5336 16.3761 83.4088 15.7385 83.4088 15.0608C83.4088 14.3831 83.5291 13.7545 83.7699 13.1748C84.0196 12.5863 84.3629 12.0736 84.7998 11.6366C85.2457 11.1908 85.7629 10.8475 86.3514 10.6067C86.94 10.357 87.5775 10.2322 88.2642 10.2322C88.9597 10.2322 89.6017 10.357 90.1903 10.6067C90.7788 10.8475 91.2916 11.1908 91.7285 11.6366C92.1744 12.0736 92.5221 12.5863 92.7718 13.1748C93.0215 13.7634 93.1463 14.3965 93.1463 15.0742C93.1463 15.7519 93.0215 16.385 92.7718 16.9736C92.5221 17.5621 92.1744 18.0793 91.7285 18.5252C91.2916 18.9621 90.7788 19.3054 90.1903 19.5551C89.6107 19.8048 88.9775 19.9296 88.2909 19.9296ZM88.2642 18.2309C88.8705 18.2309 89.3966 18.0971 89.8425 17.8296C90.2884 17.5621 90.6361 17.192 90.8858 16.7194C91.1444 16.2468 91.2737 15.6939 91.2737 15.0608C91.2737 14.5971 91.2024 14.1736 91.0597 13.7901C90.917 13.4067 90.7119 13.0767 90.4444 12.8003C90.1769 12.515 89.8603 12.2965 89.4947 12.1449C89.1291 11.9933 88.7189 11.9175 88.2642 11.9175C87.6756 11.9175 87.154 12.0513 86.6992 12.3188C86.2533 12.5774 85.9011 12.943 85.6425 13.4156C85.3928 13.8882 85.268 14.4366 85.268 15.0608C85.268 15.5334 85.3393 15.9659 85.482 16.3583C85.6336 16.7506 85.8387 17.085 86.0973 17.3615C86.3648 17.6379 86.6814 17.8519 87.047 18.0035C87.4215 18.1551 87.8272 18.2309 88.2642 18.2309ZM95.1922 19.7825L98.9775 10.3793H100.462L104.234 19.7825H102.295L99.3788 12.0646H100.048L97.0916 19.7825H95.1922ZM97.1986 18.0303V16.5054H102.255V18.0303H97.1986ZM108.528 19.7825V18.164H110.923C111.529 18.164 112.059 18.0392 112.514 17.7895C112.969 17.5309 113.321 17.1697 113.571 16.706C113.83 16.2424 113.959 15.6939 113.959 15.0608C113.959 14.4455 113.83 13.9105 113.571 13.4557C113.312 12.992 112.956 12.6353 112.501 12.3857C112.046 12.1271 111.52 11.9978 110.923 11.9978H108.488V10.3793H110.949C111.645 10.3793 112.287 10.4952 112.875 10.7271C113.473 10.9589 113.99 11.2889 114.427 11.7169C114.873 12.136 115.216 12.6309 115.457 13.2016C115.707 13.7723 115.831 14.3965 115.831 15.0742C115.831 15.7519 115.707 16.3806 115.457 16.9602C115.216 17.5309 114.877 18.0303 114.44 18.4583C114.003 18.8774 113.486 19.2029 112.889 19.4347C112.3 19.6666 111.663 19.7825 110.976 19.7825H108.528ZM107.284 19.7825V10.3793H109.103V19.7825H107.284ZM119.216 19.7825V10.3793H121.036V19.7825H119.216ZM124.905 19.7825V10.3793H126.176L126.724 12.1984V19.7825H124.905ZM131.405 19.7825L125.828 12.5596L126.176 10.3793L131.753 17.6022L131.405 19.7825ZM131.405 19.7825L130.884 18.0169V10.3793H132.716V19.7825H131.405ZM140.91 19.9162C140.241 19.9162 139.612 19.7959 139.024 19.5551C138.444 19.3054 137.931 18.9576 137.486 18.5118C137.049 18.0659 136.705 17.5532 136.456 16.9736C136.215 16.385 136.095 15.7519 136.095 15.0742C136.095 14.3876 136.219 13.7545 136.469 13.1748C136.719 12.5863 137.067 12.0736 137.512 11.6366C137.958 11.1908 138.48 10.8475 139.077 10.6067C139.675 10.357 140.321 10.2322 141.017 10.2322C141.793 10.2322 142.506 10.3793 143.157 10.6736C143.808 10.9589 144.347 11.3646 144.775 11.8908L143.545 13.1213C143.251 12.7379 142.885 12.4436 142.448 12.2385C142.011 12.0334 141.53 11.9309 141.003 11.9309C140.406 11.9309 139.875 12.0646 139.412 12.3322C138.957 12.5908 138.6 12.9564 138.342 13.429C138.083 13.8927 137.954 14.4366 137.954 15.0608C137.954 15.685 138.079 16.2379 138.328 16.7194C138.587 17.192 138.935 17.5621 139.372 17.8296C139.817 18.0971 140.326 18.2309 140.896 18.2309C141.485 18.2309 141.989 18.1239 142.408 17.9099C142.827 17.6869 143.148 17.3659 143.371 16.9468C143.594 16.5188 143.705 15.9971 143.705 15.3818L144.896 16.1978L140.789 16.1576V14.5793H145.578V14.8334C145.578 15.957 145.377 16.8978 144.976 17.6557C144.575 18.4048 144.022 18.971 143.317 19.3545C142.622 19.729 141.819 19.9162 140.91 19.9162Z" fill="#008056"/>
</g>
</g>
<defs>
<filter id="filter0_di_763_1306" x="-1" y="0" width="206.957" height="39" filterUnits="userSpaceOnUse" color-interpolation-filters="sRGB">
<feFlood flood-opacity="0" result="BackgroundImageFix"/>
<feColorMatrix in="SourceAlpha" type="matrix" values="0 0 0 0 0 0 0 0 0 0 0 0 0 0 0 0 0 0 127 0" result="hardAlpha"/>
<feOffset dy="4"/>
<feGaussianBlur stdDeviation="2"/>
<feComposite in2="hardAlpha" operator="out"/>
<feColorMatrix type="matrix" values="0 0 0 0 0 0 0 0 0 0 0 0 0 0 0 0 0 0 0.25 0"/>
<feBlend mode="normal" in2="BackgroundImageFix" result="effect1_dropShadow_763_1306"/>
<feBlend mode="normal" in="SourceGraphic" in2="effect1_dropShadow_763_1306" result="shape"/>
<feColorMatrix in="SourceAlpha" type="matrix" values="0 0 0 0 0 0 0 0 0 0 0 0 0 0 0 0 0 0 127 0" result="hardAlpha"/>
<feOffset dx="-5" dy="10"/>
<feGaussianBlur stdDeviation="5"/>
<feComposite in2="hardAlpha" operator="arithmetic" k2="-1" k3="1"/>
<feColorMatrix type="matrix" values="0 0 0 0 0 0 0 0 0 0 0 0 0 0 0 0 0 0 0.7 0"/>
<feBlend mode="normal" in2="shape" result="effect2_innerShadow_763_1306"/>
</filter>
<clipPath id="clip0_763_1306">
<rect x="4" width="197.957" height="29" rx="5" fill="white"/>
</clipPath>
</defs>
</svg>
