<svg width="358" height="36" viewBox="0 0 358 36" fill="none" xmlns="http://www.w3.org/2000/svg">
<path fill-rule="evenodd" clip-rule="evenodd" d="M243.362 4.56e-06L354.786 0L356.929 1.6C356.795 3.04566 356.649 4.2863 356.519 5.3951C356.154 8.49644 355.91 10.5663 356.401 13.2056L356.929 13.6C356.886 14.0569 356.843 14.4934 356.799 14.9117C357.085 15.9414 357.477 17.0812 358 18.4C357.752 19.3245 356.99 19.9926 356.188 20.5821C355.973 23.5718 356.247 25.9817 358 30.4C357.701 31.5151 356.653 32.2571 355.692 32.9381C355.503 33.0714 355.318 33.2024 355.143 33.3333C354.786 33.3333 354.429 33.4 354.072 33.4667C353.715 33.5333 353.357 33.6 353 33.6L329.787 33.6C326.973 33.6 324.073 33.6647 321.129 33.7303C318.094 33.798 315.012 33.8667 311.931 33.8667C298.477 33.3379 285.374 33.5955 271.926 33.8598L271.575 33.8667C268.841 33.8667 266.106 33.8068 263.379 33.7472C256.134 33.5887 248.939 33.4313 241.934 34.4C240.034 33.4545 238.135 33.7196 236.236 33.9846C234.921 34.168 233.606 34.3515 232.291 34.1333C229.76 33.5663 227.229 33.6691 224.57 33.7771C223.478 33.8214 222.364 33.8667 221.22 33.8667L120.868 33.8667C120.06 33.8667 119.27 33.8394 118.495 33.8126C115.842 33.7209 113.355 33.6349 110.868 34.6667C110.066 34.5811 109.264 34.4407 108.45 34.2982C106.728 33.9965 104.952 33.6855 103.011 33.8667C102.31 33.8667 101.57 33.8095 100.817 33.7513C99.27 33.6318 97.6672 33.5079 96.2259 33.8667C94.9636 34.2706 93.7923 34.1306 92.6661 33.996C91.562 33.8641 90.5013 33.7373 89.4405 34.1333C88.4321 34.5098 87.4238 34.4138 86.4154 34.3179C85.281 34.2099 84.1466 34.102 83.0122 34.6667C81.9408 35.1467 80.4837 35.0507 79.0267 34.9547C78.0553 34.8907 77.0839 34.8267 76.2268 34.9333C74.2269 35.1822 72.227 35.0246 70.2271 34.867C67.9414 34.6868 65.6558 34.5067 63.3702 34.9333C60.4188 35.334 57.0643 35.2832 53.761 35.2331C52.6674 35.2165 51.5795 35.2 50.5136 35.2L44.0854 36L37.6571 35.2C36.9552 35.1127 36.2151 35.0825 35.4994 35.0534C34.0299 34.9936 32.6635 34.938 31.943 34.4C22.016 35.4589 12.7928 35.2038 3.22538 34.9391L3.01575 34.9333C2.82298 34.6455 2.63834 34.3721 2.46216 34.1113C0.0271569 30.5069 -0.792178 29.2941 0.872974 25.0667C1.23012 24.2667 1.58724 23.4667 0.872974 22.9333C0.0265675 21.6693 0.308568 21.4351 0.753216 21.0658C0.945153 20.9064 1.16739 20.7218 1.34227 20.4184C-0.182772 17.9935 -0.502398 16.5584 0.872974 13.0667C1.23012 12.2667 1.58724 11.4667 0.872974 10.9333C0.0265676 9.66931 0.308568 9.4351 0.753216 9.0658C1.05901 8.81183 1.44172 8.49398 1.58724 7.73334L0.158728 4.00001L3.01575 1.60001C7.2886 1.42276 11.7192 1.48115 16.2028 1.54023C18.4645 1.57003 20.7397 1.60001 23.0149 1.60001L38.0142 1.60001C38.4663 1.60001 38.9185 1.61711 39.3648 1.63399C40.6812 1.68376 41.9472 1.73164 43.014 1.33335C45.3321 0.179387 47.6502 0.412534 49.8344 0.632206C50.6786 0.717116 51.5028 0.800012 52.2993 0.800012C53.0922 0.865802 53.8417 0.980286 54.5692 1.09141C56.7904 1.43069 58.8063 1.73861 61.2274 0.533345C61.9417 0.266678 63.7273 0.266678 64.7987 0.266678C71.2723 0.266677 77.7458 0.672331 84.1738 1.07513C90.5119 1.47229 96.8056 1.86668 103.011 1.86668C106.106 1.86668 109.201 1.62964 112.297 1.3926C113.844 1.27408 115.392 1.15557 116.939 1.06668C120.868 1.06668 124.796 1.06668 129.082 0.800009C138.367 0.266675 141.938 0.533341 152.652 1.33334C158.723 1.86667 165.151 2.40001 171.58 0.800007C172.651 0.53334 174.08 0.266673 175.508 0.266673C178.884 0.266673 182.259 0.222919 185.626 0.179273C194.015 0.0705385 202.352 -0.0375211 210.507 0.533338C217.458 1.20308 224.409 0.821521 231.272 0.444812C235.339 0.221556 239.375 4.56e-06 243.362 4.56e-06Z" fill="#19AB6E"/>
</svg>
