<svg width="198" height="29" viewBox="0 0 198 29" fill="none" xmlns="http://www.w3.org/2000/svg">
<g clip-path="url(#clip0_763_2269)">
<path d="M193.529 0.650009H4.4276C2.33183 0.650009 0.632874 2.34138 0.632874 4.42778V24.5755C0.632874 26.6619 2.33183 28.3533 4.4276 28.3533H193.529C195.625 28.3533 197.324 26.6619 197.324 24.5755V4.42778C197.324 2.34138 195.625 0.650009 193.529 0.650009Z" fill="black"/>
<path d="M193.53 0.649002C194.536 0.649002 195.501 1.04701 196.213 1.75548C196.924 2.46395 197.324 3.42485 197.324 4.42678V24.5757C197.324 25.5776 196.924 26.5385 196.213 27.247C195.501 27.9555 194.536 28.3535 193.53 28.3535H4.42697C3.42055 28.3535 2.45534 27.9555 1.7437 27.247C1.03205 26.5385 0.632248 25.5776 0.632248 24.5757V4.42678C0.632248 3.42485 1.03205 2.46395 1.7437 1.75548C2.45534 1.04701 3.42055 0.649002 4.42697 0.649002H193.53ZM193.53 0.019577H4.42697C3.25336 0.0211937 2.12829 0.48604 1.29842 1.3122C0.468557 2.13836 0.00162392 3.25841 0 4.42678V24.5757C0.00162392 25.7441 0.468557 26.8641 1.29842 27.6903C2.12829 28.5165 3.25336 28.9813 4.42697 28.9829H193.53C194.703 28.9813 195.828 28.5165 196.658 27.6903C197.488 26.8641 197.955 25.7441 197.957 24.5757V4.42678C197.955 3.25841 197.488 2.13836 196.658 1.3122C195.828 0.48604 194.703 0.0211937 193.53 0.019577V0.019577Z" fill="#333333"/>
<path d="M193.313 1.52425H4.64373C2.89715 1.52425 1.48126 2.93381 1.48126 4.67259V24.3278C1.48126 26.0666 2.89715 27.4761 4.64373 27.4761H193.313C195.06 27.4761 196.475 26.0666 196.475 24.3278V4.67259C196.475 2.93381 195.06 1.52425 193.313 1.52425Z" fill="#333333"/>
<g opacity="0.3">
<path opacity="0.3" d="M196.475 14.3415H1.48254V14.6568H196.475V14.3415Z" fill="black"/>
</g>
<path opacity="0.1" d="M191.873 24.3278V4.6726C191.873 3.8376 191.54 3.0368 190.947 2.44638C190.354 1.85595 189.549 1.52425 188.711 1.52425H193.312C194.151 1.52425 194.955 1.85595 195.548 2.44638C196.141 3.0368 196.474 3.8376 196.474 4.6726V24.3278C196.474 25.1628 196.141 25.9636 195.548 26.554C194.955 27.1444 194.151 27.4761 193.312 27.4761H188.711C189.549 27.4761 190.354 27.1444 190.947 26.554C191.54 25.9636 191.873 25.1628 191.873 24.3278Z" fill="white"/>
<path opacity="0.1" d="M6.08256 24.3278V4.6726C6.08256 3.8376 6.41575 3.0368 7.00883 2.44638C7.60191 1.85595 8.40629 1.52425 9.24503 1.52425H4.64374C3.805 1.52425 3.00061 1.85595 2.40753 2.44638C1.81445 3.0368 1.48126 3.8376 1.48126 4.6726V24.3278C1.48126 25.1628 1.81445 25.9636 2.40753 26.554C3.00061 27.1444 3.805 27.4761 4.64374 27.4761H9.24503C8.40629 27.4761 7.60191 27.1444 7.00883 26.554C6.41575 25.9636 6.08256 25.1628 6.08256 24.3278V24.3278Z" fill="white"/>
<path opacity="0.03" d="M6.08302 24.3278V4.6726C6.08302 3.8376 6.41621 3.0368 7.00929 2.44638C7.60237 1.85595 8.40675 1.52425 9.24549 1.52425H6.45501C6.03976 1.52425 5.62859 1.60569 5.24497 1.76392C4.86135 1.92216 4.5128 2.15408 4.21923 2.44645C3.92567 2.73882 3.69284 3.0859 3.53405 3.46787C3.37525 3.84983 3.2936 4.25921 3.29376 4.6726V24.3278C3.2936 24.7412 3.37525 25.1505 3.53405 25.5325C3.69284 25.9145 3.92567 26.2615 4.21923 26.5539C4.5128 26.8463 4.86135 27.0782 5.24497 27.2364C5.62859 27.3947 6.03976 27.4761 6.45501 27.4761H9.24549C8.40675 27.4761 7.60237 27.1444 7.00929 26.554C6.41621 25.9636 6.08302 25.1628 6.08302 24.3278V24.3278Z" fill="white"/>
<path d="M29.9378 14.4999H21.0826V25.942H21.8327V18.6944C21.8327 18.3461 22.0721 18.065 22.3668 18.065H29.4075C29.7021 18.065 29.9415 18.3461 29.9415 18.6944V25.942H30.6904V14.4999H29.9378Z" fill="black"/>
<path opacity="0.2" d="M118.052 -0.00012207H79.9039C79.9039 0.149945 79.9336 0.298543 79.9913 0.437187C80.049 0.575831 80.1335 0.701806 80.2401 0.807919C80.3467 0.914033 80.4733 0.998207 80.6125 1.05563C80.7518 1.11306 80.9011 1.14262 81.0518 1.14262H116.9C117.05 1.14262 117.2 1.11306 117.339 1.05563C117.478 0.998207 117.605 0.914033 117.711 0.807919C117.818 0.701806 117.903 0.575831 117.96 0.437187C118.018 0.298543 118.048 0.149945 118.048 -0.00012207H118.052Z" fill="white"/>
<path opacity="0.2" d="M79.9039 29.0011H118.052C118.052 28.6938 117.93 28.3991 117.712 28.1818C117.493 27.9645 117.197 27.8424 116.889 27.8424H81.0678C80.7591 27.8424 80.4631 27.9645 80.2448 28.1818C80.0265 28.3991 79.9039 28.6938 79.9039 29.0011V29.0011Z" fill="white"/>
<path opacity="0.03" d="M191.873 4.6726V24.3278C191.873 25.1628 191.54 25.9636 190.947 26.554C190.354 27.1444 189.549 27.4761 188.711 27.4761H191.501C191.916 27.4761 192.327 27.3947 192.711 27.2364C193.095 27.0782 193.443 26.8463 193.737 26.5539C194.03 26.2615 194.263 25.9145 194.422 25.5325C194.581 25.1505 194.662 24.7412 194.662 24.3278V4.6726C194.662 4.25921 194.581 3.84983 194.422 3.46787C194.263 3.0859 194.03 2.73882 193.737 2.44645C193.443 2.15408 193.095 1.92216 192.711 1.76392C192.327 1.60569 191.916 1.52425 191.501 1.52425H188.711C189.549 1.52425 190.354 1.85595 190.947 2.44638C191.54 3.0368 191.873 3.8376 191.873 4.6726V4.6726Z" fill="white"/>
<path opacity="0.3" d="M184.184 23.7589V5.24526C184.184 4.33402 183.442 3.59532 182.527 3.59532L36.9315 3.59532C36.0162 3.59532 35.2742 4.33402 35.2742 5.24526V23.7589C35.2742 24.6702 36.0162 25.4089 36.9315 25.4089L182.527 25.4089C183.442 25.4089 184.184 24.6702 184.184 23.7589Z" fill="black"/>
<path d="M182.525 4.14449H36.9313C36.3211 4.14449 35.8264 4.63696 35.8264 5.24445V23.7581C35.8264 24.3656 36.3211 24.8581 36.9313 24.8581H182.525C183.136 24.8581 183.63 24.3656 183.63 23.7581V5.24445C183.63 4.63696 183.136 4.14449 182.525 4.14449Z" fill="#FFF9F0"/>
<path d="M40.8476 4.14449H36.9325C36.6395 4.14449 36.3585 4.26038 36.1513 4.46666C35.944 4.67294 35.8276 4.95272 35.8276 5.24445V23.7581C35.8276 24.0498 35.944 24.3296 36.1513 24.5359C36.3585 24.7422 36.6395 24.8581 36.9325 24.8581H40.8476V4.14449Z" fill="#19AB6E"/>
<path d="M182.527 4.14449H165.072V24.8581H182.527C182.82 24.8581 183.101 24.7422 183.308 24.5359C183.515 24.3296 183.632 24.0498 183.632 23.7581V5.24445C183.632 4.95272 183.515 4.67294 183.308 4.46666C183.101 4.26038 182.82 4.14449 182.527 4.14449V4.14449Z" fill="#19AB6E"/>
<path opacity="0.3" d="M46.2188 4.14449H40.8527V24.8581H46.2188V4.14449Z" fill="#19AB6E"/>
<path d="M37.1513 17.1201L39.5293 17.7398V18.3276L37.1513 18.9461V18.6723L39.2948 18.1284V17.9329L37.1513 17.389V17.1201Z" fill="#FFFDFA"/>
<path d="M37.1513 16.7451V16.4823H39.5293V16.7451H37.1513Z" fill="#FFFDFA"/>
<path d="M39.5293 15.9018H37.1513V15.0573C37.1513 14.3704 37.6325 14.1822 38.3053 14.1822C38.9781 14.1822 39.533 14.3594 39.533 15.0573L39.5293 15.9018ZM37.3858 15.0573V15.639H39.2948V15.0573C39.2948 14.5684 38.8209 14.4462 38.3053 14.4462C37.7897 14.4462 37.3858 14.5647 37.3858 15.0573Z" fill="#FFFDFA"/>
<path d="M37.1513 13.6961V12.2564H37.3858V13.4321H38.2059V12.4617H38.4367V13.4321H39.296V12.2564H39.5305V13.6961H37.1513Z" fill="#FFFDFA"/>
<path d="M38.3507 11.926C37.5674 11.926 37.123 11.7243 37.123 10.9922C37.123 10.2601 37.5662 10.0548 38.3507 10.0548C39.1683 10.0548 39.5636 10.2577 39.5636 10.9922C39.5636 11.7268 39.1474 11.926 38.3507 11.926ZM38.3507 10.3286C37.7086 10.3286 37.3501 10.4508 37.3501 10.9922C37.3501 11.5337 37.7049 11.6559 38.3507 11.6559C38.9964 11.6559 39.3328 11.5398 39.3328 10.9922C39.3328 10.4447 39.0197 10.3286 38.3507 10.3286Z" fill="#FFFDFA"/>
<path d="M44.6886 20.2846C44.7335 20.4998 44.7577 20.7187 44.761 20.9385C44.761 21.6461 44.3288 21.8038 43.5456 21.8038C42.7415 21.8038 42.3179 21.6498 42.3179 20.9385C42.3223 20.7187 42.3474 20.4998 42.3928 20.2846L42.6163 20.2956C42.5811 20.4976 42.5606 20.7018 42.5549 20.9067C42.5549 21.4335 42.8716 21.5251 43.5481 21.5251C44.2245 21.5251 44.5302 21.4396 44.5302 20.8994C44.5265 20.6943 44.506 20.49 44.4688 20.2883L44.6886 20.2846Z" fill="#19AB6E"/>
<path d="M42.35 19.4135V18.8391L44.7267 18.1889V18.4492L44.1129 18.6203V19.6323L44.7267 19.8034V20.0637L42.35 19.4135ZM43.8784 19.5736V18.6778L42.5771 19.0322V19.2107L43.8784 19.5736Z" fill="#19AB6E"/>
<path d="M42.604 16.5125C42.604 16.5125 42.5451 16.988 42.5451 17.186C42.5451 17.5208 42.6678 17.6993 42.933 17.6993C43.2424 17.6993 43.2939 17.5355 43.3872 17.1212C43.494 16.6494 43.6107 16.4404 44.0256 16.4404C44.5511 16.4404 44.7622 16.7276 44.7622 17.197C44.7521 17.448 44.7267 17.6982 44.6861 17.9462L44.4664 17.9181C44.4664 17.9181 44.5277 17.4536 44.5277 17.2104C44.5277 16.8755 44.3804 16.7044 44.0502 16.7044C43.7826 16.7044 43.7064 16.8438 43.6315 17.2312C43.5247 17.7201 43.4081 17.9645 42.9539 17.9645C42.4996 17.9645 42.3155 17.6638 42.3155 17.2019C42.3238 16.9624 42.3468 16.7236 42.3842 16.4869L42.604 16.5125Z" fill="#19AB6E"/>
<path d="M42.604 14.6582C42.604 14.6582 42.5451 15.1324 42.5451 15.3316C42.5451 15.6665 42.6678 15.8449 42.933 15.8449C43.2424 15.8449 43.2939 15.6799 43.3872 15.2668C43.494 14.7938 43.6107 14.5861 44.0256 14.5861C44.5511 14.5861 44.7622 14.8733 44.7622 15.3414C44.7522 15.5924 44.7268 15.8426 44.6861 16.0906L44.4664 16.0637C44.4664 16.0637 44.5277 15.598 44.5277 15.3548C44.5277 15.0199 44.3804 14.8488 44.0502 14.8488C43.7826 14.8488 43.7064 14.9894 43.6315 15.3756C43.5247 15.8645 43.4081 16.1089 42.9539 16.1089C42.4996 16.1089 42.3155 15.8082 42.3155 15.3463C42.3237 15.1068 42.3467 14.868 42.3842 14.6313L42.604 14.6582Z" fill="#19AB6E"/>
<path d="M42.35 14.1296V12.6898H42.5832V13.8656H43.4045V12.8878H43.6341V13.8656H44.4935V12.6898H44.7267V14.1296H42.35Z" fill="#19AB6E"/>
<path d="M42.35 12.4825V10.7714H42.5869V11.4925H44.7267V11.7529H42.5869V12.4862L42.35 12.4825Z" fill="#19AB6E"/>
<path d="M42.35 10.6823V8.97125H42.5869V9.69234H44.7267V9.95266H42.5869V10.686L42.35 10.6823Z" fill="#19AB6E"/>
<path d="M42.35 8.644V7.19815H42.5832V8.37512H43.4045V7.40348H43.6341V8.37512H44.4935V7.19815H44.7267V8.644H42.35Z" fill="#19AB6E"/>
<g opacity="0.4">
<path opacity="0.4" d="M161.476 7.21709H48.5647C48.5464 7.21677 48.5289 7.20929 48.516 7.19626C48.5032 7.18323 48.496 7.16569 48.496 7.14743C48.496 7.12928 48.5032 7.11187 48.5161 7.09903C48.529 7.0862 48.5465 7.07898 48.5647 7.07898H161.476C161.494 7.07898 161.512 7.0862 161.524 7.09903C161.537 7.11187 161.545 7.12928 161.545 7.14743C161.545 7.16569 161.537 7.18323 161.524 7.19626C161.512 7.20929 161.494 7.21677 161.476 7.21709Z" fill="#19AB6E"/>
<path opacity="0.4" d="M161.476 14.5668H48.5647C48.5465 14.5668 48.529 14.5596 48.5161 14.5468C48.5032 14.534 48.496 14.5165 48.496 14.4984C48.496 14.4802 48.5032 14.4628 48.5161 14.45C48.529 14.4372 48.5465 14.4299 48.5647 14.4299H161.476C161.494 14.4299 161.511 14.4372 161.524 14.45C161.537 14.4628 161.545 14.4802 161.545 14.4984C161.545 14.5165 161.537 14.534 161.524 14.5468C161.511 14.5596 161.494 14.5668 161.476 14.5668V14.5668Z" fill="#19AB6E"/>
<path opacity="0.4" d="M161.476 21.919H48.5647C48.5465 21.919 48.529 21.9118 48.5161 21.899C48.5032 21.8861 48.496 21.8687 48.496 21.8506C48.496 21.8323 48.5032 21.8148 48.516 21.8017C48.5289 21.7887 48.5464 21.7812 48.5647 21.7809H161.476C161.494 21.7812 161.512 21.7887 161.524 21.8017C161.537 21.8148 161.545 21.8323 161.545 21.8506C161.545 21.8687 161.537 21.8861 161.524 21.899C161.511 21.9118 161.494 21.919 161.476 21.919Z" fill="#19AB6E"/>
</g>
<g opacity="0.4">
<path opacity="0.4" d="M13.5218 6.94744L13.2321 6.23368H12.1935L11.9074 6.94744H11.6435L12.5606 4.66562H12.8675L13.7858 6.94744H13.5218ZM12.8577 5.30971L12.7214 4.8795H12.7005L12.5642 5.30971L12.2647 6.0528H13.1572L12.8577 5.30971Z" fill="#F4EFDC"/>
<path opacity="0.4" d="M15.9992 6.83729C15.8817 6.89031 15.758 6.92849 15.6309 6.95095C15.4764 6.98062 15.3193 6.99495 15.162 6.99373C15.0017 6.99531 14.8417 6.98057 14.6844 6.94974C14.5508 6.92421 14.4261 6.86486 14.3222 6.77741C14.2132 6.67815 14.1331 6.55149 14.0902 6.41075C13.9801 6.01073 13.9801 5.58859 14.0902 5.18857C14.1341 5.05002 14.2141 4.92559 14.3222 4.82802C14.4261 4.74056 14.5508 4.68122 14.6844 4.65569C14.8416 4.62442 15.0016 4.60926 15.162 4.61047C15.4368 4.59957 15.7108 4.64836 15.9649 4.75347L15.8421 4.94168C15.7733 4.91846 15.6788 4.89035 15.5597 4.8598C15.43 4.82785 15.2968 4.81225 15.1632 4.81335C15.0436 4.81248 14.9241 4.82148 14.8059 4.84025C14.7021 4.85503 14.6042 4.89723 14.5223 4.96246C14.434 5.04281 14.3691 5.14542 14.3345 5.25945C14.2445 5.61194 14.2445 5.98126 14.3345 6.33375C14.3685 6.44737 14.4335 6.54936 14.5223 6.6283C14.6045 6.69313 14.7023 6.73528 14.8059 6.75052C14.9242 6.76824 15.0436 6.77682 15.1632 6.77618C15.2351 6.77636 15.3069 6.77105 15.378 6.76029C15.4492 6.75052 15.5155 6.73829 15.5781 6.72363C15.6408 6.70896 15.7009 6.6943 15.7488 6.67719C15.7967 6.66007 15.8445 6.64663 15.8777 6.63441L15.9992 6.83729Z" fill="#F4EFDC"/>
<path opacity="0.4" d="M17.992 4.95007C17.9577 4.93785 17.9147 4.92563 17.8595 4.91096C17.8042 4.8963 17.7441 4.88286 17.6778 4.87063C17.6115 4.85841 17.5403 4.84619 17.4666 4.83763C17.3929 4.82908 17.3205 4.82541 17.2493 4.82541C17.0835 4.81611 16.9179 4.84715 16.7668 4.91586C16.7107 4.95013 16.6654 4.99955 16.6363 5.05839C16.6072 5.11722 16.5954 5.18306 16.6023 5.24829C16.6014 5.30679 16.6055 5.36526 16.6146 5.42306C16.6223 5.46116 16.6426 5.4956 16.6723 5.52084C16.712 5.55026 16.7577 5.57069 16.8061 5.58072C16.8663 5.59661 16.9473 5.61495 17.0517 5.63572C17.1842 5.66424 17.3181 5.68991 17.4531 5.71272C17.5792 5.73193 17.7027 5.76514 17.8214 5.81172C17.9245 5.85119 18.0169 5.91395 18.0915 5.99505C18.1654 6.08658 18.2038 6.20155 18.1995 6.31892C18.2044 6.43433 18.1812 6.5492 18.132 6.6538C18.089 6.73817 18.0236 6.80919 17.9429 6.85912C17.8536 6.91176 17.7548 6.94625 17.652 6.96057C17.53 6.97815 17.4069 6.98674 17.2837 6.98624C17.2002 6.98624 17.1118 6.98623 17.0197 6.97401C16.9277 6.96179 16.8356 6.95323 16.746 6.93735C16.6563 6.92146 16.5729 6.9019 16.4943 6.88235C16.4258 6.86442 16.3591 6.83986 16.2954 6.80902L16.3494 6.71002C16.3666 6.67824 16.385 6.64647 16.4071 6.61347C16.4415 6.62814 16.4894 6.64402 16.5471 6.66358C16.6149 6.68459 16.6837 6.70213 16.7533 6.71613C16.8393 6.73474 16.9262 6.74902 17.0136 6.75891C17.1129 6.77142 17.213 6.77754 17.3131 6.77724C17.4138 6.77724 17.5034 6.77724 17.5832 6.76991C17.6539 6.76765 17.7234 6.75058 17.787 6.7198C17.8416 6.69006 17.8847 6.64323 17.9098 6.58658C17.9437 6.50497 17.9592 6.41694 17.9552 6.3287C17.9574 6.27136 17.9487 6.21413 17.9294 6.16004C17.9135 6.11904 17.8846 6.0843 17.8472 6.06104C17.8003 6.03175 17.7482 6.01183 17.6937 6.00238C17.6299 5.98771 17.5501 5.97182 17.4543 5.95227C17.2542 5.91438 17.086 5.88015 16.9448 5.85082C16.8263 5.82906 16.7114 5.79079 16.6036 5.73716C16.5226 5.69692 16.4565 5.63235 16.4145 5.55261C16.371 5.45464 16.3508 5.34797 16.3556 5.24095C16.3538 5.14872 16.3753 5.05752 16.4182 4.97574C16.4628 4.89773 16.5255 4.83151 16.6011 4.78263C16.6829 4.7275 16.7734 4.68621 16.8687 4.66042C16.9743 4.63397 17.0828 4.62083 17.1916 4.6213C17.2751 4.6213 17.3598 4.62131 17.447 4.63108C17.5341 4.64086 17.6176 4.64575 17.6925 4.65675C17.7674 4.66775 17.8496 4.68364 17.9196 4.69953C17.9818 4.71355 18.0422 4.73403 18.1001 4.76064L17.992 4.95007Z" fill="#F4EFDC"/>
<path opacity="0.4" d="M18.6374 6.23388V6.01022H19.509V6.23388H18.6374Z" fill="#F4EFDC"/>
<path opacity="0.4" d="M20.1581 6.66C20.196 6.67568 20.235 6.68874 20.2747 6.6991C20.3263 6.71377 20.3815 6.72722 20.4429 6.73944C20.5043 6.75166 20.5657 6.76388 20.6332 6.77244C20.6947 6.77984 20.7566 6.78391 20.8186 6.78466C20.8787 6.78466 20.934 6.78466 20.9855 6.78466C21.0334 6.78265 21.0806 6.77317 21.1255 6.75655C21.1688 6.73903 21.2081 6.71282 21.2409 6.67955C21.2792 6.63671 21.3081 6.58632 21.3256 6.53167C21.3535 6.45245 21.3728 6.37051 21.3833 6.28723C21.3991 6.16564 21.4073 6.04318 21.4078 5.92057C21.3344 5.97083 21.2504 6.00385 21.1623 6.01713C21.0486 6.03439 20.9336 6.04256 20.8186 6.04157C20.6997 6.04308 20.581 6.03408 20.4638 6.01468C20.3717 6.00095 20.2844 5.96485 20.2096 5.90958C20.1387 5.85313 20.0861 5.77699 20.0586 5.6908C20.0217 5.57218 20.0046 5.44829 20.0083 5.32415C20.0055 5.21086 20.0226 5.09797 20.0586 4.99049C20.0877 4.90578 20.14 4.83085 20.2096 4.77416C20.2844 4.71677 20.3713 4.67708 20.4638 4.65806C20.5805 4.63409 20.6994 4.62262 20.8186 4.62384C20.9365 4.62291 21.054 4.63687 21.1684 4.66539C21.2736 4.6923 21.3679 4.75076 21.4385 4.83283C21.5241 4.9369 21.5838 5.05958 21.6129 5.19093C21.6963 5.59821 21.6963 6.01806 21.6129 6.42534C21.5838 6.55668 21.5241 6.67937 21.4385 6.78344C21.3679 6.86551 21.2736 6.92397 21.1684 6.95087C21.054 6.97896 20.9364 6.99251 20.8186 6.99121C20.7523 6.99121 20.6823 6.99121 20.6099 6.98265C20.5374 6.9741 20.4674 6.96799 20.3999 6.95577C20.3354 6.94528 20.2715 6.93141 20.2084 6.91421C20.1571 6.90081 20.1079 6.88023 20.0623 6.8531L20.1581 6.66ZM21.3857 5.38037C21.3782 5.26938 21.3538 5.16018 21.3133 5.05649C21.2881 4.99114 21.2457 4.93374 21.1905 4.89027C21.1412 4.85394 21.0824 4.8327 21.0211 4.82916C20.9573 4.82916 20.8873 4.82183 20.8136 4.82183C20.74 4.82183 20.6553 4.82183 20.589 4.83039C20.5286 4.83428 20.4702 4.85365 20.4196 4.88661C20.3689 4.92262 20.3314 4.97411 20.3128 5.03327C20.2837 5.12572 20.2708 5.22246 20.2747 5.31926C20.2706 5.41807 20.2835 5.51686 20.3128 5.61136C20.3317 5.67204 20.369 5.7254 20.4196 5.76414C20.4697 5.79876 20.5282 5.81943 20.589 5.82402C20.6636 5.83178 20.7386 5.83545 20.8136 5.83503C20.8947 5.83503 20.9696 5.83503 21.0371 5.82647C21.0994 5.82239 21.1599 5.80398 21.2139 5.77269C21.2675 5.74131 21.3104 5.69442 21.3366 5.63825C21.3721 5.55684 21.3904 5.46909 21.3907 5.38037H21.3857Z" fill="#F4EFDC"/>
<path opacity="0.4" d="M22.2158 6.94743L23.155 4.86971H21.8795V4.66316H23.4288V4.86971L22.4933 6.94743H22.2158Z" fill="#F4EFDC"/>
<path opacity="0.4" d="M24.0123 6.94743L24.9502 4.86971H23.6759V4.66316H25.2252V4.86971L24.2897 6.94743H24.0123Z" fill="#F4EFDC"/>
<path opacity="0.4" d="M13.4365 11.2091V10.1091H12.086V11.2091H11.8319V8.93091H12.086V9.89521H13.4365V8.93091H13.6894V11.2091H13.4365Z" fill="#F4EFDC"/>
<path opacity="0.4" d="M14.2576 11.2093V8.93118H15.182C15.3241 8.9292 15.4661 8.93819 15.6068 8.95807C15.7058 8.96997 15.8002 9.00608 15.8818 9.06317C15.9535 9.11998 16.0055 9.19779 16.0303 9.28561C16.0893 9.53438 16.0893 9.79338 16.0303 10.0421C16.0061 10.1296 15.954 10.2068 15.8818 10.2621C15.7999 10.3184 15.7055 10.3541 15.6068 10.366C15.466 10.3853 15.3241 10.3943 15.182 10.3929H14.5142V11.2093H14.2576ZM15.8044 9.65349C15.8079 9.55576 15.7963 9.45806 15.7701 9.36383C15.7533 9.30114 15.7156 9.24597 15.6632 9.20739C15.6059 9.17039 15.5399 9.14891 15.4717 9.14506C15.3932 9.13772 15.2986 9.13406 15.1869 9.13406H14.5117V10.19H15.1906C15.3023 10.19 15.3968 10.19 15.4754 10.179C15.5433 10.1753 15.6091 10.1547 15.6669 10.1191C15.719 10.0818 15.7567 10.0279 15.7737 9.96637C15.8002 9.87133 15.8118 9.77281 15.8081 9.67427L15.8044 9.65349Z" fill="#F4EFDC"/>
<path opacity="0.4" d="M16.2092 11.2085V11.0069H16.7555V9.13691L16.3209 9.25057L16.2669 9.05869L17.0134 8.85948V11.0105H17.5695V11.2085H16.2092Z" fill="#F4EFDC"/>
<path opacity="0.4" d="M17.884 11.2087V10.616C17.882 10.536 17.8953 10.4563 17.9233 10.3813C17.9476 10.3208 17.9835 10.2656 18.0289 10.2187C18.0741 10.1745 18.1269 10.1385 18.1848 10.1124C18.2464 10.0846 18.31 10.0613 18.3751 10.0427C18.4426 10.0244 18.5138 10.0073 18.5862 9.99141C18.6586 9.97552 18.7311 9.95964 18.8023 9.94008C18.8735 9.92053 18.9545 9.89975 19.0085 9.88142C19.0566 9.8676 19.1016 9.84479 19.1411 9.8142C19.1751 9.7867 19.1999 9.74964 19.2123 9.70786C19.229 9.64947 19.2364 9.58887 19.2344 9.52821C19.2415 9.46458 19.2331 9.4002 19.21 9.34045C19.187 9.28071 19.1499 9.22732 19.1018 9.18477C18.9857 9.11209 18.8495 9.07786 18.7127 9.087C18.6507 9.08774 18.5888 9.09182 18.5273 9.09922C18.461 9.10777 18.3959 9.11878 18.3345 9.13222C18.2732 9.14566 18.2118 9.15789 18.1651 9.17255C18.1233 9.18243 18.0822 9.19549 18.0424 9.21166L17.9503 9.02344C17.998 8.99532 18.0497 8.97471 18.1037 8.96233C18.1676 8.94645 18.2363 8.93178 18.31 8.91956C18.3837 8.90734 18.4585 8.89878 18.5359 8.89389C18.6132 8.889 18.6832 8.88411 18.7495 8.88411C18.8404 8.88395 18.9311 8.89131 19.0208 8.90611C19.1056 8.91896 19.1867 8.94936 19.259 8.99534C19.3321 9.04309 19.3907 9.10987 19.4284 9.18844C19.4754 9.29407 19.4973 9.4091 19.4922 9.52454C19.4963 9.63031 19.4792 9.73584 19.4419 9.83498C19.4091 9.91131 19.3544 9.97634 19.2848 10.022C19.1988 10.0754 19.1047 10.1146 19.0061 10.1381C18.8919 10.1674 18.7605 10.2016 18.596 10.2383L18.3959 10.2921C18.3459 10.3059 18.2982 10.3273 18.2547 10.3556C18.2183 10.3821 18.1898 10.418 18.1725 10.4595C18.1529 10.514 18.1437 10.5716 18.1455 10.6294V11.0034H19.4959V11.2087H17.884Z" fill="#F4EFDC"/>
</g>
<path d="M174.127 13.5462C174.134 13.5535 174.141 13.5611 174.148 13.5691C174.156 13.5796 174.164 13.5907 174.172 13.6023C174.179 13.6153 174.183 13.6301 174.182 13.6451C174.136 13.7587 174.081 14.0412 174.016 14.4927C174.007 14.5193 173.993 14.5665 173.974 14.6402C173.941 14.765 173.921 14.8929 173.916 15.0216C173.905 15.1876 173.894 15.2997 173.884 15.3566C173.829 15.7761 173.802 15.9895 173.802 15.9969C173.783 16.0638 173.769 16.1318 173.76 16.2005C173.751 16.2706 173.743 16.348 173.736 16.4306C173.729 16.5133 173.723 16.5782 173.719 16.6276C173.704 16.8181 173.674 17.0072 173.629 17.1934C173.558 17.4588 173.521 17.7312 173.518 18.0049C173.524 18.1233 173.505 18.2416 173.463 18.3531C173.431 18.4284 173.416 18.5089 173.418 18.5899C173.418 18.691 173.411 18.7566 173.407 18.7876C173.383 19.0373 173.335 19.2843 173.262 19.5253C173.207 19.6896 173.135 19.8482 173.047 19.9989C173.029 20.0528 172.999 20.1024 172.959 20.1442C172.918 20.1861 172.869 20.2193 172.814 20.2416L172.8 20.2483C172.796 20.2499 172.793 20.2526 172.79 20.2562C172.788 20.2597 172.786 20.2639 172.786 20.2682C172.782 20.2854 172.775 20.302 172.766 20.3176C172.757 20.3331 172.748 20.3464 172.741 20.3567C172.731 20.3711 172.718 20.3834 172.703 20.3928C172.69 20.4023 172.678 20.4124 172.666 20.4231C172.651 20.435 172.635 20.4458 172.618 20.4556C172.602 20.4644 172.587 20.4742 172.573 20.4851C172.157 20.7889 171.651 20.9594 171.126 20.9719C171.016 20.9762 170.905 20.974 170.794 20.9653C170.674 20.9565 170.579 20.9491 170.507 20.9424C170.435 20.9358 170.323 20.921 170.168 20.8996C170.014 20.8783 169.913 20.8642 169.867 20.8598C169.848 20.8476 169.83 20.8333 169.815 20.817C169.798 20.7977 169.775 20.7848 169.749 20.7809H169.538C169.497 20.7553 169.421 20.7147 169.31 20.6592C169.223 20.6195 169.142 20.57 169.068 20.5116C168.805 20.2792 168.63 19.9709 168.569 19.6345C168.536 19.4464 168.546 19.2537 168.597 19.0694C168.602 19.0473 168.607 19.0148 168.614 18.9706C168.621 18.9263 168.628 18.8872 168.632 18.8525C168.636 18.822 168.638 18.7912 168.639 18.7603C168.643 18.7111 168.669 18.5358 168.716 18.2343L168.841 17.1558C168.86 16.9193 168.918 16.5258 169.014 15.9755C169.069 15.6815 169.095 15.3835 169.094 15.0851C169.096 14.9466 169.119 14.8091 169.163 14.6771C169.215 14.5301 169.255 14.3794 169.282 14.2264C169.287 14.1772 169.296 14.1005 169.31 13.9962C169.324 13.8907 169.333 13.8103 169.338 13.7528C169.338 13.7199 169.347 13.6876 169.364 13.6588C169.381 13.6301 169.405 13.6058 169.434 13.5883C169.403 13.4425 169.399 13.2928 169.421 13.1457C169.431 13.0244 169.447 12.9038 169.469 12.7842C169.497 12.6263 169.513 12.526 169.517 12.4817L169.719 11.4489C169.727 11.4078 169.739 11.3671 169.753 11.3272C169.767 11.2874 169.779 11.2468 169.788 11.2055C169.792 11.1701 169.802 11.1126 169.816 11.0314C169.826 10.9739 169.833 10.9157 169.836 10.8573C169.833 10.7977 169.826 10.7383 169.816 10.6795C169.855 10.6544 169.889 10.622 169.916 10.5844C169.945 10.5408 169.969 10.4946 169.988 10.4464C170.004 10.4067 170.022 10.3683 170.044 10.3313C170.291 9.89706 170.683 9.57247 171.22 9.35756C171.447 9.27004 171.669 9.17155 171.885 9.06248C172.049 9.07151 172.214 9.04893 172.369 8.99608C172.425 8.97838 172.552 8.99166 172.75 9.03592C172.879 9.05313 173.054 9.07059 173.276 9.0883C173.314 9.09189 173.351 9.10084 173.387 9.11485C173.427 9.13234 173.467 9.15307 173.504 9.17682C173.55 9.20559 173.578 9.22182 173.587 9.22625C173.596 9.23067 173.665 9.26682 173.77 9.32141C173.85 9.36244 173.928 9.4075 174.003 9.45641C174.267 9.63427 174.456 9.89584 174.536 10.1941C174.573 10.4404 174.58 10.6899 174.557 10.9377C174.547 11.0901 174.526 11.2417 174.495 11.3914C174.485 11.4526 174.461 11.5744 174.422 11.7558C174.382 11.9373 174.354 12.0915 174.335 12.2162C174.317 12.3383 174.31 12.4617 174.314 12.585C174.314 12.5939 174.301 12.6507 174.273 12.7562C174.255 12.8476 174.234 13.0321 174.21 13.308C174.21 13.3168 174.21 13.333 174.214 13.3574C174.217 13.3748 174.217 13.3924 174.214 13.4098C174.214 13.4208 174.208 13.4363 174.203 13.4562C174.2 13.4752 174.191 13.4931 174.179 13.5086C174.165 13.5243 174.147 13.5371 174.127 13.5462ZM171.532 19.273C171.569 19.2015 171.588 19.1226 171.587 19.0429C171.596 18.9993 171.616 18.9211 171.646 18.8097C171.676 18.6983 171.698 18.6002 171.712 18.5147C171.726 18.4342 171.733 18.3528 171.733 18.2712C171.742 18.1729 171.762 18.0305 171.795 17.8441C171.827 17.656 171.848 17.5151 171.857 17.4236L171.905 17.3314C171.936 17.2478 171.959 17.1619 171.974 17.0747C172.03 16.5578 172.076 16.1852 172.113 15.957C172.178 15.5951 172.24 15.1903 172.3 14.7428C172.318 14.5849 172.354 14.3493 172.407 14.0361C172.461 13.7228 172.497 13.4872 172.515 13.3293C172.57 12.8646 172.621 12.5162 172.67 12.284C172.728 11.8675 172.775 11.5805 172.812 11.4231C172.817 11.4054 172.826 11.3641 172.84 11.2985C172.854 11.2328 172.863 11.1841 172.867 11.1509C172.872 11.1177 172.876 11.0771 172.881 11.0292C172.886 10.9833 172.886 10.9371 172.881 10.8912C172.877 10.8498 172.867 10.809 172.853 10.7695C172.849 10.7562 172.863 10.7253 172.895 10.6773C172.867 10.6824 172.837 10.6777 172.812 10.664C172.786 10.6504 172.763 10.6327 172.744 10.6117C172.729 10.593 172.711 10.5764 172.692 10.5622C172.506 10.5549 172.321 10.5352 172.138 10.5032C172.125 10.5076 172.08 10.5276 172.004 10.5622C171.941 10.5915 171.877 10.6174 171.812 10.6397C171.623 10.6972 171.529 10.813 171.529 10.9886C171.533 11.0041 171.534 11.0202 171.531 11.0361C171.529 11.0519 171.523 11.0671 171.515 11.0808C171.51 11.1244 171.501 11.1893 171.487 11.2748C171.474 11.3604 171.465 11.4224 171.463 11.4652C171.462 11.5252 171.467 11.5851 171.477 11.6444C171.451 11.6908 171.432 11.7405 171.421 11.792C171.388 11.8966 171.375 12.0055 171.379 12.1144C171.383 12.2143 171.369 12.3141 171.338 12.4094C171.301 12.5496 171.28 12.6352 171.275 12.6662L171.026 14.3813C171.022 14.4157 170.996 14.5439 170.949 14.7657C170.906 14.9272 170.883 15.0927 170.88 15.2592C170.885 15.3418 170.88 15.4246 170.866 15.5063C170.853 15.5911 170.83 15.6959 170.801 15.8184C170.771 15.9408 170.751 16.0242 170.742 16.0684C170.732 16.1557 170.717 16.2423 170.697 16.3281C170.677 16.4148 170.662 16.5025 170.652 16.5907C170.649 16.6775 170.653 16.7644 170.666 16.8504C170.666 16.8681 170.65 16.8821 170.618 16.8932C170.586 16.9043 170.573 16.9205 170.583 16.9426C170.602 16.9403 170.622 16.945 170.638 16.9559C170.607 17.3047 170.556 17.6515 170.483 17.9946C170.448 18.1376 170.422 18.2824 170.405 18.4283C170.402 18.6187 170.379 18.8083 170.336 18.9942C170.319 19.0668 170.315 19.1415 170.322 19.2155C170.488 19.4043 170.654 19.5106 170.82 19.5445C171.014 19.5747 171.169 19.5511 171.286 19.4707L171.386 19.3815C171.432 19.3417 171.48 19.3054 171.532 19.273V19.273Z" fill="#FFF9F0"/>
<path d="M174.57 20.8253C174.588 20.7888 174.596 20.7481 174.595 20.7071V20.617C174.612 20.5225 174.653 20.2447 174.717 19.7836C174.721 19.7421 174.721 19.7001 174.717 19.6586C174.708 19.6174 174.708 19.5748 174.717 19.5336C174.788 19.3942 174.801 19.2881 174.767 19.2162C174.843 18.97 174.895 18.7161 174.921 18.4586C174.963 18.1207 174.986 17.9366 174.992 17.9047C175.119 17.2522 175.202 16.5909 175.24 15.9259C175.237 15.7467 175.245 15.5675 175.265 15.3895L175.513 13.7553C175.561 13.4629 175.62 13.0422 175.689 12.4932C175.758 11.9442 175.799 11.6217 175.813 11.5257C175.909 10.8459 175.974 10.3822 176.011 10.1348C176.059 9.8568 176.085 9.57493 176.087 9.29229C176.084 9.2859 176.083 9.27891 176.083 9.27184C176.083 9.26476 176.084 9.25778 176.087 9.25138C176.097 9.23988 176.107 9.2297 176.119 9.22108C176.131 9.21345 176.141 9.20308 176.148 9.19078C176.138 9.1569 176.136 9.12122 176.141 9.08626C176.146 9.0513 176.158 9.01792 176.177 8.98849C176.676 9.03643 177.178 9.04529 177.679 9.01501C177.706 9.03995 177.727 9.07138 177.74 9.1067C177.753 9.14202 177.759 9.1802 177.755 9.21805C177.752 9.32442 177.743 9.43047 177.727 9.53549C177.707 9.67489 177.696 9.77413 177.691 9.83247C177.683 9.93171 177.663 10.0855 177.631 10.2954C177.598 10.5052 177.578 10.6628 177.571 10.7711C177.549 10.9378 177.515 11.1866 177.468 11.5174C177.422 11.8482 177.387 12.0969 177.366 12.2636C177.302 12.6596 177.27 12.8937 177.271 12.9659C177.264 13.0469 177.247 13.1265 177.219 13.2023C177.182 13.3571 177.156 13.515 177.143 13.6743C177.188 13.6082 177.219 13.532 177.232 13.4515C177.284 13.33 177.343 13.2117 177.408 13.097C177.477 12.9781 177.535 12.8529 177.583 12.7227C177.604 12.647 177.641 12.5394 177.694 12.4015C177.747 12.2636 177.777 12.1871 177.781 12.1689C177.789 12.1371 177.855 11.9929 177.978 11.7363C178 11.6583 178.031 11.5835 178.071 11.5136C178.115 11.4383 178.143 11.3529 178.151 11.2643C178.224 11.168 178.277 11.0562 178.307 10.9363C178.334 10.8207 178.383 10.7119 178.45 10.6158C178.497 10.4582 178.577 10.2343 178.689 9.94383C178.801 9.65367 178.877 9.45442 178.915 9.34608C178.929 9.29159 178.956 9.24161 178.992 9.20043C179.029 9.15926 179.074 9.12812 179.125 9.10971C179.204 9.07623 179.289 9.06249 179.374 9.06956C179.657 9.12189 179.946 9.13082 180.232 9.09607C180.304 9.08435 180.377 9.09705 180.441 9.13232C180.505 9.1676 180.557 9.22362 180.59 9.29229C180.395 9.67968 180.246 10.0014 180.143 10.2575C180.118 10.3141 180.089 10.3683 180.055 10.4196C180.022 10.4683 179.994 10.5203 179.972 10.5749C179.942 10.7153 179.842 10.9517 179.672 11.284C179.629 11.379 179.543 11.5545 179.414 11.8106C179.284 12.0674 179.191 12.2651 179.136 12.4121C179.103 12.4932 179.046 12.6265 178.967 12.8136C178.889 13.0008 178.824 13.1637 178.767 13.3031C178.709 13.4425 178.665 13.5758 178.623 13.7016C178.599 13.8125 178.561 13.9194 178.509 14.019C178.428 14.1629 178.354 14.3116 178.289 14.4645C178.206 14.6539 178.146 14.791 178.101 14.8766C178.154 15.0671 178.194 15.2613 178.222 15.4577C178.298 15.8941 178.337 16.1191 178.337 16.1327L178.445 16.8418C178.456 16.9109 178.473 16.9786 178.496 17.0441C178.523 17.1197 178.536 17.1999 178.534 17.2805C178.538 17.411 178.552 17.541 178.576 17.6691C178.603 17.8328 178.619 17.9313 178.623 17.9623C178.654 18.1738 178.703 18.3818 178.77 18.5836C178.835 18.8226 178.883 19.0665 178.913 19.3131C178.922 19.3899 178.996 19.8558 179.136 20.7109C179.149 20.7582 179.144 20.8088 179.123 20.8526C179.064 20.9064 178.956 20.9337 178.799 20.9337C178.782 20.9323 178.766 20.929 178.751 20.9238C178.729 20.9169 178.706 20.9156 178.684 20.92C178.644 20.9385 178.603 20.95 178.56 20.9541C178.515 20.9587 178.46 20.9617 178.397 20.964C178.333 20.9662 178.289 20.97 178.263 20.9738C178.173 20.9755 178.084 20.9677 177.995 20.9503C177.903 20.932 177.809 20.9264 177.715 20.9337C177.679 20.941 177.642 20.939 177.607 20.9278C177.572 20.9166 177.54 20.8965 177.514 20.8693C177.486 20.8425 177.464 20.8098 177.449 20.7732C177.434 20.7366 177.427 20.697 177.428 20.6571V20.5056C177.411 20.4338 177.402 20.3604 177.399 20.2867C177.397 20.2096 177.385 20.1332 177.364 20.0594C177.349 19.9783 177.343 19.8957 177.345 19.8132C177.347 19.7467 177.345 19.6801 177.339 19.6139C177.33 19.5776 177.327 19.5397 177.332 19.5025C177.339 19.4722 177.336 19.4406 177.326 19.4116C177.257 19.1948 177.213 18.9703 177.192 18.7427L177.154 18.3714C177.154 18.3623 177.145 18.2904 177.129 18.1555C177.112 18.0529 177.108 17.9486 177.116 17.8449C177.111 17.8319 177.109 17.818 177.109 17.804C177.11 17.7903 177.108 17.7765 177.103 17.7638C177.069 17.624 177.045 17.4817 177.031 17.3381C177.01 17.1494 176.997 17.0411 176.993 17.0138C176.976 16.8971 176.942 16.7032 176.891 16.4335C176.861 16.2662 176.844 16.0968 176.84 15.9266C176.84 15.9001 176.832 15.8865 176.815 15.8865C176.785 15.8865 176.769 15.9001 176.769 15.9266C176.77 16.1019 176.758 16.277 176.732 16.4501C176.702 16.682 176.685 16.8206 176.681 16.8653C176.656 17.1152 176.618 17.3633 176.566 17.6085C176.502 17.9328 176.462 18.1692 176.445 18.3176C176.41 18.6502 176.381 18.9002 176.355 19.0669C176.351 19.1033 176.348 19.1556 176.346 19.2253C176.344 19.295 176.34 19.3586 176.336 19.4147C176.332 19.4707 176.325 19.5238 176.317 19.573C176.273 19.7631 176.252 19.9583 176.253 20.1541C176.253 20.1859 176.248 20.2776 176.237 20.4306C176.223 20.5224 176.223 20.6161 176.237 20.7079C176.243 20.7336 176.242 20.7605 176.234 20.7855C176.226 20.8106 176.212 20.8327 176.192 20.8496C175.979 20.8794 175.764 20.8895 175.549 20.8799C175.325 20.8837 175.101 20.8735 174.879 20.8496C174.836 20.8688 174.791 20.8826 174.745 20.8905C174.64 20.8526 174.578 20.8299 174.57 20.8253Z" fill="#FFF9F0"/>
<path d="M71.1453 19.7825V10.3793H72.9644V19.7825H71.1453ZM72.4829 19.7825V18.164H77.2714V19.7825H72.4829ZM84.2909 19.9296C83.6043 19.9296 82.9623 19.8048 82.3648 19.5551C81.7763 19.3054 81.2591 18.9621 80.8132 18.5252C80.3763 18.0793 80.033 17.5621 79.7833 16.9736C79.5336 16.3761 79.4088 15.7385 79.4088 15.0608C79.4088 14.3831 79.5291 13.7545 79.7699 13.1748C80.0196 12.5863 80.3629 12.0736 80.7998 11.6366C81.2457 11.1908 81.7629 10.8475 82.3514 10.6067C82.94 10.357 83.5775 10.2322 84.2642 10.2322C84.9597 10.2322 85.6017 10.357 86.1903 10.6067C86.7788 10.8475 87.2916 11.1908 87.7285 11.6366C88.1744 12.0736 88.5221 12.5863 88.7718 13.1748C89.0215 13.7634 89.1463 14.3965 89.1463 15.0742C89.1463 15.7519 89.0215 16.385 88.7718 16.9736C88.5221 17.5621 88.1744 18.0793 87.7285 18.5252C87.2916 18.9621 86.7788 19.3054 86.1903 19.5551C85.6107 19.8048 84.9775 19.9296 84.2909 19.9296ZM84.2642 18.2309C84.8705 18.2309 85.3966 18.0971 85.8425 17.8296C86.2884 17.5621 86.6361 17.192 86.8858 16.7194C87.1444 16.2468 87.2737 15.694 87.2737 15.0608C87.2737 14.5971 87.2024 14.1736 87.0597 13.7901C86.917 13.4067 86.7119 13.0768 86.4444 12.8003C86.1769 12.515 85.8603 12.2965 85.4947 12.1449C85.1291 11.9933 84.7189 11.9175 84.2642 11.9175C83.6756 11.9175 83.154 12.0513 82.6992 12.3188C82.2533 12.5774 81.9011 12.943 81.6425 13.4156C81.3928 13.8882 81.268 14.4366 81.268 15.0608C81.268 15.5334 81.3393 15.9659 81.482 16.3583C81.6336 16.7506 81.8387 17.085 82.0973 17.3615C82.3648 17.6379 82.6814 17.8519 83.047 18.0035C83.4215 18.1551 83.8272 18.2309 84.2642 18.2309ZM91.1922 19.7825L94.9775 10.3793H96.4623L100.234 19.7825H98.2947L95.3788 12.0647H96.0476L93.0916 19.7825H91.1922ZM93.1986 18.0303V16.5054H98.2546V18.0303H93.1986ZM104.528 19.7825V18.164H106.923C107.529 18.164 108.059 18.0392 108.514 17.7895C108.969 17.5309 109.321 17.1697 109.571 16.7061C109.83 16.2424 109.959 15.694 109.959 15.0608C109.959 14.4455 109.83 13.9105 109.571 13.4557C109.312 12.992 108.956 12.6354 108.501 12.3857C108.046 12.1271 107.52 11.9978 106.923 11.9978H104.488V10.3793H106.949C107.645 10.3793 108.287 10.4952 108.875 10.7271C109.473 10.9589 109.99 11.2889 110.427 11.7169C110.873 12.136 111.216 12.6309 111.457 13.2016C111.707 13.7723 111.831 14.3965 111.831 15.0742C111.831 15.7519 111.707 16.3806 111.457 16.9602C111.216 17.5309 110.877 18.0303 110.44 18.4583C110.003 18.8774 109.486 19.2029 108.889 19.4347C108.3 19.6666 107.663 19.7825 106.976 19.7825H104.528ZM103.284 19.7825V10.3793H105.103V19.7825H103.284ZM115.216 19.7825V10.3793H117.036V19.7825H115.216ZM120.905 19.7825V10.3793H122.176L122.724 12.1984V19.7825H120.905ZM127.405 19.7825L121.828 12.5596L122.176 10.3793L127.753 17.6022L127.405 19.7825ZM127.405 19.7825L126.884 18.0169V10.3793H128.716V19.7825H127.405ZM136.91 19.9162C136.241 19.9162 135.612 19.7959 135.024 19.5551C134.444 19.3054 133.931 18.9576 133.486 18.5118C133.049 18.0659 132.705 17.5532 132.456 16.9736C132.215 16.385 132.095 15.7519 132.095 15.0742C132.095 14.3876 132.219 13.7545 132.469 13.1748C132.719 12.5863 133.067 12.0736 133.512 11.6366C133.958 11.1908 134.48 10.8475 135.077 10.6067C135.675 10.357 136.321 10.2322 137.017 10.2322C137.793 10.2322 138.506 10.3793 139.157 10.6736C139.808 10.9589 140.347 11.3647 140.775 11.8908L139.545 13.1213C139.251 12.7379 138.885 12.4436 138.448 12.2385C138.011 12.0334 137.53 11.9309 137.003 11.9309C136.406 11.9309 135.875 12.0647 135.412 12.3322C134.957 12.5908 134.6 12.9564 134.342 13.429C134.083 13.8927 133.954 14.4366 133.954 15.0608C133.954 15.685 134.079 16.2379 134.328 16.7194C134.587 17.192 134.935 17.5621 135.372 17.8296C135.817 18.0971 136.326 18.2309 136.896 18.2309C137.485 18.2309 137.989 18.1239 138.408 17.9099C138.827 17.6869 139.148 17.3659 139.371 16.9468C139.594 16.5188 139.705 15.9971 139.705 15.3818L140.896 16.1978L136.789 16.1576V14.5793H141.578V14.8334C141.578 15.957 141.377 16.8978 140.976 17.6557C140.575 18.4048 140.022 18.971 139.317 19.3545C138.622 19.729 137.819 19.9162 136.91 19.9162Z" fill="#008056"/>
</g>
<defs>
<clipPath id="clip0_763_2269">
<rect width="197.957" height="29" rx="5" fill="white"/>
</clipPath>
</defs>
</svg>
