<svg width="339" height="24" viewBox="0 0 339 24" fill="none" xmlns="http://www.w3.org/2000/svg">
<path d="M335.956 -3.73694e-06L230.446 8.75052e-07C220.301 1.31851e-06 209.818 1.6 199.334 0.533334C188.513 -0.266664 177.353 0.266668 166.193 0.266669C164.841 0.266669 163.488 0.533336 162.474 0.800003C156.386 2.4 150.299 1.86667 144.55 1.33334C134.405 0.533337 131.023 0.26667 122.231 0.800005C118.173 1.06667 114.453 1.06667 110.733 1.06667C106.337 1.33334 101.94 1.86667 97.5442 1.86667C85.7082 1.86667 73.5339 0.266673 61.3597 0.266673C60.3452 0.266673 58.6543 0.266673 57.9779 0.533341C54.9344 2.13334 52.5672 1.06667 49.5236 0.800008C46.8182 0.800008 43.7747 -0.266658 40.7311 1.33334C39.3784 1.86667 37.6875 1.60001 35.9967 1.60001L21.7934 1.60001C15.3681 1.60001 8.94282 1.33334 2.8557 1.60001L0.150304 4.00001L1.503 7.73334C1.16483 9.60001 -0.526034 8.80001 0.826642 10.9333C1.503 11.4667 1.16483 12.2667 0.826642 13.0667C-0.864223 17.6 0.150305 18.6667 2.8557 22.9333C11.9864 23.2 20.7789 23.4667 30.2477 22.4C31.2623 23.2 33.6295 22.9333 35.6585 23.2L41.7456 24L47.8328 23.2C51.8908 23.2 56.2871 23.4667 60.007 22.9333C64.0651 22.1333 68.1232 23.4667 72.1812 22.9333C74.2103 22.6667 76.9157 23.4667 78.6065 22.6667C80.6356 21.6 82.6646 22.9333 84.6936 22.1333C86.7227 21.3333 88.7517 22.6667 91.1189 21.8667C93.148 21.3333 95.5152 21.8667 97.5442 21.8667C100.25 21.6 102.617 22.4 104.984 22.6667C108.028 21.3333 111.071 21.8667 114.453 21.8667L209.48 21.8667C213.2 21.8667 216.581 21.3333 219.963 22.1333C223.007 22.6667 226.05 20.8 229.094 22.4C238.224 21.0667 247.693 21.8667 257.162 21.8667C270.013 21.6 282.525 21.3333 295.376 21.8667C301.125 21.8667 306.874 21.6 312.284 21.6L334.266 21.6C334.942 21.6 335.618 21.3333 336.295 21.3333C337.309 20.5333 338.662 19.7333 339 18.4C336.295 11.2 337.309 9.33332 337.985 1.59999L335.956 -3.73694e-06Z" fill="#19AB6E"/>
</svg>
