<svg width="288" height="539" viewBox="0 0 288 539" fill="none" xmlns="http://www.w3.org/2000/svg">
<g style="mix-blend-mode:multiply">
<path d="M0.402344 532.943C1.24758 531.306 1.66455 529.481 1.61432 527.64V523.55C2.37179 519.309 4.34117 506.886 7.37105 486.283C7.6658 484.426 7.6658 482.534 7.37105 480.677C7.02238 478.825 7.02238 476.924 7.37105 475.072C10.7039 468.709 11.4614 464.013 9.795 460.832C13.4496 449.767 15.8878 438.338 17.0666 426.746C19.1876 411.596 20.248 403.264 20.3995 401.9C26.4032 372.564 30.4018 342.853 32.3676 312.973C32.1706 304.825 32.5758 296.672 33.5795 288.583L45.396 215.108C47.517 202.08 50.3954 183.143 53.7282 158.45C57.0611 133.756 59.0305 119.213 59.6365 114.971C64.0298 84.6721 67.2111 63.6144 69.029 52.4038C71.3871 39.9158 72.6042 27.239 72.665 14.5304C72.665 13.6214 72.665 13.0155 72.665 12.7125C73.0602 12.1492 73.5782 11.6835 74.1799 11.3496C74.7117 10.9797 75.1734 10.5176 75.5433 9.98575C75.063 8.47497 74.9226 6.87658 75.1322 5.30519C75.3417 3.73381 75.8959 2.22864 76.7553 0.896484C100.583 2.98102 124.528 3.38534 148.412 2.10777C149.704 3.21924 150.709 4.62632 151.341 6.20857C151.974 7.79083 152.217 9.50221 152.048 11.198C151.909 15.9697 151.453 20.727 150.684 25.4384C149.775 31.6497 149.169 36.1946 149.018 38.77C148.866 41.3453 147.654 50.1319 146.139 59.5245C144.625 68.9172 143.716 76.1886 143.261 81.0364C142.201 88.4596 140.686 99.6705 138.413 114.517C136.141 129.363 134.474 140.573 133.565 148.148C130.536 165.873 129.021 176.478 129.021 179.659C128.675 183.284 127.86 186.849 126.597 190.264C124.728 197.205 123.511 204.305 122.961 211.472C125.127 208.511 126.579 205.09 127.203 201.474C129.646 196.003 132.428 190.691 135.535 185.568C138.82 180.229 141.609 174.599 143.867 168.751C145.379 163.863 147.149 159.06 149.169 154.36C150.725 150.902 152.091 147.362 153.26 143.755C153.26 142.392 156.744 135.877 162.652 124.363C163.773 120.89 165.245 117.54 167.046 114.365C169.192 110.988 170.492 107.142 170.833 103.155C174.389 98.7109 176.923 93.5388 178.256 88.0055C179.468 82.5425 181.789 77.3864 185.073 72.8561C187.346 65.7359 191.133 55.5858 196.587 42.5573C202.041 29.5288 205.525 20.5904 207.343 15.7426C207.984 13.2768 209.236 11.0127 210.983 9.15911C212.731 7.30552 214.918 5.92217 217.342 5.13783C221.07 3.56706 225.13 2.94263 229.158 3.31998C242.723 5.60477 256.537 6.01284 270.213 4.53219C273.607 4.01066 277.079 4.58038 280.129 6.15956C283.178 7.73875 285.647 10.2461 287.18 13.3191C277.788 30.7409 270.819 45.1326 265.971 56.6461C264.688 59.1752 263.22 61.6054 261.578 63.9175C260.028 66.152 258.708 68.538 257.639 71.0382C254.179 82.1733 249.398 92.8535 243.399 102.852C241.379 107.093 237.288 114.971 231.128 126.485C226.237 135.274 221.837 144.326 217.948 153.602L209.918 171.629C206.131 179.962 202.95 186.779 200.374 193.596C197.799 200.413 195.526 205.867 193.709 211.472C192.466 216.468 190.635 221.3 188.255 225.865C184.261 232.276 180.717 238.958 177.65 245.862C173.711 254.345 170.833 261.011 168.712 264.344C171.29 272.87 173.215 281.582 174.469 290.401C178.105 310.6 179.923 320.7 179.923 320.7L185.073 352.513C185.676 355.61 186.537 358.651 187.649 361.603C188.883 365.001 189.498 368.592 189.467 372.207C189.615 378.111 190.273 383.991 191.436 389.781C192.648 397.053 193.406 401.446 193.709 402.961C195.08 412.465 197.415 421.805 200.677 430.836C203.646 441.629 205.873 452.613 207.343 463.71C207.343 467.043 211.282 488.101 217.948 526.429C218.773 528.469 218.773 530.751 217.948 532.791C213.449 535.68 208.127 537.01 202.798 536.579H200.526C199.484 536.295 198.386 536.295 197.344 536.579C195.479 537.452 193.483 538.014 191.436 538.245H183.558C181.443 538.021 179.311 538.021 177.196 538.245C172.93 538.287 168.67 537.932 164.47 537.184C160.082 536.324 155.596 536.069 151.139 536.427C149.422 536.734 147.655 536.618 145.993 536.09C144.33 535.563 142.821 534.638 141.595 533.397C140.248 532.208 139.183 530.736 138.476 529.085C137.768 527.435 137.436 525.647 137.504 523.853V517.187C136.716 513.96 136.259 510.661 136.141 507.34C136.001 503.902 135.441 500.493 134.474 497.19C133.754 493.549 133.449 489.84 133.565 486.131C133.73 483.154 133.73 480.17 133.565 477.193C133.155 475.552 133.155 473.835 133.565 472.194C133.866 470.847 133.866 469.45 133.565 468.103C130.208 458.303 128.071 448.127 127.203 437.804L125.385 421.14C125.385 421.14 125.385 417.504 124.173 411.445C123.54 406.82 123.54 402.132 124.173 397.507C124.004 396.913 124.004 396.284 124.173 395.689C124.3 395.09 124.3 394.471 124.173 393.872C122.533 387.561 121.418 381.126 120.84 374.632L119.022 359.482C118.113 354.331 116.598 345.544 114.174 333.425C112.776 325.921 111.915 318.327 111.599 310.701C111.599 309.489 111.599 308.883 110.387 308.883C109.175 308.883 108.266 308.883 108.266 310.701C108.382 318.567 107.773 326.428 106.448 334.183C105.085 344.636 104.327 350.847 104.024 352.816C102.852 364.072 101.031 375.251 98.5704 386.297C95.5405 401.446 93.7225 411.445 92.8136 418.11C91.2986 433.26 89.7837 444.318 88.5718 451.741C88.5718 453.458 88.5718 455.883 88.5718 459.014C88.7348 461.839 88.7348 464.672 88.5718 467.497C88.4277 469.888 88.1241 472.267 87.6628 474.617C85.5482 483.139 84.5301 491.895 84.633 500.675C84.633 502.038 84.633 506.28 84.633 513.097C83.9958 517.214 83.9958 521.404 84.633 525.52C84.907 526.673 84.8537 527.879 84.4789 529.003C84.1042 530.127 83.4231 531.124 82.5121 531.882C72.4745 533.252 62.3334 533.708 52.2133 533.245C41.5396 533.52 30.8597 533.065 20.2481 531.882C18.206 532.736 16.0702 533.346 13.8853 533.7L0.402344 532.943Z" fill="#323232"/>
</g>
</svg>
