<svg width="264" height="554" viewBox="0 0 264 554" fill="none" xmlns="http://www.w3.org/2000/svg">
<g style="mix-blend-mode:multiply">
<path d="M243.553 210.688L244.462 211.748L245.523 213.263C245.677 213.911 245.677 214.586 245.523 215.233C242.055 228.097 239.623 241.217 238.251 254.469C237.51 256.652 236.903 258.878 236.433 261.135C234.932 266.881 234.068 272.774 233.858 278.709C233.858 286.385 233.403 291.434 232.494 293.858C230.07 313.401 228.858 323.248 228.858 324.157C227.933 327.218 227.324 330.365 227.04 333.55C227.04 336.731 227.04 340.367 225.98 344.154C224.919 347.942 225.98 350.971 225.98 353.244C225.253 362.008 223.937 370.713 222.041 379.3C218.915 391.53 217.287 404.096 217.193 416.72C217.412 422.178 216.589 427.627 214.769 432.778C213.334 436.229 212.662 439.95 212.8 443.685C212.8 448.432 212.8 451.462 212.8 452.775C211.685 464.302 209.556 475.708 206.437 486.861C203.932 494.411 200.737 501.713 196.893 508.676C196.088 511.179 194.751 513.476 192.972 515.412C191.194 517.347 189.017 518.874 186.591 519.887C186.591 519.887 186.591 519.887 186.591 520.796C186.475 521.615 186.164 522.395 185.682 523.069C185.397 523.712 185.041 524.321 184.622 524.886C184.229 525.583 183.652 526.159 182.956 526.553L181.289 527.916L179.168 529.431L177.199 530.794C158.972 544.865 136.741 552.771 113.723 553.367C109.33 553.367 104.482 553.367 98.5735 553.367L85.9995 552.307L70.8501 550.337L57.6701 548.519L55.3978 546.55C54.1858 545.338 53.2768 544.732 52.5194 544.732H43.2782C41.4603 543.52 38.1274 541.702 33.2796 539.127C29.4452 537.358 25.8761 535.063 22.6751 532.309C11.2154 521.606 3.55684 507.459 0.859919 492.012C-0.606836 483.289 -0.193608 474.354 2.0719 465.803C2.0719 464.894 2.07194 463.38 2.82941 461.259C3.58688 459.138 2.82941 457.472 2.82941 455.805C2.82941 454.139 2.82941 452.775 2.82941 451.563C2.82941 450.351 4.19288 441.262 6.1623 427.324L11.616 377.482C11.616 366.575 14.9488 348.396 19.1907 322.945C21.6091 309.394 22.8258 295.655 22.8266 281.89C22.9288 275.515 23.9492 269.188 25.8564 263.105C28.1759 256.298 29.8994 249.303 31.0073 242.198C31.0073 239.926 31.0072 236.442 32.2191 231.443C33.4311 226.444 33.2796 222.958 33.4311 220.232C33.4766 218.721 33.8859 217.244 34.6244 215.925C35.3628 214.607 36.4086 213.485 37.6729 212.657C36.5314 205.938 36.5314 199.076 37.6729 192.357C37.6729 188.57 38.5819 182.964 39.7938 175.692C41.0058 168.421 41.7632 163.725 41.9147 161.755L50.8529 114.035C51.1687 112.121 51.6762 110.243 52.3679 108.43C52.3679 105.855 53.5798 104.036 53.8828 102.824C54.1858 101.612 53.8828 98.4309 55.0947 94.7951C55.576 92.1419 55.8797 89.4591 56.0037 86.7655C55.8912 84.0208 55.5875 81.2876 55.0947 78.5851C56.8175 77.3432 58.3052 75.8044 59.4881 74.0405C60.73 72.0153 61.7944 69.8867 62.6694 67.678C63.3394 65.8507 64.1499 64.0774 65.0934 62.3752C76.398 41.6512 94.631 25.5632 116.601 16.927C123.57 14.2001 133.266 9.65586 145.84 3.29312C153.04 3.68737 160.247 2.65758 167.049 0.26306C172.669 -0.409696 178.37 0.212064 183.713 2.08091C189.47 2.83838 197.045 3.59544 206.892 4.50441C208.561 4.65539 210.196 5.06449 211.739 5.71662C213.526 6.54493 215.248 7.50716 216.89 8.59504L220.526 10.8678L228.555 15.2608C232.079 17.0932 235.47 19.1683 238.705 21.4716C250.281 29.6385 258.555 41.6749 262.035 55.407C263.734 66.7906 264.04 78.3381 262.944 89.7955C262.496 96.8166 261.585 103.801 260.217 110.702C260.217 113.53 259.157 119.135 257.036 127.517C255.37 136.001 254.006 142.667 253.249 148.727C252.501 154.35 252.197 160.023 252.34 165.694C252.34 165.694 252.34 168.724 250.522 173.572C248.704 178.42 248.855 186.297 247.795 199.023C247.738 199.779 247.738 200.538 247.795 201.295C247.95 202.095 247.95 202.919 247.795 203.719C247.748 204.425 247.748 205.134 247.795 205.84C247.605 206.776 247.206 207.656 246.629 208.416C246.052 209.177 245.312 209.798 244.462 210.233L243.553 210.688ZM129.781 475.348C131.365 471.982 132.193 468.311 132.205 464.591C132.205 462.622 133.417 458.987 134.781 453.836C136.144 448.685 137.053 444.291 137.659 440.353C138.256 436.645 138.56 432.897 138.568 429.142C138.568 424.749 139.78 418.083 141.295 409.448C142.81 400.813 143.567 394.298 144.022 390.056L146.143 385.663C147.434 381.802 148.447 377.853 149.172 373.847C151.596 350.062 153.566 332.792 155.232 322.339C158.111 305.523 160.837 286.738 163.413 266.135C163.413 258.863 165.837 247.956 168.109 233.412C170.382 218.869 172.048 208.112 172.806 200.841C175.229 179.329 177.502 163.27 179.471 152.514C182.198 133.426 184.319 120.095 185.834 112.823C185.834 112.823 185.834 110.096 187.046 107.066C188.258 104.036 188.106 101.764 188.258 100.4C188.373 98.5336 188.373 96.6617 188.258 94.7951C188.562 92.6851 188.562 90.5426 188.258 88.4326C188.087 86.5212 187.68 84.6385 187.046 82.8274C187.232 81.2683 187.863 79.7953 188.864 78.5851C187.695 79.0415 186.397 79.0415 185.228 78.5851C184.125 77.9022 183.151 77.0307 182.35 76.01L180.077 73.7372C171.936 73.4988 163.829 72.5868 155.838 71.0104L149.93 73.7372C147.226 75.1101 144.443 76.324 141.598 77.3729C137.879 78.0391 134.543 80.0717 132.244 83.0706C129.946 86.0695 128.852 89.8185 129.175 93.5829C129.66 94.9552 129.66 96.4528 129.175 97.8251C129.175 99.7946 129.175 102.824 127.963 106.763C127.423 109.666 127.069 112.601 126.903 115.55C126.641 118.321 126.641 121.11 126.903 123.882C125.675 126.051 124.806 128.404 124.327 130.851C122.986 135.785 122.373 140.889 122.509 146C122.746 150.668 122.13 155.339 120.692 159.786C119.177 166.148 118.268 170.088 117.965 171.603L107.057 250.53C107.057 252.045 105.694 257.954 103.573 268.256C101.806 275.655 100.842 283.223 100.694 290.828C101.14 294.602 101.14 298.416 100.694 302.19C100.694 306.129 99.1795 310.977 97.816 317.34C96.4526 323.702 95.6951 326.732 95.2406 328.853C94.7862 330.974 94.3317 335.216 93.2713 340.821C92.4047 344.824 91.7472 348.869 91.3018 352.94C90.9861 356.923 90.9861 360.926 91.3018 364.909C91.3018 365.818 91.3018 366.424 89.1809 366.878C87.06 367.333 87.2115 368.241 87.6659 369.15C88.4567 368.914 89.299 368.914 90.0898 369.15C88.7853 385.272 86.5598 401.306 83.4241 417.174C81.8719 423.758 80.7585 430.439 80.0913 437.171C79.9453 445.935 78.9303 454.664 77.0613 463.228C76.531 466.692 76.531 470.217 77.0613 473.681C82.4372 481.026 90.1171 486.359 98.8765 488.831C102.312 489.656 105.877 489.786 109.363 489.214C112.849 488.641 116.186 487.378 119.177 485.497L123.57 481.408C125.373 479.13 127.46 477.093 129.781 475.348Z" fill="#323232"/>
</g>
</svg>
