<svg width="250" height="537" viewBox="0 0 250 537" fill="none" xmlns="http://www.w3.org/2000/svg">
<g style="mix-blend-mode:multiply">
<path d="M163.383 456.256L140.658 457.165C131.626 457.65 122.574 457.65 113.541 457.165C109.82 456.566 106.006 457.149 102.633 458.831C99.9767 461.649 98.1883 465.173 97.4826 468.981C96.2706 475.646 92.4833 489.13 86.2721 509.279C84.3203 516.54 81.7872 523.632 78.6974 530.487C77.6369 534.123 75.6675 535.486 72.6376 534.123C66.7507 533.285 60.7516 533.751 55.0644 535.487C42.0135 536.699 28.8783 536.699 15.8274 535.487C15.1826 535.114 14.4511 534.918 13.7065 534.918C12.9619 534.918 12.2304 535.114 11.5856 535.487C9.3115 536.16 6.89098 536.16 4.61689 535.487C2.19298 534.578 0.981065 533.669 0.981065 532.608C0.399541 529.555 0.399541 526.42 0.981065 523.367C1.67064 519.451 2.84087 515.635 4.46536 512.005C5.67731 509.127 8.25271 500.946 12.0401 487.16C13.6551 480.478 15.6789 473.901 18.0998 467.466C20.9494 458.879 23.2766 450.126 25.0685 441.257C26.2805 436.409 28.553 429.441 31.8858 420.352C35.2187 411.262 37.4911 404.293 38.703 399.748L43.5508 382.175C43.5508 380.054 45.2173 375.812 46.5808 369.297C47.772 363.874 49.2382 358.514 50.974 353.239C52.2839 349.038 54.0094 344.978 56.1248 341.12C57.3807 338.782 58.1049 336.195 58.2457 333.545C59.2617 326.054 60.883 318.657 63.0935 311.428C65.6689 301.883 67.3354 296.278 67.9413 293.096C68.5473 289.915 69.7593 285.674 72.3347 276.281C74.9101 266.888 76.5765 259.617 77.334 254.617C77.8027 251.433 78.8282 248.356 80.3638 245.527C81.961 241.689 83.2774 237.74 84.3027 233.711C88.5445 214.623 91.1199 203.412 92.1803 201.14C93.3004 198.448 94.5647 195.818 95.9677 193.262C97.7503 190.424 98.8401 187.206 99.149 183.869C99.3836 177.983 100.666 172.186 102.936 166.75C105.44 160.202 107.416 153.465 108.845 146.602C110.966 136.755 112.481 130.089 113.389 126.453C115.849 118.841 117.674 111.038 118.843 103.124C119.701 97.9341 121.123 92.8541 123.085 87.9741C124.649 83.7972 126.628 79.7871 128.993 76.0055C128.946 73.07 129.408 70.1485 130.357 67.3703C131.417 62.371 132.781 56.0082 134.599 48.4335C136.417 40.8588 137.477 35.2538 138.386 31.6179C138.386 31.6179 139.598 27.679 141.719 22.0737L146.264 9.19713C147.341 6.7067 148.884 4.44442 150.809 2.53136C151.349 1.78659 152.097 1.21702 152.959 0.893814C153.821 0.570605 154.759 0.508083 155.656 0.713508C160.912 2.94169 166.708 3.57385 172.321 2.53136C175.239 2.17615 178.189 2.17615 181.107 2.53136C184.033 2.73004 186.968 2.73004 189.894 2.53136C191.701 2.81767 193.541 2.81767 195.348 2.53136C200.963 0.193941 207.191 -0.232177 213.072 1.31915C218.575 2.25803 224.156 2.66415 229.737 2.53136C238.675 2.53136 243.371 2.53162 243.977 3.74357L246.401 5.56142C247.527 6.26971 248.381 7.33653 248.825 8.59056C249.139 9.83346 249.139 11.135 248.825 12.3779C248.825 14.0443 248.825 16.0137 248.825 17.9831C248.825 19.9525 248.825 21.4679 248.825 22.2254C248.829 32.3524 248.222 42.4703 247.007 52.5242C247.191 54.4893 247.191 56.4675 247.007 58.4326C246.558 60.1716 246.558 61.9956 247.007 63.7346C247.224 64.835 247.224 65.9675 247.007 67.0679C246.792 68.3721 246.792 69.7018 247.007 71.006C247.058 71.5373 247.237 72.0492 247.527 72.4974C247.816 72.9456 248.21 73.3176 248.674 73.582C248.22 80.3411 248.22 87.1226 248.674 93.8817C249.584 100.618 249.584 107.446 248.674 114.182C248.195 118.154 247.943 122.15 247.916 126.15C247.916 131.301 247.916 134.786 247.916 136.301C247.916 137.816 247.916 145.39 247.158 156.904C246.524 163.706 246.524 170.552 247.158 177.355C247.158 182.657 247.159 197.807 245.947 222.803C245.648 225.319 245.648 227.862 245.947 230.378C246.692 240.491 246.286 250.656 244.735 260.677V278.553C244.735 282.037 244.735 286.733 244.735 292.642C244.735 298.55 244.735 302.641 244.735 304.762L245.947 326.577C245.947 329.001 245.947 334.303 245.947 341.726C246.401 347.14 246.146 352.588 245.189 357.935C244.584 365.447 244.584 372.997 245.189 380.509C245.285 381.668 245.285 382.833 245.189 383.993C245.189 385.205 245.189 386.719 245.189 388.234C245.126 389.395 245.126 390.559 245.189 391.719C243.814 397.599 243.814 403.716 245.189 409.595C245.971 415.63 245.971 421.74 245.189 427.775V465.8C245.189 468.527 245.189 474.283 245.189 483.069C245.189 491.705 245.189 498.219 245.189 503.067C244.956 508.147 245.363 513.237 246.401 518.216C246.346 519.276 246.346 520.338 246.401 521.398C246.466 522.659 246.466 523.924 246.401 525.185C246.477 526.244 246.477 527.307 246.401 528.366C246.381 529.276 246.119 530.166 245.644 530.942C245.441 531.234 245.168 531.469 244.851 531.628C244.533 531.787 244.18 531.864 243.826 531.851H241.402C240.038 531.851 239.129 531.851 238.675 531.851C235.617 530.05 231.998 529.456 228.525 530.185C225.004 531.144 221.29 531.144 217.769 530.185C213.534 531.179 209.127 531.179 204.892 530.185C200.655 529.887 196.403 529.887 192.166 530.185L175.502 531.396H174.139H172.775C167.776 532.305 164.897 532.305 164.291 531.396C163.685 530.487 164.291 528.215 164.291 523.519V514.126C164.074 511.045 164.486 507.952 165.503 505.036C167.051 500.105 167.051 494.818 165.503 489.887C165.503 487.463 165.503 484.13 165.503 480.039C165.503 475.949 165.503 472.617 165.503 470.193C165.503 467.769 165.503 467.011 165.503 463.981C165.025 461.348 164.316 458.764 163.383 456.256ZM168.23 384.144C168.23 380.206 168.23 372.631 169.594 361.269C170.957 349.907 170.654 341.271 170.654 335.211C170.442 334.417 170.442 333.582 170.654 332.788C170.856 332.362 170.961 331.896 170.961 331.424C170.961 330.952 170.856 330.487 170.654 330.061C170.554 329.821 170.503 329.564 170.503 329.304C170.503 329.044 170.554 328.786 170.654 328.546C170.582 327.891 170.582 327.231 170.654 326.577V325.213C170.654 323.698 170.654 314.911 171.412 298.398C172.169 281.886 171.412 272.19 171.412 269.009C172.399 260.554 172.399 252.013 171.412 243.558C171.412 241.285 172.472 234.014 173.23 221.44C173.987 208.866 174.29 202.201 174.139 200.686C173.972 199.175 173.972 197.65 174.139 196.14C174.139 193.716 174.139 191.292 174.139 188.717V184.626C174.44 178.138 174.034 171.636 172.927 165.236C172.927 164.327 171.563 164.023 170.2 164.023C169.068 165.79 168.249 167.737 167.776 169.78L161.716 194.625C161.592 196.889 161.185 199.129 160.504 201.291C159.879 203.382 159.373 205.506 158.989 207.654C154.135 223.547 150.09 239.677 146.87 255.98C145.809 259.01 142.779 271.13 137.628 292.793C134.84 306.028 131.248 319.081 126.872 331.879V333.697C127.471 335.451 127.66 337.319 127.423 339.158C127.187 340.996 126.532 342.756 125.509 344.302C124.457 346.471 123.937 348.859 123.994 351.27V356.118C123.176 361.351 121.647 366.448 119.449 371.267C117.562 375.917 115.944 380.672 114.601 385.507C119.647 385.223 124.705 385.223 129.751 385.507C137.326 385.507 144.9 385.507 150.809 385.507C156.651 385.917 162.522 385.458 168.23 384.144Z" fill="#323232"/>
</g>
</svg>
