<svg width="231" height="534" viewBox="0 0 231 534" fill="none" xmlns="http://www.w3.org/2000/svg">
<g style="mix-blend-mode:multiply">
<path d="M5.63783 5.86371L12.3036 0.410156C27.453 1.62211 49.571 2.22801 79.4153 2.22801C82.1876 6.44499 83.5655 11.4262 83.3543 16.4685C83.3543 21.0133 83.3543 25.8611 83.3543 30.7089C83.3543 35.5567 84.263 41.0106 85.0205 46.9189C85.7779 52.8271 86.0811 57.523 86.3841 60.7044C86.6871 63.8858 86.384 66.6124 87.4444 71.7632C88.5049 76.914 88.2019 80.7021 88.2019 82.9745C88.2019 85.2469 88.2019 89.0336 88.2019 94.6389C87.5846 102.284 87.9922 109.978 89.4139 117.515C91.4415 132.171 92.4035 146.955 92.2923 161.751V171.598C92.2923 173.416 92.2923 176.749 92.2923 181.142C92.2923 185.536 93.0498 189.019 93.2013 190.989C94.834 189.279 96.1048 187.258 96.9378 185.045C97.7707 182.833 98.1486 180.474 98.0489 178.112C98.4955 173.887 99.5678 169.751 101.23 165.841C102.615 162.384 103.779 158.841 104.715 155.236C106.996 147.329 109.676 139.543 112.744 131.907C115.903 124.185 118.634 116.296 120.925 108.274C123.5 97.5176 129.257 77.9748 138.043 50.4029C144.709 29.4968 149.759 14.0445 153.193 4.04586L155.617 1.0158C160.641 0.305042 165.741 0.305042 170.766 1.0158C175.806 1.46758 180.876 1.46758 185.915 1.0158C201.065 1.0158 211.669 1.0158 219.093 1.0158C221.186 0.594517 223.352 0.706815 225.39 1.3422C227.429 1.97758 229.275 3.11547 230.758 4.6515C231.039 5.7357 231.076 6.8689 230.866 7.96913C230.657 9.06936 230.206 10.1099 229.546 11.0149C222.455 22.5067 217.335 35.1021 214.396 48.2818C213.857 52.1996 212.516 55.9649 210.458 59.3415C208.75 62.3314 207.33 65.4763 206.216 68.734C206.216 69.946 202.125 77.6715 195.46 91.7605C190.255 102.129 186.094 112.989 183.037 124.18C180.606 134.695 176.892 144.871 171.978 154.479C170.766 157.358 168.645 162.962 165.767 171.143C163.62 177.529 161.142 183.8 158.344 189.929C155.011 198.564 152.284 206.138 150.315 212.804C149.103 216.288 146.376 223.712 141.982 235.226C138.548 244.042 135.615 253.044 133.196 262.191C131.839 266.111 130.271 269.954 128.499 273.705C126.43 277.902 124.854 282.325 123.803 286.885C122.591 291.278 119.864 299.005 115.774 310.215C112.472 318.423 110.035 326.953 108.502 335.666C108.502 338.544 106.987 344.907 105.169 354.754C103.608 362.245 102.596 369.84 102.139 377.479C102.14 391.284 99.8883 404.998 95.4736 418.079C94.5763 421.178 94.1674 424.398 94.2616 427.623V435.5L91.9893 446.56C90.8957 451.536 90.337 456.614 90.3228 461.709C90.241 472.454 89.0736 483.164 86.8385 493.674C86.2324 497.335 85.8278 501.027 85.6266 504.733C85.6266 509.581 84.7175 513.974 84.1115 517.913C83.5426 521.625 82.6298 525.277 81.3848 528.821C80.8819 529.37 80.2746 529.814 79.5983 530.126C78.9221 530.438 78.1902 530.612 77.4458 530.639C67.7655 529.693 57.9963 530.306 48.5106 532.456C47.276 532.832 45.9579 532.832 44.7233 532.456C43.7126 531.843 42.57 531.479 41.3904 531.396C30.6039 531.191 19.8173 531.798 9.12212 533.214H6.09229C5.61973 531.433 4.67793 529.811 3.36528 528.517C2.15258 527.093 1.13383 525.513 0.335449 523.821C2.77947 519.517 4.13198 514.68 4.27444 509.732C5.48639 503.521 6.84975 494.583 8.21319 482.16C9.57664 469.738 10.94 460.951 12.152 454.892C14.8693 441.3 16.591 427.527 17.3029 413.685C17.3851 412.828 17.3851 411.966 17.3029 411.11C17.2325 410.188 17.5017 409.272 18.0602 408.535C21.0504 400.09 22.0866 391.078 21.0903 382.175C21.0903 382.175 21.0903 376.418 22.7567 367.025C24.4231 357.633 24.5745 351.876 25.1804 348.089C26.6012 338.41 27.2095 328.629 26.9985 318.85C27.3928 311.482 27.3928 304.1 26.9985 296.732C26.9985 286.885 26.9985 279.461 26.9985 274.614C26.9985 269.766 26.0894 257.04 23.9685 237.649L20.4842 205.078C20.4842 201.14 19.4236 194.777 18.5147 185.99C17.6057 177.203 16.8482 169.628 16.3938 162.811C15.9393 155.994 15.4849 149.632 15.3334 143.42C15.3334 133.422 13.5155 119.029 11.0916 100.092C11.0916 96.9111 11.0916 91.9118 11.0916 84.9431C11.0916 77.9743 11.0916 73.4295 11.0916 69.7937C11.0916 66.1578 11.0916 62.8251 10.3341 57.6744C9.57663 52.5236 10.3341 47.8275 10.3341 43.7372C10.3341 39.6468 10.3341 35.4052 10.3341 31.6179C10.1212 26.0425 9.30851 20.5059 7.91014 15.1046C6.93511 13.7932 6.23193 12.3004 5.84171 10.7135C5.45149 9.12657 5.38218 7.47777 5.63783 5.86371Z" fill="#323232"/>
</g>
</svg>
