<svg width="76" height="201" viewBox="0 0 76 201" fill="none" xmlns="http://www.w3.org/2000/svg">
<g clip-path="url(#clip0_12_418)">
<path d="M75.9232 7.17468C75.9359 7.10224 75.9359 7.02813 75.9232 6.95568V6.27293C75.9232 6.01529 75.8464 5.66747 75.7696 5.20371C75.6927 4.73996 75.6415 4.4952 75.6287 4.37926C75.5799 3.92644 75.4406 3.48823 75.219 3.09104C75.091 2.84628 75.0142 2.67881 74.9758 2.60152C74.9091 2.42259 74.8187 2.25358 74.7069 2.09912C74.5821 1.9369 74.4305 1.79746 74.2588 1.68689L74.0667 1.54519C73.9829 1.44875 73.8884 1.3623 73.7851 1.28754L73.6186 1.21025C72.7506 0.561517 71.6907 0.225722 70.6099 0.256972H67.8572C66.1799 0.256972 34.748 0.256972 31.6496 0.256972C31.5588 0.211128 31.4646 0.172368 31.3679 0.141033C31.1643 0.109541 30.957 0.109541 30.7534 0.141033H29.6267C28.9115 0.145569 28.197 0.0982113 27.4886 -0.000671013C27.2813 -0.0161086 27.0737 0.0238909 26.8868 0.115268C26.6554 0.203352 26.4426 0.334455 26.2594 0.501732C26.1454 0.605326 26.0553 0.732854 25.9955 0.875312C25.9358 1.01777 25.9079 1.17169 25.9138 1.32619C25.9284 2.06362 25.877 2.80089 25.7601 3.52904C25.7601 3.76091 25.6705 4.12161 25.5681 4.59825C25.4656 5.07489 25.4016 5.52577 25.3632 5.79629C25.0431 8.05067 24.8639 9.53211 24.8383 10.3437C24.8383 10.5112 24.7359 11.297 24.5694 12.6238C24.5375 12.846 24.5375 13.0716 24.5694 13.2937C24.5127 13.4342 24.474 13.5814 24.4542 13.7317C24.4542 14.247 24.3262 15.0199 24.1853 16.0762C24.1853 16.1922 24.1853 16.4241 24.1853 16.7848C24.2018 16.9389 24.2018 17.0944 24.1853 17.2485C24.0157 17.8785 23.8916 18.52 23.814 19.168C23.814 19.5673 23.7244 20.1599 23.6476 20.9328C23.5708 21.7057 23.5195 22.3241 23.4811 22.775C23.462 23.0216 23.4278 23.2668 23.3787 23.5092C23.3787 23.9215 23.2763 24.1662 23.2635 24.295C23.2635 24.9005 23.0458 25.8924 22.8154 27.2579C22.8154 27.6444 22.6489 28.3272 22.4697 29.2933C22.2904 30.2595 22.1752 31.0839 22.1112 31.5606C22.0967 31.6607 22.0753 31.7597 22.0472 31.8569V31.9213C21.907 32.2679 21.8436 32.641 21.8613 33.0147C21.879 33.3885 21.9774 33.7539 22.1496 34.0855C22.2436 34.2708 22.3865 34.4266 22.5627 34.5357C22.7388 34.6447 22.9414 34.7029 23.1483 34.7038H23.2763C24.4493 34.571 25.6302 34.5236 26.81 34.5621H64.0162H64.5795H66.5512C66.7269 34.5717 66.9012 34.5267 67.0505 34.4333C67.3329 34.3773 67.6209 34.3556 67.9084 34.3689C68.0506 34.3731 68.1923 34.3479 68.3244 34.2947C68.4566 34.2415 68.5765 34.1615 68.6766 34.0597L68.8558 33.9824C69.1637 33.8909 69.4539 33.7472 69.7136 33.5573L71.1988 32.385C72.1086 31.7002 72.7662 30.7304 73.0681 29.6282C73.1961 29.113 73.3369 28.34 73.4906 27.4512C73.6047 26.8961 73.6604 26.3304 73.657 25.7636C73.785 24.9005 73.8491 24.4754 73.8619 24.1533C73.9879 23.8245 74.053 23.4752 74.0539 23.1228C74.0626 23.0156 74.0626 22.9079 74.0539 22.8007C74.1692 22.3241 74.246 21.9505 74.2972 21.6671C74.3581 21.2752 74.3838 20.8785 74.374 20.4819C74.3639 20.0061 74.2729 19.5356 74.1051 19.0907C73.8794 18.4694 73.4899 17.9217 72.9784 17.5062C73.0837 17.4288 73.1822 17.3426 73.2729 17.2485C73.3835 17.1582 73.4824 17.0543 73.5674 16.9393C73.6702 16.8264 73.7643 16.7058 73.8491 16.5786L73.9387 16.4627C74.4827 15.6287 74.8328 14.682 74.9629 13.693C75.0157 13.4992 75.05 13.3008 75.0654 13.1005C75.0654 12.9974 75.0654 12.933 75.0654 12.933C75.0723 12.899 75.0723 12.8639 75.0654 12.8299C75.2466 12.365 75.3504 11.8732 75.3727 11.3743C75.3727 11.0007 75.3727 10.7688 75.3727 10.7044C75.3727 10.64 75.4495 10.2406 75.5007 9.87993C75.5519 9.51923 75.5903 9.30023 75.6287 9.13277C75.6246 9.05123 75.6246 8.96954 75.6287 8.88801C75.6927 8.65613 75.7311 8.48866 75.7439 8.41137C75.7568 8.33407 75.7439 8.1666 75.7439 7.97337C75.8651 7.72496 75.9265 7.45137 75.9232 7.17468ZM67.153 23.754C67.0867 23.9473 67.0354 24.1454 66.9993 24.3466C66.9407 24.5213 66.9062 24.7034 66.8969 24.8876C66.8787 25.0589 66.8787 25.2316 66.8969 25.4029C66.6793 26.9359 66.6152 27.2579 66.6024 27.2837C66.5896 27.3095 66.6024 27.4254 66.3464 27.5413C66.0353 27.7031 65.6963 27.8037 65.3477 27.8376C65.0917 27.8376 64.8228 27.8376 64.5539 27.8376H29.4474C29.6139 26.923 29.7291 26.047 29.8059 25.2612C29.8956 24.2435 29.9468 23.6638 29.9468 23.6252C29.954 23.5782 29.954 23.5304 29.9468 23.4835C29.9468 23.0326 30.0748 22.5044 30.1772 21.9118C30.2412 21.5383 30.2797 21.2162 30.3181 20.9586H49.2669C65.8086 20.9586 65.8086 20.9586 65.9879 20.9586C66.4058 20.8494 66.8415 20.8275 67.2682 20.8942C67.3388 21.2644 67.3388 21.6447 67.2682 22.0149C67.2466 22.1552 67.2123 22.2931 67.1658 22.4271C67.093 22.6685 67.0331 22.9136 66.9865 23.1614C67.0016 23.3682 67.0582 23.5698 67.153 23.754ZM31.5088 12.0312C31.7229 11.5558 31.8487 11.045 31.8801 10.524C31.8801 10.4081 31.9825 9.84128 32.1361 8.79783C32.2129 8.23102 32.2898 7.74149 32.3282 7.3035H52.3396C67.7035 7.3035 67.7035 7.3035 67.8956 7.3035C68.2799 7.20975 68.685 7.26012 69.035 7.44521C69.0537 7.53723 69.0794 7.62767 69.1119 7.71573L68.9966 8.70765C68.9198 9.27447 68.8814 9.75111 68.8558 10.1118C68.7583 10.4592 68.7236 10.8213 68.7534 11.181C68.7623 11.3011 68.7623 11.4217 68.7534 11.5417C68.6607 11.7905 68.6005 12.0503 68.5741 12.3147C68.5592 12.5463 68.5592 12.7787 68.5741 13.0103L68.2285 13.3968C68.0876 13.5385 67.998 13.5642 67.9596 13.5642H67.5243C67.2645 13.5391 67.003 13.5391 66.7433 13.5642H66.564H52.0836C38.8834 13.5642 33.5957 13.5642 31.4191 13.6286C31.4191 13.4483 31.4191 13.255 31.5088 13.0361C31.5394 12.7621 31.5394 12.4855 31.5088 12.2116C31.5029 12.1516 31.5029 12.0912 31.5088 12.0312Z" fill="#F3EADB"/>
<path d="M60.3031 126.913C60.188 126.651 60.0554 126.397 59.9062 126.153L59.6758 125.78C59.5981 125.629 59.4889 125.497 59.3557 125.393C58.7156 124.872 58.0095 124.439 57.2559 124.105C57.1657 124.067 57.071 124.041 56.9743 124.028C56.6901 123.982 56.4006 123.982 56.1165 124.028C55.8364 123.951 55.5486 123.908 55.2586 123.899C54.9129 123.899 54.5288 123.899 54.1319 123.899C53.872 123.918 53.6109 123.918 53.3509 123.899H16.6441C16.452 123.899 15.9399 123.899 13.9426 123.899C12.7519 123.899 11.8301 123.899 11.1643 123.899C10.9081 123.892 10.6567 123.969 10.4473 124.118C10.1432 124.377 9.90964 124.709 9.76874 125.084C9.70177 125.234 9.66688 125.396 9.66632 125.561C9.67477 126.264 9.62337 126.966 9.51268 127.66C9.51268 127.828 9.51268 128.073 9.39745 128.408C9.28222 128.743 9.28222 129.09 9.25662 129.322C9.23101 129.554 9.1798 129.889 9.05176 130.791C9.05176 130.894 9.05176 131.023 9.05176 131.19C9.05176 131.358 8.96214 131.641 8.93653 131.847C8.92314 132.087 8.92314 132.328 8.93653 132.569C8.95423 132.757 8.95423 132.947 8.93653 133.135C8.88335 133.42 8.85338 133.709 8.84691 133.998V134.153C8.78927 134.416 8.78927 134.689 8.84691 134.952V135.016C8.84691 135.171 8.84691 135.287 8.84691 135.364C8.84691 135.441 8.84691 135.57 8.75729 135.738C8.66767 135.905 8.75729 136.06 8.66767 136.163C8.58542 136.415 8.52124 136.674 8.47562 136.936C8.47562 137.322 8.34759 137.902 8.24516 138.649C8.14273 139.396 8.06591 139.937 8.06591 139.937C7.96349 140.658 7.87387 141.431 7.80985 142.191C7.80985 142.359 7.80985 142.604 7.69462 142.887C7.57939 143.171 7.605 143.518 7.56659 143.789C7.52818 144.059 7.56659 144.356 7.48977 144.626C7.46942 144.939 7.4223 145.249 7.34893 145.554C7.25266 145.978 7.18846 146.408 7.15689 146.842C7.14318 147.017 7.1088 147.19 7.05446 147.357C6.9712 147.652 6.91548 147.954 6.88802 148.259C6.88802 148.774 6.78559 149.083 6.75999 149.264C6.73438 149.444 6.75998 149.689 6.68317 150.024C6.60635 150.359 6.68317 150.488 6.68317 150.488C6.68317 150.848 6.49112 152.111 6.19664 154.262C6.10702 154.803 6.0302 155.241 5.95338 155.628L5.87656 155.988C5.8283 156.196 5.79408 156.407 5.77414 156.619C5.74488 156.82 5.74488 157.024 5.77414 157.225C5.81205 157.518 5.9125 157.799 6.06861 158.049C6.17548 158.218 6.32331 158.356 6.49808 158.45C6.67286 158.545 6.86878 158.593 7.06726 158.59C7.38734 158.59 7.84826 158.59 8.34759 158.59H9.9736C10.4912 158.604 11.0091 158.578 11.5228 158.513C11.7738 158.476 12.0045 158.353 12.1767 158.166C12.349 157.978 12.4526 157.737 12.4702 157.483C12.5068 157.378 12.5325 157.27 12.547 157.161C12.547 156.993 12.547 156.748 12.6495 156.465L12.7391 155.821C12.7657 155.508 12.7657 155.193 12.7391 154.88C12.7391 154.764 12.7391 154.713 12.7391 154.713C12.8169 154.544 12.8521 154.358 12.8415 154.172C12.8224 154.018 12.8224 153.862 12.8415 153.708C12.8415 153.515 12.8415 153.27 12.9439 152.974C13.0464 152.678 13.0464 152.368 13.0592 152.252C13.1744 151.157 13.2384 150.552 13.2512 150.462C13.2575 150.41 13.2575 150.359 13.2512 150.307C13.2767 150.03 13.3195 149.755 13.3793 149.483C13.4559 149.114 13.4987 148.739 13.5073 148.362C13.5073 148.169 13.5841 147.847 13.6481 147.422C13.7321 146.996 13.7919 146.566 13.8274 146.133C13.8351 145.835 13.8651 145.538 13.917 145.245L14.045 144.343C14.045 144.343 14.045 144.24 14.045 144.188H40.9702L41.3031 144.6L42.3274 145.889L46.7061 151.595C47.0891 152.268 47.5169 152.913 47.9864 153.528C48.5625 154.275 48.921 154.816 49.1003 155.074C49.3388 155.413 49.5998 155.736 49.8813 156.04C50.4657 156.736 51.0127 157.462 51.5201 158.217C51.6113 158.358 51.7187 158.488 51.8402 158.603C52.3788 159.12 53.0932 159.41 53.8375 159.415C54.2813 159.415 54.755 159.415 55.2586 159.415H55.7196H56.4237C56.8002 159.417 57.1694 159.31 57.4864 159.106C57.8696 158.84 58.1575 158.457 58.3075 158.014C58.4574 157.571 58.4613 157.091 58.3186 156.645C58.2351 156.403 58.1279 156.17 57.9985 155.95C57.8253 155.66 57.619 155.392 57.384 155.151L57.2815 155.022C57.0383 154.752 56.7822 154.455 56.539 154.146L54.8873 152.008C53.8119 150.655 52.4291 148.826 50.7903 146.597C50.4062 146.069 49.7917 145.309 48.9722 144.175H49.9325C51.5088 144.136 53.0778 143.946 54.6185 143.609C54.7465 143.609 55.7324 143.235 55.8988 143.183C56.0877 143.09 56.2715 142.987 56.4493 142.874C56.7352 142.709 56.9942 142.5 57.2175 142.256L57.5888 141.869C57.8577 141.586 58.0753 141.354 58.229 141.174C58.4033 140.964 58.5657 140.745 58.7155 140.517C58.9476 140.113 59.1242 139.68 59.2404 139.229C59.3 138.991 59.377 138.759 59.4709 138.533C59.6129 138.273 59.6496 137.969 59.5733 137.683C59.8117 137.232 59.8668 136.705 59.727 136.214C59.6987 135.805 59.7465 135.395 59.8678 135.003C60.0434 134.398 60.1845 133.783 60.2903 133.161C60.4695 131.796 60.5848 130.842 60.6232 130.301C60.7066 129.477 60.6851 128.646 60.5592 127.828C60.516 127.513 60.4298 127.205 60.3031 126.913ZM14.9669 136.163C14.9616 136.107 14.9616 136.051 14.9669 135.995L15.0565 135.506C15.0649 135.235 15.108 134.967 15.1845 134.707C15.3164 134.266 15.4023 133.813 15.4406 133.354C15.4406 133.135 15.5302 132.813 15.6198 132.388C15.7094 131.963 15.7991 131.512 15.8375 131.242V130.804C15.8375 130.804 15.8375 130.726 15.8375 130.675H51.6609C52.0819 130.762 52.5119 130.796 52.9412 130.778H53.5686C53.5686 130.932 53.5686 131.126 53.5686 131.345C53.5686 131.564 53.5686 132.04 53.5686 132.311C53.5886 132.547 53.5886 132.784 53.5686 133.019L53.0949 136.781C52.3606 137.102 51.5649 137.256 50.7647 137.232C50.6841 137.22 50.6021 137.22 50.5214 137.232H14.9028V137.142C15.0284 136.831 15.0508 136.487 14.9669 136.163Z" fill="#F3EADB"/>
<path d="M55.1817 170.753C55.1817 170.753 55.1817 170.637 55.1817 170.495C55.1787 170.193 55.1312 169.894 55.0409 169.606C54.9544 169.349 54.8474 169.099 54.7208 168.859L54.5544 168.511C54.5386 168.458 54.5171 168.406 54.4903 168.357C54.2344 167.955 53.9241 167.591 53.5685 167.275C53.0468 166.683 52.3803 166.239 51.6352 165.986C50.9282 165.768 50.2045 165.609 49.4715 165.51C49.2461 165.482 49.0182 165.482 48.7929 165.51C47.9863 165.51 44.0045 165.445 20.024 165.394H11.0618C10.538 165.364 10.0132 165.429 9.51258 165.587L8.71878 165.819C8.46792 165.821 8.2184 165.856 7.97619 165.922C7.76852 165.979 7.56697 166.057 7.37444 166.154L6.96474 166.386L6.64465 166.566C6.40887 166.688 6.18945 166.839 5.99169 167.017C5.80724 167.179 5.63198 167.351 5.46676 167.532C5.38803 167.624 5.30242 167.711 5.21069 167.79C4.56405 168.375 4.09008 169.128 3.84075 169.967C3.76697 170.27 3.65057 170.56 3.49506 170.83C3.24573 171.244 3.13364 171.726 3.17498 172.208C3.18436 172.285 3.18436 172.363 3.17498 172.44C3.17498 172.672 2.8677 174.501 2.81649 175.017L2.72687 175.455C2.51914 176.39 2.36525 177.336 2.26595 178.289C2.0867 180.208 1.98428 181.033 1.93306 181.393C1.88805 181.566 1.88805 181.748 1.93306 181.921C1.97093 182.062 2.03622 182.193 2.12511 182.308C2.10707 182.432 2.10707 182.558 2.12511 182.682C2.14712 182.753 2.17719 182.823 2.21474 182.888C2.4878 183.378 2.79589 183.847 3.13657 184.292C3.36362 184.552 3.62665 184.777 3.91757 184.962C4.18545 185.121 4.46344 185.264 4.74978 185.387C4.93415 185.471 5.11367 185.566 5.28751 185.67C5.5523 185.821 5.83672 185.934 6.13253 186.005L6.72147 186.147C7.10987 186.277 7.51572 186.346 7.92498 186.353H8.73158L8.96204 186.417H9.2053C9.73023 186.572 40.1379 186.598 46.2451 186.611C46.2296 186.795 46.2296 186.98 46.2451 187.164C46.2451 187.242 46.2451 187.358 46.2451 187.499C46.2337 187.853 46.2038 188.205 46.1554 188.556C46.0856 188.862 46.0343 189.171 46.0018 189.483C45.8708 189.632 45.7854 189.816 45.7559 190.012C45.7263 190.209 45.7539 190.41 45.8354 190.591V190.823C45.8568 190.994 45.8568 191.167 45.8354 191.338C45.8354 191.635 45.7713 191.982 45.7073 192.356C45.6433 192.73 45.6177 193.039 45.6049 193.103C45.5921 193.168 45.6049 193.309 45.6049 193.528V193.786V193.928C45.5184 194.049 45.4534 194.184 45.4128 194.327H7.18239L6.91352 194.211C6.89723 194.143 6.89723 194.073 6.91352 194.005C6.93284 193.877 6.93284 193.747 6.91352 193.618C6.97834 193.388 7.00431 193.149 6.99034 192.91V192.614C6.99637 192.532 6.99637 192.45 6.99034 192.369C7.11791 192.049 7.18312 191.708 7.18239 191.364V190.926C7.25815 190.693 7.25667 190.441 7.17818 190.209C7.09969 189.977 6.94841 189.776 6.74708 189.638C6.33149 189.364 5.82526 189.267 5.33873 189.367C4.84059 189.416 4.33888 189.416 3.84075 189.367C3.76426 189.377 3.68678 189.377 3.61029 189.367C3.35094 189.335 3.08864 189.335 2.82929 189.367H2.56042L2.04829 189.445C1.84759 189.492 1.65685 189.575 1.48495 189.689C1.20898 189.86 0.986916 190.105 0.84479 190.398C0.807297 190.481 0.777302 190.567 0.755167 190.656C0.755167 190.913 0.665544 191.068 0.627135 191.197C0.468084 191.772 0.377823 192.364 0.358267 192.961C0.204628 194.533 0.0893988 195.538 0.0125794 196.066C-0.0318624 196.244 -0.0318624 196.43 0.0125794 196.607C0.0531522 196.742 0.118264 196.869 0.204628 196.981C0.185314 197.109 0.185314 197.239 0.204628 197.367L0.294251 197.56C0.569802 198.056 0.882241 198.529 1.22889 198.977C1.44823 199.236 1.70761 199.458 1.99708 199.634C2.26217 199.799 2.54055 199.941 2.82929 200.06C3.01366 200.144 3.19319 200.238 3.36703 200.343C3.63283 200.491 3.91695 200.604 4.21204 200.678C4.41161 200.716 4.60838 200.768 4.80099 200.832C5.17826 200.954 5.57022 201.023 5.96608 201.039H16.7208C38.0382 201.039 43.9533 201.039 44.2093 201.039C44.4774 201.009 44.7479 201.009 45.0159 201.039C45.1427 201.065 45.2733 201.065 45.4 201.039L45.7841 200.961L46.5395 200.832C46.8196 200.834 47.0897 200.728 47.2949 200.536C47.6199 200.489 47.9328 200.38 48.2168 200.214L48.3448 200.124C48.6245 199.92 48.92 199.739 49.2282 199.583C50.0825 198.972 50.7838 198.169 51.2767 197.238C51.456 196.852 51.5712 196.607 51.6096 196.491C51.6155 196.435 51.6155 196.379 51.6096 196.324L51.7889 195.628C51.9033 195.251 51.9763 194.862 52.0065 194.469C52.0313 194.239 52.0698 194.011 52.1217 193.786C52.1969 193.515 52.2525 193.24 52.2882 192.961C52.3584 192.622 52.4012 192.277 52.4162 191.931C52.4268 191.68 52.4567 191.43 52.5058 191.184C52.5185 191.107 52.5185 191.029 52.5058 190.952V190.308V189.677C52.5699 188.994 52.6467 188.169 52.7747 187.409C52.9257 187.128 53.009 186.814 53.018 186.495C53.018 186.34 53.018 186.173 53.018 186.005C53.0735 185.848 53.1037 185.683 53.1076 185.516C53.1076 185.516 53.1076 185.374 53.1076 185.206C53.1045 184.905 53.0571 184.605 52.9668 184.318C52.8779 184.061 52.771 183.811 52.6467 183.57L52.4802 183.223C52.4824 183.18 52.4824 183.137 52.4802 183.094C52.2205 182.683 51.906 182.31 51.5456 181.986C51.0201 181.399 50.3548 180.955 49.6123 180.698C48.9113 180.476 48.1912 180.32 47.4614 180.234C47.237 180.193 47.0072 180.193 46.7828 180.234C45.9122 180.234 41.4566 180.157 13.9553 180.118H8.96204L8.68037 180.002C8.66915 179.934 8.66915 179.864 8.68037 179.796C8.77659 179.49 8.77659 179.162 8.68037 178.856C8.6707 178.809 8.6707 178.761 8.68037 178.714V178.546C8.76611 178.155 8.83023 177.76 8.87242 177.361C8.92375 177.212 8.94972 177.055 8.94924 176.897C9.08278 176.571 9.14815 176.22 9.14128 175.867V175.197C9.16681 175.069 9.16681 174.938 9.14128 174.811C9.2912 173.936 9.50954 173.074 9.79425 172.234C10.02 172.222 10.2434 172.183 10.46 172.118H10.7033C11.2282 172.273 41.5975 172.299 47.7302 172.311V172.453C47.6768 172.642 47.651 172.837 47.6534 173.033C47.6471 173.093 47.6471 173.153 47.6534 173.213C47.4934 173.612 47.4592 174.051 47.5554 174.471C47.6516 174.89 47.8735 175.269 48.1911 175.558C48.3632 175.71 48.5728 175.813 48.798 175.856C49.0233 175.899 49.2558 175.881 49.4715 175.802H49.8044C49.979 175.819 50.1547 175.819 50.3293 175.802C50.3293 175.802 50.5597 175.802 51.3279 175.88C51.7907 175.947 52.2607 175.947 52.7235 175.88C53.1197 175.897 53.5105 175.784 53.8374 175.558C54.0059 175.457 54.1453 175.313 54.2419 175.142C54.3384 174.97 54.3887 174.776 54.3879 174.579C54.4138 173.896 54.5126 173.218 54.6824 172.556C54.6824 172.234 54.7848 171.989 54.7976 171.899C54.8104 171.809 54.7976 171.577 54.7976 171.41C54.8531 171.252 54.8834 171.087 54.8872 170.92L55.1817 170.753Z" fill="#F3EADB"/>
<path d="M70.1361 41.5822C70.0162 41.4925 69.8796 41.4281 69.7344 41.3927C69.5892 41.3573 69.4385 41.3516 69.2911 41.376H69.0734C68.7479 41.3118 68.4131 41.3118 68.0876 41.376C67.9345 41.3568 67.7797 41.3568 67.6266 41.376H67.281C66.6856 41.3043 66.0839 41.3043 65.4885 41.376C64.2082 41.376 25.6448 41.4533 25.312 41.4533C24.7263 41.4436 24.1405 41.4694 23.5579 41.5306C23.3832 41.5448 23.2077 41.5448 23.033 41.5306C22.6233 41.5306 22.3544 41.5306 22.2136 41.5306C21.8012 41.4954 21.3881 41.5891 21.0306 41.7989C20.6731 42.0087 20.3888 42.3244 20.2163 42.7029C20.1506 42.8441 20.1157 42.9979 20.1138 43.1538C20.1075 43.2438 20.1075 43.3342 20.1138 43.4243C20.0653 43.6054 20.0353 43.791 20.0242 43.9782C20.0054 44.2097 20.0054 44.4424 20.0242 44.6739C20.0307 44.7725 20.0307 44.8715 20.0242 44.9702C20.0296 45.0731 20.0296 45.1763 20.0242 45.2793C19.9431 45.5681 19.9128 45.8689 19.9346 46.1682C19.9341 46.5256 19.9127 46.8826 19.8706 47.2374C19.8497 47.4668 19.8155 47.6948 19.7682 47.9202C19.6898 48.2764 19.6384 48.6382 19.6145 49.0023C19.6351 49.5088 19.5877 50.0157 19.4737 50.5095C19.3356 51.1067 19.2457 51.7141 19.2048 52.3259C19.2048 52.6479 19.0896 53.1374 19 53.8073C18.9103 54.4772 18.8591 54.9667 18.8079 55.3016C18.7567 55.6366 18.6927 56.023 18.5775 56.6671C18.4622 57.3113 18.3726 57.9554 18.3342 58.3805C18.3342 58.5479 18.3342 58.7927 18.2318 59.1019C18.1293 59.411 18.1037 59.8104 18.1037 59.8748C18.1037 60.1968 17.9885 60.6864 17.9245 61.3434C17.8605 62.0003 17.8093 62.4126 17.758 62.7089C17.7068 63.0052 17.6684 63.3272 17.566 64.1388C17.4636 64.9504 17.3611 65.427 17.2843 65.7748C17.2128 66.0461 17.1573 66.3214 17.1179 66.5993C17.1179 66.8698 17.0411 67.1661 17.0155 67.4881C16.9898 67.8102 17.0155 67.9905 17.0155 68.0292C16.8616 68.5323 16.7376 69.0442 16.6442 69.5622C16.6442 70.1161 16.5161 70.5154 16.4777 70.7087C16.4185 70.9379 16.3715 71.1701 16.3369 71.4043C16.3369 71.6104 16.3369 71.8423 16.3369 72.0871V72.6152C16.3212 72.7756 16.2955 72.9348 16.2601 73.0919C16.201 73.3335 16.1583 73.5788 16.132 73.8262C16.1087 74.0962 16.1087 74.3677 16.132 74.6377C16.1537 74.8751 16.2476 75.1001 16.4009 75.2818C16.7617 75.6761 17.2537 75.9236 17.7837 75.9775H18.2062C18.4108 75.9913 18.6161 75.9913 18.8207 75.9775C19.256 75.9775 19.7041 75.9002 20.1779 75.8873C20.6516 75.8744 21.2917 75.8873 21.9575 75.8873H62.0572L63.9137 75.9646C64.6027 76.0468 65.2989 76.0468 65.9878 75.9646C66.1117 75.9561 66.2331 75.9256 66.3463 75.8744C66.5344 75.7941 66.6948 75.6596 66.8072 75.4879C66.9828 75.2791 67.1175 75.0387 67.2041 74.7794C67.2555 74.494 67.2555 74.2017 67.2041 73.9163C67.1977 73.8005 67.1977 73.6844 67.2041 73.5685V72.7312L67.3194 72.0742C67.3834 71.7392 67.4346 71.443 67.4602 71.1853C67.4927 70.8727 67.4927 70.5575 67.4602 70.2449C67.4304 70.0232 67.3502 69.8115 67.2258 69.626C67.1015 69.4406 66.9363 69.2865 66.7432 69.1757C66.519 69.0385 66.263 68.963 66.0006 68.9567C65.7318 68.9567 65.3221 68.9567 64.7203 68.9567C64.1186 68.9567 63.8497 68.9567 63.5552 68.9567H61.9548H23.75C23.75 68.3512 23.814 68.055 23.8268 67.9519C23.9663 67.4549 23.9663 66.9288 23.8268 66.4318C23.8196 66.3892 23.8196 66.3456 23.8268 66.303C23.8341 66.2302 23.8341 66.1568 23.8268 66.084C23.9183 65.708 23.9741 65.3241 23.9932 64.9375C23.9932 64.9375 23.9932 64.7958 23.9932 64.7185C24.1211 64.5562 24.2207 64.3733 24.2877 64.1774C24.3064 64.0579 24.3064 63.9362 24.2877 63.8167C24.2857 63.2393 24.3242 62.6625 24.4029 62.0905H63.3248C63.8169 62.1091 64.3096 62.0832 64.7971 62.0132C65.1199 61.9684 65.4474 61.9684 65.7702 62.0132C65.9754 62.0494 66.1866 62.0262 66.3792 61.9464C66.5718 61.8666 66.738 61.7334 66.8585 61.5624C67.0354 61.2895 67.1774 60.9951 67.281 60.6864C67.3352 60.5913 67.3823 60.4923 67.4218 60.3901C67.4627 60.2609 67.4843 60.1263 67.4858 59.9907C67.4916 59.9437 67.4916 59.8961 67.4858 59.849C67.4921 59.7977 67.4921 59.7458 67.4858 59.6944V59.2565C67.6285 58.8922 67.6897 58.5007 67.6651 58.1099C67.6651 57.8652 67.6651 57.6848 67.6651 57.6719C67.6651 57.6591 67.6651 57.3885 67.7675 56.9892C67.7851 56.8829 67.8152 56.7792 67.8571 56.68C67.9225 56.5347 67.9567 56.3772 67.9574 56.2177C67.9581 56.0582 67.9254 55.9003 67.8614 55.7544C67.7973 55.6085 67.7034 55.4779 67.5857 55.371C67.4681 55.2641 67.3293 55.1834 67.1785 55.1342C66.9119 55.0608 66.6347 55.0346 66.3591 55.0569C66.1949 55.0184 66.024 55.0184 65.8598 55.0569H65.5141H65.0916C64.9168 55.0452 64.7415 55.0452 64.5667 55.0569H63.8241H25.6064L25.9265 52.8154C25.9787 52.4566 25.9787 52.0921 25.9265 51.7333C25.9936 51.4072 26.0151 51.0734 25.9905 50.7414C26.2139 50.3052 26.2988 49.8106 26.2338 49.3243C26.3005 49.0844 26.3434 48.8385 26.3618 48.59C26.3618 48.3839 26.3618 48.2422 26.3618 48.1778C31.8032 48.1778 65.3733 48.1778 66.2567 48.2422C66.8499 48.3065 67.4492 48.2848 68.0363 48.1778C68.5667 48.1582 69.092 48.0673 69.5983 47.9073C69.8575 47.8132 70.0723 47.6247 70.2001 47.3791C70.3649 47.0252 70.4397 46.6357 70.4177 46.2455C70.4177 46.1682 70.4177 46.1167 70.4177 46.1167C70.5004 45.993 70.5518 45.8509 70.5674 45.7027C70.583 45.5546 70.5624 45.4048 70.5074 45.2664C70.4929 45.1553 70.4929 45.0427 70.5074 44.9315C70.5416 44.5889 70.5416 44.2436 70.5074 43.9009C70.4868 43.7816 70.4868 43.6596 70.5074 43.5402C70.662 43.2811 70.7124 42.9724 70.6482 42.6771C70.6049 42.2645 70.4245 41.8787 70.1361 41.5822Z" fill="#F3EADB"/>
<path d="M64.8355 82.7919H64.7202H64.5538C64.0676 82.7662 63.5804 82.7662 63.0942 82.7919H62.8894C62.847 82.7989 62.8038 82.7989 62.7614 82.7919C62.4824 82.7022 62.1825 82.7022 61.9035 82.7919C61.6795 82.7144 61.4362 82.7144 61.2122 82.7919H60.5976C60.5127 82.779 60.4264 82.779 60.3415 82.7919C60.2113 82.7587 60.0749 82.7587 59.9446 82.7919H21.9062C21.6886 82.7919 21.1892 82.7919 19.1919 82.7919H16.4136C16.1566 82.7783 15.9029 82.8558 15.6967 83.0109C15.3917 83.2689 15.158 83.6017 15.0181 83.9771C14.9505 84.1218 14.9197 84.2812 14.9285 84.4408C14.9246 85.1477 14.8733 85.8536 14.7748 86.5535C14.7748 86.7081 14.7748 86.9657 14.6468 87.3007C14.5188 87.6356 14.5316 87.9834 14.506 88.2024C14.4804 88.4214 14.4291 88.7821 14.3011 89.6839C14.3011 89.7869 14.3011 89.9158 14.2371 90.0832C14.1731 90.2507 14.1475 90.547 14.1219 90.7402C14.1081 90.9805 14.1081 91.2213 14.1219 91.4616C14.1475 91.6497 14.1475 91.8404 14.1219 92.0284C14.0744 92.314 14.0444 92.6022 14.0322 92.8915V93.0461C13.9742 93.3091 13.9742 93.5818 14.0322 93.8448C14.0322 93.9994 14.0322 94.1153 14.0322 94.1797C14.0322 94.2442 14.0322 94.3987 13.9554 94.5533C13.8786 94.7079 13.8786 94.8883 13.853 94.9913C13.7722 95.2444 13.7081 95.5026 13.6609 95.7642L13.4305 97.4904C13.3153 98.2891 13.2512 98.7787 13.2512 98.7787C13.1488 99.5001 13.0592 100.26 12.9952 101.033L12.8031 101.767C12.8031 102.102 12.7135 102.399 12.6751 102.656C12.6367 102.914 12.6751 103.223 12.5983 103.506C12.5788 103.819 12.5316 104.13 12.4574 104.434C12.3605 104.835 12.3005 105.245 12.2782 105.658C12.2523 105.832 12.2138 106.004 12.163 106.173C12.0832 106.464 12.0275 106.761 11.9965 107.062C11.9965 107.577 11.9069 107.899 11.8685 108.092C11.8301 108.286 11.8685 108.505 11.7917 108.84C11.7149 109.175 11.7917 109.303 11.7917 109.303C11.7917 109.806 11.4204 112.279 11.3052 113.065C11.2155 113.619 11.1387 114.057 11.0619 114.443L10.9851 114.804C10.9387 115.012 10.9045 115.223 10.8826 115.435C10.8607 115.641 10.8607 115.848 10.8826 116.054C10.9344 116.335 11.034 116.605 11.1771 116.852C11.2826 117.026 11.4316 117.168 11.6091 117.266C11.7867 117.363 11.9865 117.411 12.1886 117.406C12.5087 117.406 12.9568 117.406 13.4689 117.406C13.981 117.406 14.6596 117.406 15.1717 117.406C15.7047 117.387 16.2355 117.327 16.7593 117.226C17.0103 117.188 17.241 117.066 17.4133 116.878C17.5856 116.691 17.6891 116.45 17.7068 116.195C17.7471 116.074 17.7729 115.949 17.7836 115.822L17.9628 114.534C17.9959 114.221 17.9959 113.906 17.9628 113.593C17.9329 113.52 17.9198 113.44 17.9244 113.361C18.0023 113.192 18.0374 113.006 18.0269 112.82C18.0076 112.671 18.0076 112.519 18.0269 112.369C18.0269 112.176 18.0269 111.918 18.1293 111.622C18.2317 111.326 18.2317 111.017 18.2445 110.901C18.3597 109.819 18.4238 109.213 18.4366 109.123C18.4494 109.033 18.4366 109.02 18.4366 108.956C18.4562 108.678 18.4947 108.403 18.5518 108.131C18.6351 107.763 18.678 107.388 18.6798 107.01C18.6798 106.804 18.7566 106.495 18.8335 106.07C18.9135 105.644 18.9691 105.214 18.9999 104.782C19.0072 104.488 19.0372 104.195 19.0895 103.906C19.1663 103.429 19.2047 103.133 19.2176 103.004C19.2304 102.875 19.2176 102.901 19.2176 102.837H56.3469C56.1037 105.142 55.8348 107.139 55.5531 108.762C55.4891 109.084 55.4251 109.574 55.3483 110.244C55.2715 110.914 55.2203 111.287 55.1562 111.622L54.6441 115.268C54.6378 115.319 54.6378 115.371 54.6441 115.422V115.757C54.6427 115.906 54.6715 116.054 54.7287 116.191C54.786 116.329 54.8704 116.453 54.977 116.556C55.265 116.886 55.6303 117.138 56.0397 117.29C56.1417 117.303 56.2449 117.303 56.3469 117.29C56.4528 117.309 56.5611 117.309 56.667 117.29L57.3584 117.11C57.5288 117.097 57.7001 117.097 57.8705 117.11H58.3058L59.8166 117.239C60.1186 117.262 60.4175 117.165 60.6488 116.968L61.0201 116.633C61.2379 116.457 61.38 116.203 61.417 115.925L63.7984 98.4824C63.8752 98.0315 63.9649 97.1942 64.0545 95.9832C64.1085 95.1165 64.2283 94.2552 64.413 93.4068C64.6434 92.4278 64.9123 90.5856 65.2452 87.816C65.4372 86.605 65.7189 84.8015 65.7701 84.5181C65.8021 84.3739 65.8021 84.2244 65.7701 84.0801C65.7396 83.7553 65.5995 83.4507 65.3732 83.217C65.2356 83.0289 65.0497 82.8819 64.8355 82.7919ZM20.1522 95.8158C20.2503 95.5057 20.2503 95.1726 20.1522 94.8625C20.1522 94.8625 20.1522 94.7723 20.1522 94.7079C20.195 94.5474 20.225 94.3837 20.2418 94.2184C20.2566 93.9484 20.2995 93.6807 20.3698 93.4197C20.4961 92.9995 20.5818 92.5681 20.6259 92.1315C20.6259 91.8996 20.7155 91.5775 20.8052 91.1524C20.8948 90.7273 20.9844 90.2765 21.0228 90.0059L21.0868 89.5422C21.0868 89.5422 21.0868 89.4778 21.0868 89.4391H58.3698L57.6145 94.592C57.5837 95.0249 57.5238 95.4553 57.4352 95.8802H20.1394L20.1522 95.8158Z" fill="#F3EADB"/>
</g>
<defs>
<clipPath id="clip0_12_418">
<rect width="76" height="201" fill="white"/>
</clipPath>
</defs>
</svg>
